<?xml version="1.0" encoding="UTF-8"?> <svg xmlns="http://www.w3.org/2000/svg" xmlns:xlink="http://www.w3.org/1999/xlink" version="1.1" id="Layer_1" x="0px" y="0px" viewBox="0 0 100 97" style="enable-background:new 0 0 100 97;" xml:space="preserve"> <style type="text/css"> .st0{fill:#436FB6;} </style> <g> <path class="st0" d="M72.4,92c-10.9,0-19.7-8.8-19.7-19.7s8.8-19.7,19.7-19.7s19.7,8.8,19.7,19.7S83.2,92,72.4,92z M72.4,55.2 c-9.4,0-17.1,7.7-17.1,17.1S63,89.4,72.4,89.4s17.1-7.7,17.1-17.1S81.8,55.2,72.4,55.2z"></path> <g> <path class="st0" d="M63.2,15.9H34.3c-0.7,0-1.3-0.6-1.3-1.3s0.6-1.3,1.3-1.3h28.9c0.7,0,1.3,0.6,1.3,1.3S63.9,15.9,63.2,15.9z"></path> <path class="st0" d="M51.2,84.1H14.6c-3.6,0-6.6-2.9-6.6-6.6V19.8c0-3.6,2.9-6.6,6.6-6.6h9.2c0.7,0,1.3,0.6,1.3,1.3 s-0.6,1.3-1.3,1.3h-9.2c-2.2,0-3.9,1.8-3.9,3.9v57.8c0,2.2,1.8,3.9,3.9,3.9h36.6c0.7,0,1.3,0.6,1.3,1.3S52,84.1,51.2,84.1z"></path> <path class="st0" d="M88.1,56c-0.7,0-1.3-0.6-1.3-1.3V19.8c0-2.2-1.8-3.9-3.9-3.9h-9.2c-0.7,0-1.3-0.6-1.3-1.3s0.6-1.3,1.3-1.3 h9.2c3.6,0,6.6,2.9,6.6,6.6v34.9C89.4,55.4,88.8,56,88.1,56z"></path> <path class="st0" d="M82.9,34.2H14.6c-0.7,0-1.3-0.6-1.3-1.3s0.6-1.3,1.3-1.3h68.2c0.7,0,1.3,0.6,1.3,1.3S83.6,34.2,82.9,34.2z"></path> <path class="st0" d="M29.1,26.4c-0.7,0-1.3-0.6-1.3-1.3V9.3c0-0.7,0.6-1.3,1.3-1.3s1.3,0.6,1.3,1.3v15.8 C30.4,25.8,29.8,26.4,29.1,26.4z"></path> <path class="st0" d="M31.7,26.4h-5.2c-0.7,0-1.3-0.6-1.3-1.3s0.6-1.3,1.3-1.3h5.2c0.7,0,1.3,0.6,1.3,1.3S32.4,26.4,31.7,26.4z"></path> <path class="st0" d="M68.4,26.4c-0.7,0-1.3-0.6-1.3-1.3V9.3c0-0.7,0.6-1.3,1.3-1.3s1.3,0.6,1.3,1.3v15.8 C69.8,25.8,69.2,26.4,68.4,26.4z"></path> <path class="st0" d="M71.1,26.4h-5.2c-0.7,0-1.3-0.6-1.3-1.3s0.6-1.3,1.3-1.3h5.2c0.7,0,1.3,0.6,1.3,1.3S71.8,26.4,71.1,26.4z"></path> <path class="st0" d="M27.8,50h-7.9c-0.7,0-1.3-0.6-1.3-1.3s0.6-1.3,1.3-1.3h7.9c0.7,0,1.3,0.6,1.3,1.3S28.5,50,27.8,50z"></path> <path class="st0" d="M44.8,50h-7.9c-0.7,0-1.3-0.6-1.3-1.3s0.6-1.3,1.3-1.3h7.9c0.7,0,1.3,0.6,1.3,1.3S45.5,50,44.8,50z"></path> <path class="st0" d="M61.9,50H54c-0.7,0-1.3-0.6-1.3-1.3s0.6-1.3,1.3-1.3h7.9c0.7,0,1.3,0.6,1.3,1.3S62.6,50,61.9,50z"></path> <path class="st0" d="M78.9,50h-7.9c-0.7,0-1.3-0.6-1.3-1.3s0.6-1.3,1.3-1.3h7.9c0.7,0,1.3,0.6,1.3,1.3S79.7,50,78.9,50z"></path> <path class="st0" d="M27.8,69.7h-7.9c-0.7,0-1.3-0.6-1.3-1.3s0.6-1.3,1.3-1.3h7.9c0.7,0,1.3,0.6,1.3,1.3S28.5,69.7,27.8,69.7z"></path> <path class="st0" d="M44.8,69.7h-7.9c-0.7,0-1.3-0.6-1.3-1.3s0.6-1.3,1.3-1.3h7.9c0.7,0,1.3,0.6,1.3,1.3S45.5,69.7,44.8,69.7z"></path> </g> </g> <path class="st0" d="M84.7,71.1c0-0.4-0.3-0.7-0.7-0.7l-1.5-0.2c-0.3,0-0.6-0.2-0.7-0.5l-0.6-1.5c-0.1-0.3-0.1-0.6,0.1-0.8l0.9-1.2 c0.2-0.3,0.2-0.7,0-1c-0.3-0.4-0.7-0.9-1.1-1.2c-0.4-0.3-0.7-0.7-1.1-1c-0.3-0.2-0.7-0.2-1,0l-1.2,0.9c-0.2,0.2-0.6,0.2-0.8,0.1 l-1.5-0.6c-0.3-0.1-0.5-0.4-0.5-0.7l-0.2-1.5c0-0.4-0.4-0.7-0.7-0.7c-0.5-0.1-1-0.1-1.5-0.1c-0.6,0-1.1,0-1.7,0.1 c-0.4,0-0.7,0.3-0.7,0.7l-0.2,1.5c0,0.3-0.2,0.6-0.5,0.7l-1.5,0.6C67.6,64,67.3,64,67,63.8l-1.2-0.9c-0.3-0.2-0.7-0.2-1,0 c-0.4,0.3-0.9,0.7-1.2,1.1c-0.3,0.4-0.7,0.7-1,1.1c-0.2,0.3-0.2,0.7,0,1l0.9,1.2c0.2,0.2,0.2,0.6,0.1,0.8L63,69.7 c-0.1,0.3-0.4,0.5-0.7,0.5l-1.5,0.2c-0.4,0-0.7,0.4-0.7,0.7c-0.1,0.5-0.1,1-0.1,1.5c0,0.6,0,1.1,0.1,1.7c0,0.4,0.3,0.7,0.7,0.7 l1.5,0.2c0.3,0,0.6,0.2,0.7,0.5l0.6,1.5c0.1,0.3,0.1,0.6-0.1,0.8l-0.9,1.2c-0.2,0.3-0.2,0.7,0,1c0.3,0.4,0.7,0.9,1.1,1.2 c0.4,0.3,0.7,0.7,1.1,1c0.3,0.2,0.7,0.2,1,0l1.2-0.9c0.2-0.2,0.6-0.2,0.8-0.1l1.5,0.6c0.3,0.1,0.5,0.4,0.5,0.7l0.2,1.5 c0,0.4,0.4,0.7,0.7,0.7c0.5,0.1,1,0.1,1.5,0.1c0.6,0,1.1,0,1.7-0.1c0.4,0,0.7-0.3,0.7-0.7l0.2-1.5c0-0.3,0.2-0.6,0.5-0.7l1.5-0.6 c0.3-0.1,0.6-0.1,0.8,0.1l1.2,0.9c0.3,0.2,0.7,0.2,1,0c0.4-0.3,0.9-0.7,1.2-1.1c0.3-0.4,0.7-0.7,1-1.1c0.2-0.3,0.2-0.7,0-1l-0.9-1.2 c-0.2-0.2-0.2-0.6-0.1-0.8l0.6-1.5c0.1-0.3,0.4-0.5,0.7-0.5l1.5-0.2c0.4,0,0.7-0.4,0.7-0.7c0.1-0.5,0.1-1,0.1-1.5 C84.8,72.2,84.7,71.7,84.7,71.1z M70.2,67.5c1.3-0.5,2.8-0.5,4-0.1l-7.5,5.1C66.8,70.4,68.1,68.4,70.2,67.5z M67.2,74.8 C67.2,74.8,67.2,74.8,67.2,74.8l6.7-4.9l-1.4,8.4C70.2,78.3,68.1,77,67.2,74.8z M75.1,77.6l1.4-8.7c0.4,0.5,0.8,1,1,1.6 C78.7,73.2,77.6,76.2,75.1,77.6z"></path> </svg> 