<?xml version="1.0" encoding="UTF-8"?> <svg xmlns="http://www.w3.org/2000/svg" xmlns:xlink="http://www.w3.org/1999/xlink" version="1.1" id="Layer_1" x="0px" y="0px" viewBox="0 0 100 97" style="enable-background:new 0 0 100 97;" xml:space="preserve"> <style type="text/css"> .st0{fill:#446FB5;} </style> <g> <path class="st0" d="M91.9,25.1c-1-1.2-2.4-1.9-3.9-1.9h-9.6c-0.8,0-1.4,0.6-1.4,1.4c0,0.8,0.6,1.4,1.4,1.4h9.6 c0.7,0,1.4,0.3,1.8,0.9c0.4,0.5,0.6,1.3,0.4,1.9L83,59.4H30.4h-1.2L22,28.7c-0.2-0.7,0-1.4,0.4-1.9c0.4-0.5,1.1-0.9,1.8-0.9h9.2 c0.8,0,1.4-0.6,1.4-1.4c0-0.8-0.6-1.4-1.4-1.4h-9.2c-1.2,0-2.4,0.4-3.3,1.2l-2.1-8.8c0,0,0,0,0,0c-0.6-2.3-2.6-3.8-4.9-3.8H8.4 c-0.8,0-1.4,0.6-1.4,1.4c0,0.8,0.6,1.4,1.4,1.4H14c1.1,0,2,0.7,2.2,1.7l3.2,13.1c0,0,0,0,0,0l7.2,31.1c-1.9,1.2-3.1,3.3-3.1,5.7 c0,3.8,3.1,6.9,6.9,6.9h53c0.8,0,1.4-0.6,1.4-1.4c0-0.8-0.6-1.4-1.4-1.4h-53c-2.3,0-4.1-1.8-4.1-4.1s1.8-4.1,4.1-4.1h53h0.7 c0.6,0,1.2-0.4,1.3-1.1l7.4-31.7C93.2,27.9,92.8,26.3,91.9,25.1z"></path> <path class="st0" d="M34,77.6c-3.8,0-6.9,3.1-6.9,6.9c0,3.8,3.1,6.9,6.9,6.9c3.8,0,6.9-3.1,6.9-6.9C40.9,80.7,37.8,77.6,34,77.6z M34,88.6c-2.3,0-4.1-1.8-4.1-4.1s1.8-4.1,4.1-4.1c2.3,0,4.1,1.8,4.1,4.1S36.3,88.6,34,88.6z"></path> <path class="st0" d="M74.2,77.6c-3.8,0-6.9,3.1-6.9,6.9c0,3.8,3.1,6.9,6.9,6.9c3.8,0,6.9-3.1,6.9-6.9C81.1,80.7,78,77.6,74.2,77.6z M74.2,88.6c-2.3,0-4.1-1.8-4.1-4.1s1.8-4.1,4.1-4.1s4.1,1.8,4.1,4.1S76.5,88.6,74.2,88.6z"></path> <path class="st0" d="M56.1,40.7c9.7,0,17.6-7.9,17.6-17.6c0-9.7-7.9-17.6-17.6-17.6c-9.7,0-17.6,7.9-17.6,17.6 C38.5,32.9,46.4,40.7,56.1,40.7z M56.1,8c8.4,0,15.2,6.8,15.2,15.2s-6.8,15.2-15.2,15.2c-8.4,0-15.2-6.8-15.2-15.2S47.7,8,56.1,8z"></path> <path class="st0" d="M53.3,28.8c0.3,0.3,0.6,0.4,1,0.4c0.4,0,0.7-0.1,1-0.4l9.1-9.1c0.5-0.5,0.5-1.4,0-1.9c-0.5-0.5-1.4-0.5-1.9,0 l-8.2,8.2l-4.5-4.5c-0.5-0.5-1.4-0.5-1.9,0c-0.5,0.5-0.5,1.4,0,1.9L53.3,28.8z"></path> </g> </svg> 