<svg width="200" height="23" viewBox="0 0 200 23" fill="none" xmlns="http://www.w3.org/2000/svg">
<path d="M48.2108 7.977L58.8208 22.9754H67.1013L52.6033 2.53459C51.66 1.21808 50.2738 0 48.0919 0C46.0002 0 44.614 1.11555 43.6338 2.53459L29.4926 22.9754H37.8879L39.9139 20.0266H53.5343L49.3141 14.2151H43.884L48.178 7.95649L48.2108 7.977Z" fill="white"/>
<path d="M94.8712 17.1638L90.3598 22.9753H79.0239C71.1822 22.9753 65.4076 18.0087 65.4076 11.4548C65.4076 4.83123 71.1822 0.381332 79.0239 0.381332H94.8712L90.3598 6.25847H79.0239C75.2384 6.25847 72.4003 8.52238 72.4003 11.7665C72.4003 15.0106 75.2056 17.172 79.0239 17.172L94.8712 17.1638Z" fill="white"/>
<path d="M125.377 0.373215L120.865 6.25036H112.786V22.9754H105.781V6.25036H95.1706L99.682 0.373215H125.377Z" fill="white"/>
<path d="M164.294 0.373215L159.783 6.25036H145.982V9.19098H163.01L158.753 14.699H145.982V22.9754H138.956V0.373215H164.294Z" fill="white"/>
<path d="M199.028 0.373215L185.613 15.507V22.9754H178.583V15.4741L164.799 0.373215H173.784L179.194 6.65638C179.904 7.47664 181.794 9.52728 182.266 10.204C182.705 9.56419 183.496 8.56348 185.104 6.62357L190.243 0.373215H199.028Z" fill="white"/>
<path d="M134.596 7.77592H127.604V22.9753H134.596V7.77592Z" fill="white"/>
<path d="M134.596 0.373215H127.604V6.25446H134.596V0.373215Z" fill="white"/>
<path d="M19.1241 3.49026L15.7446 22.0896C17.4676 21.3541 18.9812 20.2026 20.1497 18.7383C21.3182 17.274 22.1052 15.5427 22.4401 13.6995C22.7751 11.8563 22.6474 9.95874 22.0687 8.17697C21.4899 6.39521 20.4782 4.78487 19.1241 3.49026Z" fill="white"/>
<path d="M16.1098 1.42309C14.4274 0.635633 12.5771 0.27416 10.7221 0.370539C8.86698 0.466917 7.0641 1.01819 5.47234 1.97575C3.88059 2.93332 2.54885 4.26776 1.59453 5.86146C0.640205 7.45516 0.0926042 9.25916 0 11.1144L16.1098 1.42309Z" fill="white"/>
<path d="M12.3701 20.1947L13.1616 16.2615L15.2369 5.93451L6.84563 11.2047L6.31657 11.5369L2.82227 13.7598L0.533752 15.187C1.27506 17.4582 2.71549 19.4369 4.6491 20.8402C6.58271 22.2434 8.91049 22.9994 11.2996 23C11.4719 23 11.64 23 11.8082 23L12.3701 20.1947Z" fill="white"/>
</svg>
