<?xml version="1.0" encoding="UTF-8"?> <svg xmlns="http://www.w3.org/2000/svg" width="200" height="24" viewBox="0 0 200 24" fill="none"><path d="M48.4467 8.12225L59.1086 23.3938H67.4295L52.8606 2.58075C51.9127 1.24026 50.5197 0 48.3272 0C46.2253 0 44.8323 1.13586 43.8473 2.58075L29.6369 23.3938H38.0733L40.1092 20.3912H53.7962L49.5553 14.4739H44.0987L48.4137 8.10137L48.4467 8.12225Z" fill="white"></path><path d="M95.3345 17.4759L90.801 23.3932H79.4097C71.5297 23.3932 65.7269 18.3361 65.7269 11.6629C65.7269 4.91874 71.5297 0.387814 79.4097 0.387814H95.3345L90.801 6.37197H79.4097C75.6057 6.37197 72.7538 8.6771 72.7538 11.9803C72.7538 15.2835 75.5727 17.4842 79.4097 17.4842L95.3345 17.4759Z" fill="white"></path><path d="M125.989 0.379633L121.456 6.36379H113.337V23.3934H106.298V6.36379H95.6358L100.169 0.379633H125.989Z" fill="white"></path><path d="M165.097 0.379633L160.564 6.36379H146.695V9.35795H163.807L159.529 14.9663H146.695V23.3934H139.635V0.379633H165.097Z" fill="white"></path><path d="M200 0.379633L186.519 15.7889V23.3934H179.455V15.7555L165.603 0.379633H174.633L180.069 6.77721C180.782 7.6124 182.682 9.70039 183.156 10.3894C183.597 9.73797 184.392 8.71904 186.008 6.7438L191.172 0.379633H200Z" fill="white"></path><path d="M135.254 7.91631H128.228V23.3924H135.254V7.91631Z" fill="white"></path><path d="M135.254 0.379633H128.228V6.36797H135.254V0.379633Z" fill="white"></path><path d="M19.2179 3.55372L15.8219 22.4917C17.5533 21.7428 19.0743 20.5704 20.2485 19.0794C21.4228 17.5885 22.2136 15.8256 22.5502 13.9488C22.8867 12.072 22.7584 10.14 22.1769 8.32577C21.5953 6.51156 20.5786 4.8719 19.2179 3.55372Z" fill="white"></path><path d="M16.1886 1.44797C14.4979 0.646168 12.6386 0.278113 10.7745 0.376246C8.91031 0.47438 7.09862 1.03569 5.49909 2.01069C3.89955 2.98569 2.56131 4.34443 1.60232 5.96715C0.643333 7.58987 0.0930567 9.42671 0 11.3158L16.1886 1.44797Z" fill="white"></path><path d="M15.3103 6.04269L6.3464 11.7471L2.83502 14.0104L0.535321 15.4637C1.28025 17.7762 2.72772 19.7909 4.67078 21.2197C6.61384 22.6485 8.953 23.4183 11.3538 23.4189C11.5269 23.4189 11.6959 23.4189 11.8649 23.4189L15.3103 6.04269Z" fill="white"></path></svg> 