<?xml version="1.0" encoding="UTF-8"?> <svg xmlns="http://www.w3.org/2000/svg" width="101" height="23" viewBox="0 0 101 23" fill="none"><path fill-rule="evenodd" clip-rule="evenodd" d="M54.2623 0.014191C54.1727 0.030029 53.806 0.0892749 53.4476 0.145848C53.0891 0.202357 52.4034 0.377422 51.9239 0.53489C48.1156 1.78518 45.6345 5.06325 45.071 9.5892C44.9627 10.4582 44.9801 12.3287 45.1042 13.1739C45.3835 15.0756 46.0136 16.7573 46.9848 18.1926C47.211 18.527 47.7048 19.1033 48.1334 19.5331C49.5435 20.9475 51.0547 21.7512 53.1762 22.2153C53.7538 22.3417 54.0306 22.3602 55.3377 22.3604C56.6851 22.3604 56.8884 22.3459 57.3471 22.2168C58.7485 21.8225 59.748 21.236 60.7522 20.2185L61.4089 19.5533L61.6257 20.6652C61.745 21.2769 61.856 21.814 61.8723 21.8588C61.8948 21.9207 62.2629 21.9402 63.4103 21.9402H64.9187L64.9017 16.1395L64.8848 10.3387H60.3882H55.8917V12.0985V13.8583H58.2471H60.6024L60.5584 14.2331C60.4857 14.8514 60.3322 15.3563 60.0199 16.0033C59.4425 17.2003 58.3741 18.0076 56.9895 18.2933C56.2159 18.4529 54.9226 18.464 54.2111 18.317C51.9125 17.8422 50.3622 15.988 49.8566 13.1088C49.6986 12.2092 49.7002 10.2953 49.8596 9.39367C50.3693 6.51181 51.767 4.72375 53.969 4.13644C54.3788 4.02714 54.6928 3.99592 55.4355 3.99064C56.5484 3.98282 56.86 4.04591 57.7041 4.44981C58.7279 4.93968 59.4707 5.80353 59.8768 6.97646L60.0593 7.50354L62.3097 7.52068C64.3398 7.53613 64.5602 7.52759 64.5602 7.43315C64.5602 7.3756 64.5011 7.03837 64.4288 6.68381C63.7513 3.35888 61.2262 0.949936 57.5967 0.165727C57.1117 0.0609229 56.6753 0.0246194 55.6962 0.007543C54.9972 -0.00471027 54.3519 -0.00171213 54.2623 0.014191ZM4.89427 11.1364C2.67486 16.9889 0.846259 21.8143 0.830812 21.8595C0.808391 21.925 1.29318 21.9383 3.20514 21.9247L5.60769 21.9076L6.43192 19.5613L7.25608 17.2149L11.2635 17.1981L15.2709 17.1813L15.703 18.4365C15.9406 19.1268 16.3034 20.1902 16.5091 20.7996L16.8833 21.9076H23.7854H30.6875L31.5146 19.5613L32.3417 17.2149L36.3528 17.1981L40.3639 17.1813L40.861 18.632C41.1344 19.4299 41.4972 20.4933 41.6673 20.9952L41.9764 21.9076L44.4369 21.9247C45.7901 21.9341 46.8966 21.9341 46.8959 21.9247C46.8951 21.9153 45.0948 17.0976 42.8952 11.2186L38.8958 0.52961L36.4578 0.512534L34.0197 0.495458L30.1443 10.7078L26.2688 20.9202L26.2523 10.7086L26.2358 0.497022H23.8572H21.4787L21.4622 10.7194L21.4457 20.9417L17.6298 10.7357L13.814 0.52961L11.3717 0.512534L8.9295 0.495458L4.89427 11.1364ZM67.037 3.49503C66.553 3.52443 65.9078 3.57038 65.6031 3.59723C64.7981 3.66808 65.2028 3.7311 66.7765 3.77985C68.8086 3.84288 71.1331 4.05223 73.0984 4.34937C78.852 5.21922 82.431 7.06223 83.2045 9.55349C83.3893 10.1488 83.4262 10.7939 83.3092 11.3859C82.9455 13.2256 81.7239 14.7912 79.5509 16.202C77.5296 17.5145 73.3166 19.2029 67.3465 21.0932C66.065 21.499 65.0165 21.8556 65.0165 21.8856C65.0165 21.9157 72.9802 21.9402 82.7136 21.9402H100.411L100.47 21.7857C100.502 21.7008 100.596 21.3268 100.68 20.9547C100.812 20.3657 100.831 20.1055 100.83 18.9421C100.829 17.701 100.816 17.5548 100.648 16.8861C100.155 14.9185 99.1796 13.2778 97.5099 11.6059C96.0059 10.0999 94.3293 8.93098 92.0006 7.76464C87.5353 5.52829 82.1175 4.16655 75.3796 3.587C73.9968 3.46805 68.483 3.4073 67.037 3.49503ZM12.689 9.70998C13.4007 11.7838 13.9829 13.507 13.9829 13.5391C13.9829 13.5727 12.8216 13.5976 11.2551 13.5976H8.5273L9.88637 9.76844C11.4739 5.29522 11.316 5.716 11.3605 5.84153C11.3796 5.8953 11.9774 7.63611 12.689 9.70998ZM37.8362 9.86758C38.5286 11.8847 39.0807 13.5495 39.0631 13.5671C39.0456 13.5847 37.8138 13.5914 36.3258 13.582L33.6205 13.565L34.9645 9.78474C35.7037 7.70559 36.3331 5.94581 36.3632 5.87412C36.4119 5.75784 36.4264 5.7684 36.4976 5.97189C36.5415 6.09735 37.1439 7.85041 37.8362 9.86758Z" fill="white"></path></svg> 