<?xml version="1.0" encoding="UTF-8"?> <svg xmlns="http://www.w3.org/2000/svg" width="22" height="16" viewBox="0 0 22 16" fill="none"><path fill-rule="evenodd" clip-rule="evenodd" d="M20.9186 1.30037C21.6402 1.93181 21.8206 3.46532 21.8206 3.46532C21.8206 3.46532 22.001 5.17924 22.001 6.89315V8.51686C22.001 10.321 21.8206 12.0349 21.8206 12.0349C21.8206 12.0349 21.55 13.5684 20.9186 14.1999C20.2356 14.8828 19.4888 14.9912 19.0004 15.0622C18.9082 15.0755 18.8252 15.0876 18.7536 15.1019C15.6866 15.3725 11.1763 15.3725 11.1763 15.3725C11.1763 15.3725 5.49332 15.3725 3.7794 15.1921C3.69288 15.1748 3.58312 15.1642 3.45649 15.1518C2.92302 15.1 2.09015 15.0191 1.43404 14.2901C0.712387 13.6586 0.531975 12.1251 0.531975 12.1251C0.531975 12.1251 0.351562 10.321 0.351562 8.60707V6.98336C0.351562 5.17924 0.531975 3.46532 0.531975 3.46532C0.531975 3.46532 0.802593 1.93181 1.43404 1.30037C2.117 0.617409 2.86379 0.508978 3.35222 0.438062C3.4444 0.424677 3.52738 0.41263 3.59899 0.398308C6.666 0.217896 11.1763 0.217896 11.1763 0.217896C11.1763 0.217896 15.6866 0.217896 18.7536 0.398308C19.2047 0.398308 20.1067 0.398308 20.9186 1.30037ZM8.92188 4.54785V10.5917L14.7853 7.61486L8.92188 4.54785Z" fill="white"></path></svg> 