<?xml version="1.0" encoding="UTF-8"?> <svg xmlns="http://www.w3.org/2000/svg" width="20" height="16" viewBox="0 0 20 16" fill="none"><path d="M19.8698 1.91527C19.1571 2.21224 18.4444 2.44981 17.6129 2.5092C18.4444 2.03406 19.0383 1.26195 19.3352 0.371061C18.5631 0.846203 17.7316 1.14317 16.8407 1.32135C16.128 0.549239 15.1184 0.0740967 14.0493 0.0740967C11.9111 0.0740967 10.1294 1.79649 10.1294 3.99402C10.1294 4.29099 10.1888 4.58795 10.2481 4.88492C6.98154 4.70674 4.13069 3.16252 2.17072 0.786811C1.81437 1.38074 1.63619 2.03406 1.63619 2.74677C1.63619 4.11281 2.3489 5.30066 3.35858 6.01338C2.70526 6.01338 2.11133 5.8352 1.57679 5.53824V5.59763C1.57679 7.4982 2.94283 9.04241 4.72461 9.39877C4.36826 9.45816 4.07129 9.51756 3.71494 9.51756C3.47736 9.51756 3.23979 9.51756 3.00222 9.45816C3.47736 11.0024 4.96218 12.1308 6.62518 12.1902C5.31854 13.2593 3.59615 13.8532 1.75497 13.8532C1.45801 13.8532 1.10165 13.8532 0.804688 13.7938C2.58647 14.8629 4.66522 15.5162 6.86275 15.5162C14.0493 15.5162 17.9692 9.57695 17.9692 4.40977C17.9692 4.23159 17.9692 4.05342 17.9692 3.93463C18.6819 3.3407 19.3352 2.68738 19.8698 1.91527Z" fill="white"></path></svg> 