<?xml version="1.0" encoding="UTF-8"?> <svg xmlns="http://www.w3.org/2000/svg" width="17" height="17" viewBox="0 0 17 17" fill="none"><path fill-rule="evenodd" clip-rule="evenodd" d="M1.35233 0.676636H16.2363C16.6423 0.676636 16.9129 0.947254 16.9129 1.35318V16.2372C16.9129 16.6431 16.6423 16.9137 16.2363 16.9137H1.35233C0.9464 16.9137 0.675781 16.6431 0.675781 16.2372V1.35318C0.675781 0.947254 0.9464 0.676636 1.35233 0.676636ZM3.11157 14.5459H5.47948H5.54714V6.76565H3.11157V14.5459ZM4.26059 5.68317C3.51639 5.68317 2.83984 5.07428 2.83984 4.26242C2.83984 3.51822 3.44874 2.84167 4.26059 2.84167C5.00479 2.84167 5.68134 3.45057 5.68134 4.26242C5.68134 5.07428 5.07245 5.68317 4.26059 5.68317ZM12.1075 14.546H14.5431V10.3514C14.5431 8.25408 14.0695 6.63037 11.6339 6.63037C10.4162 6.63037 9.67196 7.23926 9.33368 7.84816V6.76568H7.03342V14.546H9.46899V10.6897C9.46899 9.67483 9.6043 8.72767 10.8897 8.72767C12.1075 8.72767 12.1075 9.8778 12.1075 10.7573V14.546Z" fill="white"></path></svg> 