<?xml version="1.0" encoding="UTF-8"?> <svg xmlns="http://www.w3.org/2000/svg" width="63" height="45" viewBox="0 0 63 45" fill="none"><path fill-rule="evenodd" clip-rule="evenodd" d="M29.8881 0.0242224C25.0715 0.311446 20.5485 2.10913 16.86 5.2024C15.0527 6.71802 13.473 8.53654 12.2078 10.5582C12.0138 10.8681 11.5747 11.6286 11.5747 11.6545C11.5747 11.6661 12.6242 11.6756 13.9068 11.6755L16.239 11.6754L16.4107 11.443C17.3861 10.1235 18.6799 8.82919 20.0698 7.78276C22.903 5.64956 26.2242 4.41818 29.8044 4.17353C30.3256 4.13793 31.6176 4.13793 32.1389 4.17353C35.6275 4.41193 38.788 5.55297 41.6346 7.60186C43.0515 8.62168 44.4921 10.0371 45.5061 11.4057L45.7043 11.6732L48.2464 11.6745L50.7886 11.6757L50.5875 11.3231C48.3868 7.46342 45.1005 4.33945 41.1497 2.3515C38.4129 0.974363 35.5269 0.207306 32.3854 0.022147C31.8687 -0.00831818 30.4134 -0.00709423 29.8881 0.0242224ZM10.7991 13.0925C10.7204 13.2279 8.5243 17.0563 5.91888 21.6001C3.31349 26.144 0.915882 30.3252 0.590892 30.8918C0.265901 31.4583 0 31.9343 0 31.9494C0 31.9683 2.77442 31.9769 8.85164 31.9769H17.7033L18.4615 30.906C18.8785 30.317 19.2271 29.8265 19.236 29.816C19.245 29.8056 19.9419 30.2874 20.7847 30.8867L22.317 31.9764L26.5105 31.9767L30.7039 31.9769L33.5118 30.7003C35.0561 29.9982 36.322 29.4265 36.325 29.4298C36.328 29.4332 36.1371 29.9807 35.9008 30.6466C35.6645 31.3124 35.4629 31.8841 35.4527 31.9171L35.4341 31.9769H43.6646H51.8952L57.3537 22.4582C60.356 17.2229 62.8202 12.9185 62.8298 12.893C62.8465 12.8487 62.2887 12.8464 51.3443 12.8464H39.8413L36.9265 14.2312C34.5202 15.3743 34.0027 15.6111 33.9606 15.5884C33.9326 15.5734 32.9368 14.9502 31.7478 14.2037L29.586 12.8464H20.2641H10.9422L10.7991 13.0925ZM21.4574 17.104C21.5659 17.1208 21.7904 17.169 21.9563 17.2112C23.1059 17.5035 23.5612 18.2425 23.2207 19.263C23.0596 19.7457 22.6478 20.6313 21.6265 22.691C20.2513 25.4646 20.0562 25.805 19.543 26.3263C18.7168 27.1655 17.6082 27.7102 16.2786 27.9302C14.8873 28.1606 13.4653 28.0108 12.7825 27.562C12.4712 27.3574 12.2944 27.121 12.1949 26.7761C12.1281 26.545 12.1522 26.1274 12.2486 25.844C12.3974 25.4064 12.7998 24.5417 13.6789 22.7709C15.3297 19.4456 15.5428 19.0944 16.2918 18.4647C17.1922 17.7076 18.3326 17.2467 19.6917 17.0903C20.0704 17.0468 21.1414 17.0551 21.4574 17.104ZM37.3007 17.0773C38.0285 17.1234 38.4888 17.2261 38.9155 17.4377C39.2073 17.5824 39.4488 17.7932 39.5446 17.9869C39.721 18.3432 39.5739 18.9245 39.0342 20.0037L38.8014 20.4693L37.2649 20.4762C36.4198 20.48 35.7283 20.4764 35.7283 20.4683C35.7283 20.4602 35.8525 20.2056 36.0043 19.9027C36.3694 19.1738 36.4169 19.0238 36.3128 18.929C36.1431 18.7743 35.7226 18.8458 35.4729 19.0718C35.1576 19.3573 34.8034 20.0421 34.8034 20.3666C34.8034 20.5924 34.9824 20.8 35.4527 21.1196C36.5678 21.8773 37.1204 22.4156 37.2657 22.8857C37.4049 23.3359 37.2292 24.0368 36.7227 25.0527C36.2474 26.0059 35.7375 26.6676 35.196 27.0342C34.525 27.4883 33.4658 27.8538 32.4251 27.9902C32.0911 28.034 30.9988 28.0343 30.6941 27.9906C29.768 27.858 29.1285 27.515 28.8993 27.0281C28.8259 26.8722 28.8179 26.83 28.8183 26.6023C28.8192 26.1547 28.9407 25.7981 29.4461 24.7597L29.7925 24.048H31.3334C32.1809 24.048 32.8743 24.0524 32.8743 24.0578C32.8743 24.0632 32.7181 24.3716 32.5271 24.743C32.0125 25.7439 31.9223 25.9684 31.9768 26.1126C32.0306 26.255 32.3538 26.3008 32.626 26.2044C32.9305 26.0967 33.1856 25.8248 33.4261 25.3517C33.6879 24.8368 33.7985 24.4558 33.7447 24.2544C33.7036 24.101 33.373 23.7789 32.8092 23.3429C31.8715 22.6179 31.5473 22.3175 31.4307 22.0658C31.2889 21.7595 31.2791 21.2995 31.4054 20.8724C31.6011 20.2104 32.1758 19.1873 32.6745 18.613C33.4556 17.7134 34.8528 17.1504 36.5079 17.0683C36.5951 17.0639 36.714 17.0582 36.7722 17.0555C36.8303 17.0527 37.0682 17.0626 37.3007 17.0773ZM31.0108 18.1292C30.7287 18.7079 30.4648 19.2437 30.4243 19.3199L30.3506 19.4583L29.1548 19.4652L27.9589 19.4721L27.5229 20.3497C27.2831 20.8324 27.0869 21.2334 27.0869 21.2408C27.0869 21.2482 27.5864 21.2542 28.1968 21.2542C28.9226 21.2542 29.3068 21.2635 29.3068 21.281C29.3068 21.2957 29.057 21.8105 28.7518 22.4251L28.1967 23.5425H27.0669H25.9371L25.4168 24.5905C25.1307 25.1669 24.9038 25.6459 24.9127 25.6548C24.9216 25.6637 25.5036 25.671 26.2061 25.671C26.9086 25.671 27.4833 25.6771 27.4833 25.6844C27.4833 25.6918 27.2217 26.2246 26.9019 26.8685L26.3205 28.0391H23.3756H20.4307L23.0347 22.7775C24.4668 19.8836 25.6877 17.4172 25.7477 17.2964L25.8567 17.0769H28.6902H31.5237L31.0108 18.1292ZM48.5077 17.1501C48.4997 17.1757 47.7902 19.6272 46.9311 22.5979C46.072 25.5686 45.3606 28.0082 45.3502 28.0193C45.3398 28.0304 44.5572 28.0364 43.611 28.0326L41.8907 28.0258L42.2582 27.0546C42.4603 26.5205 42.6256 26.0685 42.6256 26.0502C42.6256 26.0243 42.4497 26.0169 41.8343 26.0169C41.0575 26.0169 41.0423 26.018 41.0037 26.0735C40.9821 26.1045 40.7168 26.5594 40.4142 27.0842L39.8641 28.0385L38.1244 28.0388L36.3847 28.0391L36.4447 27.9393C36.4777 27.8844 36.5721 27.7377 36.6543 27.6134C36.7366 27.489 37.7352 25.9564 38.8735 24.2076C40.0118 22.4589 41.4189 20.2977 42.0003 19.405C42.5818 18.5124 43.1566 17.6294 43.2777 17.4428L43.4979 17.1035H46.01C48.3905 17.1035 48.5215 17.106 48.5077 17.1501ZM19.3259 18.6695C19.0412 18.7686 18.8815 18.9265 18.6266 19.3612C18.484 19.6042 15.9122 24.7699 15.6573 25.3251C15.4729 25.7269 15.3801 25.9936 15.3802 26.1214C15.3804 26.3629 15.5764 26.4847 15.9317 26.464C16.3059 26.4422 16.5144 26.2923 16.7947 25.844C16.9952 25.5231 19.9205 19.628 20.0267 19.3305C20.1639 18.9464 20.1295 18.7497 19.9086 18.6568C19.7872 18.6057 19.4907 18.6122 19.3259 18.6695ZM44.7305 19.6246C44.6386 19.7672 44.409 20.1234 44.2201 20.4161C43.4003 21.6867 42.5962 22.9706 42.1038 23.7952L41.8019 24.3008L42.5768 24.3078C43.003 24.3117 43.3645 24.31 43.38 24.304C43.3956 24.2979 43.4237 24.2409 43.4425 24.1771C43.5199 23.9144 44.1954 22.0302 44.6625 20.7743C44.9375 20.0347 45.1625 19.4151 45.1625 19.3974C45.1625 19.3764 45.1161 19.3651 45.03 19.3651H44.8974L44.7305 19.6246ZM11.4879 33.2075C13.0045 36.0266 15.1242 38.5142 17.6528 40.4423C20.8078 42.8481 24.4465 44.3464 28.3337 44.8402C29.4136 44.9774 29.8148 45 31.1698 45C32.5248 45 32.926 44.9774 34.0059 44.8402C36.5411 44.5181 38.9377 43.7804 41.225 42.6177C45.3617 40.5151 48.6817 37.2558 50.9053 33.1144L51.0017 32.9348H48.4953H45.9888L45.9231 33.0346C45.887 33.0894 45.732 33.3035 45.5786 33.5102C43.9138 35.754 41.6789 37.6419 39.1902 38.9066C36.9867 40.0264 34.6543 40.6644 32.1252 40.8393C31.5338 40.8802 29.8315 40.8564 29.2803 40.7996C26.1565 40.4776 23.3856 39.4883 20.8636 37.7947C19.0622 36.585 17.4 34.973 16.1739 33.247L15.9521 32.9348H13.6466H11.3412L11.4879 33.2075ZM53.8304 34.401C53.6037 34.4355 53.2589 34.5565 53.0703 34.6678C52.9869 34.717 52.8052 34.871 52.6665 35.0101C52.4614 35.2158 52.3916 35.3076 52.2922 35.5024C52.1178 35.844 52.051 36.1201 52.051 36.5001C52.051 36.877 52.1179 37.1569 52.2862 37.4851C52.9687 38.8161 54.7494 39.0168 55.69 37.8687C56.5589 36.8081 56.2193 35.184 55.0063 34.5986C54.6232 34.4137 54.2068 34.3437 53.8304 34.401ZM54.5403 34.7209C54.6077 34.737 54.7629 34.798 54.8854 34.8565C55.4633 35.1327 55.8387 35.78 55.8387 36.5001C55.8387 37.3781 55.3221 38.079 54.5234 38.2847C53.8643 38.4544 53.1249 38.1843 52.7323 37.6305C52.0375 36.6501 52.4081 35.2199 53.4672 34.7938C53.7742 34.6703 54.2057 34.641 54.5403 34.7209ZM53.3547 36.5148V37.7002L53.4934 37.6922L53.6322 37.6842L53.6393 37.1454L53.6465 36.6066L53.9036 36.6077L54.1607 36.6088L54.4818 37.1465L54.8029 37.6842L54.9641 37.6921C55.0831 37.6979 55.1249 37.691 55.1239 37.6655C55.1232 37.6465 54.9762 37.4035 54.7973 37.1254C54.5867 36.7979 54.4824 36.613 54.5014 36.6003C54.5175 36.5896 54.5663 36.5803 54.6099 36.5798C54.779 36.5777 55.0311 36.4158 55.1139 36.2563C55.1712 36.1458 55.1888 35.9111 55.1515 35.7545C55.1278 35.6551 55.0894 35.586 55.0175 35.5136C54.8544 35.3494 54.7438 35.3294 53.9973 35.3294H53.3547V36.5148ZM54.6548 35.5916C54.7962 35.6605 54.861 35.7704 54.861 35.9414C54.861 36.1011 54.7978 36.2151 54.6684 36.2888C54.5655 36.3476 54.5227 36.3532 54.1012 36.3628L53.6454 36.3731V35.941V35.5089L54.0891 35.5205C54.4801 35.5307 54.5472 35.5392 54.6548 35.5916Z" fill="white"></path></svg> 