<?xml version="1.0" encoding="UTF-8"?> <svg xmlns="http://www.w3.org/2000/svg" width="44" height="44" viewBox="0 0 44 44" fill="none"><path d="M26.5803 15.1739C25.9823 15.1739 25.4975 14.6909 25.4975 14.0951V12.313C25.4975 11.7171 25.9822 11.2341 26.5803 11.2341C27.1783 11.2341 27.663 11.7171 27.663 12.313V14.0951C27.663 14.3813 27.5491 14.6557 27.3458 14.8579C27.1429 15.0604 26.8675 15.1739 26.5803 15.1739L26.5803 15.1739ZM25.4975 31.943V33.7252C25.4975 34.321 25.9822 34.804 26.5803 34.804C27.1783 34.804 27.663 34.321 27.663 33.7252V31.943C27.663 31.3472 27.1783 30.8642 26.5803 30.8642C25.9823 30.8642 25.4975 31.3472 25.4975 31.943ZM37.3258 24.0938C37.9238 24.0938 38.4085 23.6108 38.4085 23.015C38.4085 22.4191 37.9238 21.9361 37.3258 21.9361H35.5371C34.9391 21.9361 34.4543 22.4191 34.4543 23.015C34.4543 23.6108 34.9391 24.0938 35.5371 24.0938H37.3258ZM32.1288 28.5641H32.1284C31.9248 28.7663 31.8105 29.0411 31.8105 29.3279C31.8105 29.6145 31.9248 29.8892 32.1284 30.0914L33.393 31.3514V31.3517C33.8167 31.7735 34.503 31.7735 34.9263 31.3517C35.3496 30.9296 35.3496 30.2458 34.9263 29.8241L33.6617 28.5641C33.2394 28.1541 32.5657 28.1559 32.146 28.5684L32.1288 28.5641ZM20.7468 31.7097C21.1915 32.081 21.4902 32.5964 21.5909 33.1655C21.6913 33.7346 21.5873 34.3209 21.2969 34.8209L20.5346 36.1371C20.2449 36.6375 19.7873 37.0198 19.2421 37.2173C18.697 37.4145 18.0997 37.4141 17.5549 37.2159L16.589 36.8663H16.5894C16.005 37.3109 15.3659 37.6793 14.6878 37.9622L14.5103 38.9677C14.4103 39.5372 14.112 40.0532 13.6676 40.4252C13.2228 40.7971 12.6609 41.0007 12.0807 41H10.5518C9.97162 41.0007 9.40972 40.7971 8.96527 40.4252C8.52052 40.0532 8.22223 39.5371 8.1222 38.9677L7.94466 37.9579C7.26663 37.675 6.62758 37.3066 6.04348 36.8621L5.07758 37.2116C4.53209 37.4137 3.93261 37.4173 3.38463 37.2215C2.837 37.0258 2.37657 36.6432 2.08465 36.1414L1.33125 34.8252C1.04082 34.3251 0.936871 33.7389 1.03726 33.1698C1.138 32.6007 1.43664 32.0853 1.8814 31.714L2.6698 31.058H2.66945C2.57764 30.3302 2.57764 29.5938 2.66945 28.8659L1.88568 28.2056C1.44129 27.8348 1.14229 27.319 1.04154 26.7499C0.941159 26.1807 1.04512 25.5949 1.33554 25.0945L2.08465 23.7786C2.37473 23.2782 2.83234 22.8956 3.3775 22.6985C3.92263 22.5009 4.51991 22.5016 5.06468 22.6999L6.03059 23.0494H6.03023C6.61752 22.5974 7.26089 22.2233 7.94467 21.936L8.12221 20.9306C8.2258 20.3643 8.52588 19.8521 8.96991 19.4837C9.41396 19.1154 9.97405 18.9143 10.5517 18.9153H12.0764C12.6566 18.915 13.2185 19.1186 13.6633 19.4901C14.1077 19.8621 14.406 20.3782 14.506 20.9476L14.6878 21.9361C15.3662 22.219 16.0049 22.5874 16.5894 23.0319L17.5553 22.6824H17.5549C18.0997 22.4842 18.6969 22.4838 19.2421 22.681C19.7872 22.8785 20.2448 23.2608 20.5346 23.7612L21.2969 25.0774C21.5873 25.5774 21.6913 26.1636 21.5909 26.7328C21.4901 27.3019 21.1915 27.8172 20.7467 28.1885L19.9583 28.8445H19.9587C20.0505 29.5724 20.0505 30.3087 19.9587 31.0367L20.7468 31.7097ZM19.3564 33.3623L18.1093 32.3138C17.8046 32.0589 17.6649 31.6578 17.7457 31.2695C17.9218 30.4039 17.9218 29.5116 17.7457 28.646C17.6649 28.2576 17.8046 27.8569 18.1093 27.6017L19.3696 26.5488C19.4814 26.4552 19.5107 26.2958 19.4389 26.169L18.6766 24.8529C18.6037 24.7269 18.4508 24.6706 18.3129 24.719L16.7669 25.28V25.2803C16.3925 25.4166 15.9731 25.3369 15.6755 25.0732C15.0135 24.4923 14.2398 24.0517 13.4017 23.7787C13.0245 23.653 12.7469 23.3317 12.6783 22.9416L12.3925 21.3278V21.3274C12.3668 21.1836 12.2404 21.0793 12.0935 21.0815H10.5518C10.4039 21.0797 10.2767 21.1861 10.2531 21.3317L9.96735 22.9455V22.9458C9.89876 23.3359 9.62083 23.6573 9.24395 23.783C8.4041 24.0556 7.62892 24.4959 6.9659 25.0775C6.66797 25.3412 6.24895 25.4209 5.87453 25.2846L4.33705 24.7237C4.19916 24.6749 4.04626 24.7311 3.97303 24.8571L3.20677 26.1733C3.13318 26.2997 3.16247 26.4605 3.27572 26.5531L4.536 27.6059C4.84072 27.8611 4.9804 28.2619 4.90002 28.6502C4.72426 29.5162 4.72426 30.4081 4.90002 31.2737C4.9804 31.662 4.84072 32.0632 4.536 32.318L3.27572 33.3666C3.16247 33.4591 3.13318 33.62 3.20677 33.7464L3.9691 35.0625H3.96874C4.04197 35.1885 4.19487 35.2448 4.33276 35.1964L5.87883 34.6354C6.25322 34.4991 6.67224 34.5785 6.97021 34.8426C7.63323 35.4238 8.40846 35.8641 9.24826 36.1371C9.62549 36.2627 9.90306 36.5838 9.97165 36.9742L10.2574 38.588C10.2828 38.7318 10.4096 38.8361 10.5561 38.8339H12.0808C12.2286 38.8357 12.3558 38.7293 12.3794 38.5837L12.6652 36.9699H12.6655C12.7338 36.5795 13.0117 36.2581 13.3886 36.1328C14.2284 35.8598 15.0036 35.4195 15.6666 34.8383C15.9645 34.5742 16.3839 34.4945 16.758 34.6312L18.3041 35.1921H18.3044C18.442 35.2426 18.5963 35.1857 18.6681 35.0583L19.4086 33.7464C19.4862 33.6239 19.4644 33.4638 19.3568 33.3666L19.3564 33.3623ZM20.2442 17.7851H20.2445C20.6832 17.7858 21.0787 17.5227 21.2465 17.1191C21.4144 16.7155 21.3216 16.251 21.0111 15.9424L19.7465 14.6868C19.3232 14.265 18.6366 14.265 18.2133 14.6868C17.79 15.1085 17.79 15.7926 18.2133 16.2144L19.4779 17.4744C19.6811 17.6769 19.9569 17.7904 20.2445 17.7894L20.2442 17.7851ZM12.8084 27.684L10.5346 29.9494L9.82444 29.2418H9.82409C9.40077 28.82 8.71451 28.82 8.29118 29.2418C7.86787 29.6636 7.86787 30.3477 8.29118 30.7695L9.76373 32.2366C9.96664 32.4395 10.2424 32.5534 10.5303 32.5534C10.8179 32.5534 11.0937 32.4395 11.297 32.2366L14.3287 29.2159H14.3284C14.7517 28.7942 14.7517 28.1104 14.3284 27.6886C13.9051 27.2665 13.2184 27.2665 12.7951 27.6886L12.8084 27.684ZM26.5809 19.645C27.1025 19.6454 27.6172 19.7664 28.0838 19.9988L32.9389 15.1571C33.3623 14.7354 34.0485 14.7354 34.4718 15.1571C34.8952 15.5793 34.8952 16.263 34.4718 16.6848L29.6128 21.5047C30.05 22.3881 30.0782 23.4178 29.6899 24.3236C29.3016 25.2291 28.5354 25.9206 27.5922 26.2164C26.6495 26.5122 25.6239 26.383 24.7848 25.8623C23.9456 25.3412 23.3769 24.4813 23.2273 23.5078C23.078 22.534 23.363 21.5438 24.0078 20.7975C24.6526 20.0507 25.5925 19.6219 26.581 19.6232L26.5809 19.645ZM25.3553 23.0238C25.3553 23.5178 25.6539 23.9631 26.1119 24.1521C26.5699 24.3411 27.0971 24.2364 27.4475 23.8873C27.798 23.5381 27.903 23.0128 27.7133 22.5565C27.5236 22.1002 27.0767 21.8027 26.5809 21.8027C25.9057 21.8027 25.3577 22.3469 25.3552 23.0196L25.3553 23.0238ZM39.4003 6.96269C38.977 6.54056 38.2904 6.54056 37.8671 6.96269C37.4437 7.38446 37.4437 8.0682 37.8671 8.48998L38.7333 9.3531L36.975 11.1484C34.3822 8.87192 31.1107 7.50726 27.6635 7.26453V4.15764H30.7946C31.3926 4.15764 31.8774 3.67465 31.8774 3.07882C31.8774 2.48299 31.3926 2 30.7946 2H22.3668C21.7688 2 21.284 2.48299 21.284 3.07882C21.284 3.67465 21.7688 4.15764 22.3668 4.15764H25.4979V7.26453C22.8201 7.44676 20.2327 8.3049 17.9796 9.75812C15.7262 11.2113 13.8811 13.2116 12.6176 15.5711C12.3354 16.0968 12.5343 16.7506 13.0616 17.0318C13.5889 17.3129 14.2454 17.1151 14.5277 16.5893C16.1491 13.58 18.8469 11.2878 22.0859 10.1681C25.3249 9.04873 28.8679 9.18358 32.012 10.5461C35.1557 11.9085 37.6702 14.3989 39.0566 17.5232C40.4426 20.6472 40.5991 24.1766 39.4949 27.4103C38.3907 30.6442 36.1062 33.3461 33.0952 34.9793C30.0844 36.6127 26.5671 37.0583 23.2413 36.2275C22.6576 36.0823 22.066 36.4358 21.9203 37.0173C21.7742 37.5989 22.1293 38.188 22.713 38.3335C25.9848 39.16 29.4368 38.9222 32.5632 37.6548C35.69 36.3877 38.3282 34.1574 40.0925 31.2901C41.8569 28.4228 42.6546 25.0686 42.3695 21.7174C42.0844 18.366 40.7309 15.1936 38.5075 12.6631L40.2833 10.8938L41.1496 11.7569H41.1492C41.5726 12.1787 42.2592 12.1787 42.6825 11.7569C43.1058 11.3351 43.1058 10.651 42.6825 10.2292L39.4003 6.96269Z" fill="#186FE0"></path></svg> 