<?xml version="1.0" encoding="UTF-8"?> <svg xmlns="http://www.w3.org/2000/svg" width="75" height="35" viewBox="0 0 75 35" fill="none"><path fill-rule="evenodd" clip-rule="evenodd" d="M11.6975 0.242542C8.83754 0.850666 5.746 2.49439 4.04801 4.30947C2.11138 6.37991 1.41887 8.19834 1.42036 11.2103C1.42259 16.3727 5.01372 19.4219 13.4684 21.4403C17.8219 22.4792 18.9656 23.0349 19.273 24.2594C19.7514 26.1662 16.5361 28.8128 14.3947 28.2754C13.239 27.985 11.9848 26.1436 11.983 24.7337C11.9819 23.8977 11.7845 23.7274 10.5876 23.5297C9.8211 23.4029 7.31203 23.2974 5.01186 23.2951L0.830078 23.291V24.3385C0.830078 26.1971 1.94596 29.2136 3.13396 30.5666C5.42632 33.1775 9.07544 34.1886 15.5109 33.996L19.2262 33.8849L21.904 23.8486C23.3768 18.3287 24.5904 13.78 24.6008 13.741C24.6239 13.6544 20.3863 12.3638 17.5572 11.5954C15.2593 10.9713 13.1784 9.81195 12.8584 8.97708C12.4852 8.00467 13.0465 6.70591 14.0345 6.25576C16.3595 5.19675 18.5292 6.14796 18.9961 8.4314L19.2604 9.72348H24.2633H29.2662L29.1971 8.15745C29.0506 4.82801 26.8088 2.33529 22.6426 0.867394C20.4175 0.0838205 14.1315 -0.275255 11.6975 0.242542ZM49.7205 2.19627C49.6365 2.45201 49.0875 4.50127 48.4998 6.75088L47.4311 10.8408L50.126 22.3071C51.6081 28.6136 52.8834 33.8362 52.9596 33.9128C53.0362 33.989 53.486 32.0427 53.9592 29.5875L54.8193 25.1228L58.196 25.2292L61.573 25.3355L62.1941 28.495C62.5357 30.2328 62.9271 32.2821 63.0635 33.0485L63.3119 34.4425H69.0563C74.2782 34.4425 74.987 34.6283 74.8052 33.792C74.8078 33.434 73.1905 26.0741 71.2115 17.4365L67.6133 1.73163H58.7431C49.5246 1.73163 49.8731 1.73163 49.7205 2.19627ZM34.978 14.0123L34.0327 18.8305H36.0169C37.1086 18.8305 38.0007 18.7888 38 18.7375C37.9933 18.2948 36.1693 9.43986 36.063 9.33355C35.9864 9.25698 35.498 11.3624 34.978 14.0123ZM59.1579 13.3666C60.2549 19.0513 60.3002 18.8305 58.0339 18.8305C56.2549 18.8305 56.1471 18.7777 56.3292 17.9941C56.4359 17.5343 56.9002 15.3598 57.3607 13.1618C57.8213 10.9643 58.2398 9.20791 58.2907 9.25884C58.3417 9.31013 58.732 11.1583 59.1579 13.3666ZM31.734 29.1455C31.2965 31.3431 30.9385 33.3507 30.9385 33.6061C30.9389 33.9551 32.1957 34.0707 35.982 34.0707C40.6083 34.0707 41.0098 34.0168 40.8388 33.4202C40.7362 33.0623 40.3793 31.3479 40.0459 29.6102C39.1044 24.7062 39.527 25.1496 35.7983 25.1496H32.5298L31.734 29.1455Z" fill="white"></path></svg> 