<?xml version="1.0" encoding="UTF-8"?> <svg xmlns="http://www.w3.org/2000/svg" width="44" height="44" viewBox="0 0 44 44" fill="none"><path d="M3.5 24.9322C3.5 14.7572 11.7779 6.5 22 6.5C32.2221 6.5 40.5 14.7572 40.5 24.9322C40.5 29.3142 38.9671 33.3362 36.4041 36.5H7.59594C5.03293 33.3362 3.5 29.3142 3.5 24.9322Z" stroke="#186FE0" stroke-width="3"></path><path d="M31.4533 17.1866C32.1822 16.4576 32.1822 15.2757 31.4533 14.5467C30.7243 13.8178 29.5424 13.8178 28.8134 14.5467L22.7003 20.6598C22.3919 20.5773 22.0678 20.5333 21.7333 20.5333C19.6715 20.5333 18 22.2048 18 24.2667C18 26.3285 19.6715 28 21.7333 28C23.7952 28 25.4667 26.3285 25.4667 24.2667C25.4667 23.9322 25.4227 23.6081 25.3402 23.2997L31.4533 17.1866Z" fill="#186FE0"></path></svg> 