<?xml version="1.0" encoding="UTF-8"?> <svg xmlns="http://www.w3.org/2000/svg" width="44" height="44" viewBox="0 0 44 44" fill="none"><path d="M22 7.33325C15.8889 7.33325 10.5116 10.3246 6.63509 13.4742C4.69686 15.049 3.1275 16.6726 2.00521 18.0754C1.44406 18.7769 0.994186 19.4195 0.655273 20.0126C0.316361 20.6057 0 21.0069 0 21.9999C0 22.993 0.316361 23.3941 0.655273 23.9872C0.994186 24.5803 1.44406 25.223 2.00521 25.9244C3.1275 27.3273 4.69686 28.9508 6.63509 30.5256C10.5116 33.6753 15.8889 36.6666 22 36.6666C28.1111 36.6666 33.4884 33.6753 37.3649 30.5256C39.3031 28.9508 40.8725 27.3273 41.9948 25.9244C42.5559 25.223 43.0058 24.5803 43.3447 23.9872C43.6836 23.3941 44 22.993 44 21.9999C44 21.0069 43.6836 20.6057 43.3447 20.0126C43.0058 19.4195 42.5559 18.7769 41.9948 18.0754C40.8725 16.6726 39.3031 15.049 37.3649 13.4742C33.4884 10.3246 28.1111 7.33325 22 7.33325ZM22 10.9999C26.8889 10.9999 31.5949 13.5086 35.0518 16.3173C36.7802 17.7217 38.19 19.1918 39.1302 20.3671C39.6003 20.9547 39.9525 21.4722 40.1579 21.8316C40.199 21.9036 40.198 21.9362 40.2223 21.9999C40.198 22.0637 40.199 22.0963 40.1579 22.1682C39.9525 22.5276 39.6003 23.0451 39.1302 23.6327C38.19 24.808 36.7802 26.2782 35.0518 27.6825C31.5949 30.4912 26.8889 32.9999 22 32.9999C17.1111 32.9999 12.4051 30.4912 8.94824 27.6825C7.21981 26.2782 5.81 24.808 4.86979 23.6327C4.39969 23.0451 4.04748 22.5276 3.84212 22.1682C3.80102 22.0963 3.80205 22.0637 3.77767 21.9999C3.80205 21.9362 3.80102 21.9036 3.84212 21.8316C4.04748 21.4722 4.39969 20.9547 4.86979 20.3671C5.81 19.1918 7.21981 17.7217 8.94824 16.3173C12.4051 13.5086 17.1111 10.9999 22 10.9999ZM21.889 14.6666C19.9634 14.6957 18.1265 15.4812 16.7752 16.8533C15.4238 18.2254 14.6664 20.0741 14.6667 21.9999C14.6667 23.9448 15.4393 25.8101 16.8146 27.1854C18.1898 28.5606 20.0551 29.3333 22 29.3333C23.9449 29.3333 25.8102 28.5606 27.1855 27.1854C28.5607 25.8101 29.3333 23.9448 29.3333 21.9999C29.3327 21.2692 29.2229 20.5426 29.0075 19.8443C28.7169 20.4868 28.2472 21.0319 27.6546 21.4142C27.0621 21.7966 26.3718 21.9999 25.6667 21.9999C24.6942 21.9999 23.7616 21.6136 23.0739 20.926C22.3863 20.2383 22 19.3057 22 18.3333C22.0003 17.6277 22.2042 16.9372 22.5872 16.3446C22.9702 15.752 23.516 15.2825 24.1592 14.9924C23.4597 14.7767 22.732 14.6668 22 14.6666C21.963 14.6663 21.926 14.6663 21.889 14.6666Z" fill="#186FE0"></path></svg> 