<?xml version="1.0" encoding="UTF-8"?> <svg xmlns="http://www.w3.org/2000/svg" width="54" height="58" viewBox="0 0 54 58" fill="none"><circle cx="24.3" cy="24.3" r="22.95" fill="white" stroke="#186FE0" stroke-width="2.7"></circle><path d="M40.0697 51.6129L40.0645 51.6045L40.0591 51.5963C37.5383 47.7265 35.1683 43.7821 33.3412 39.5709L33.3316 39.5487L33.3211 39.5269C32.5627 37.9372 32.0103 36.2387 31.6811 34.4801C31.4165 32.4853 31.7213 30.4534 32.5485 28.6604L32.5539 28.6488L32.559 28.6371C34.2959 24.6771 37.1531 22.4711 41.0945 21.9459C46.3375 21.2538 51.5725 25.4395 52.5314 31.3906C52.8722 33.654 52.44 35.7726 51.5919 38.0145C50.037 41.9611 47.9811 45.6013 45.7377 49.2091L45.7368 49.2107C45.2446 50.0045 44.7427 50.7872 44.2323 51.5727C43.2468 53.0893 40.9857 53.0649 40.0697 51.6129Z" fill="white" stroke="#186FE0" stroke-width="2.7"></path><circle cx="42.6608" cy="32.9401" r="3.51" stroke="#186FE0" stroke-width="2.7"></circle><path d="M18.3594 1.08008V7.2755C18.3594 10.7218 21.1531 13.5155 24.5994 13.5155H26.5348C28.9122 13.5155 30.8394 15.4427 30.8394 17.8201V17.8201C30.8394 20.1974 28.9122 22.1246 26.5348 22.1246H24.5771C21.1431 22.1246 18.3594 24.9084 18.3594 28.3424V28.3424C18.3594 31.7763 21.1431 34.5601 24.5771 34.5601H32.3994" stroke="#186FE0" stroke-width="2.7"></path><mask id="mask0_201:4697" style="mask-type:alpha" maskUnits="userSpaceOnUse" x="0" y="0" width="49" height="49"><circle cx="24.3" cy="24.3" r="22.95" fill="white" stroke="#186FE0" stroke-width="2.7"></circle></mask><g mask="url(#mask0_201:4697)"><circle cx="2.70141" cy="29.7002" r="8.91" stroke="#186FE0" stroke-width="2.7"></circle></g></svg> 