<?xml version="1.0" encoding="UTF-8"?> <svg xmlns="http://www.w3.org/2000/svg" width="60" height="46" viewBox="0 0 60 46" fill="none"><path d="M23.7031 17.0144C23.7031 13.2879 26.2149 10.4453 29.8902 10.4453C33.5655 10.4453 36.0772 13.2879 36.0772 17.0144C36.0772 20.7409 33.5655 23.5835 29.8902 23.5835C26.2149 23.5835 23.7031 20.7409 23.7031 17.0144Z" stroke="#186FE0" stroke-width="2.5"></path><path d="M18.0587 39.3081C18.0795 33.0494 23.2985 27.957 29.829 27.8975H29.8854H29.9418C36.4717 27.957 41.6904 33.0485 41.7121 39.3065C41.6566 40.1075 41.3449 41.0408 40.9353 42.0103C40.7654 42.4126 40.5898 42.7963 40.4195 43.1685C40.3851 43.2435 40.351 43.3181 40.3171 43.3923C40.1993 43.6506 40.0804 43.914 39.9759 44.166C39.903 44.184 39.8146 44.2036 39.7089 44.2244C39.1718 44.3296 38.3829 44.4251 37.3947 44.5045C35.4302 44.6622 32.8159 44.7458 30.1624 44.7497C27.5095 44.7536 24.8478 44.6777 22.7888 44.5216C21.7554 44.4433 20.9017 44.3467 20.2866 44.2361C19.9765 44.1804 19.7595 44.1267 19.6234 44.0816C19.621 44.0808 19.6187 44.08 19.6164 44.0793C18.7676 43.0378 18.1755 41.1475 18.0587 39.3081ZM40.2287 44.0889C40.229 44.0888 40.2279 44.0894 40.2251 44.0906C40.2273 44.0895 40.2285 44.089 40.2287 44.0889ZM19.5234 44.0427C19.5237 44.0426 19.5288 44.0449 19.5379 44.0498C19.5276 44.0453 19.5231 44.0429 19.5234 44.0427Z" stroke="#186FE0" stroke-width="2.5"></path><path d="M50.8897 7.81909C50.8897 11.5456 48.378 14.3882 44.7027 14.3882C41.0274 14.3882 38.5156 11.5456 38.5156 7.81909C38.5156 4.09262 41.0274 1.25 44.7027 1.25C48.378 1.25 50.8897 4.09262 50.8897 7.81909Z" stroke="#186FE0" stroke-width="2.5"></path><path d="M8.89062 7.81909C8.89062 4.09262 11.4024 1.25 15.0777 1.25C18.753 1.25 21.2647 4.09262 21.2647 7.81909C21.2647 11.5456 18.753 14.3882 15.0777 14.3882C11.4024 14.3882 8.89062 11.5456 8.89062 7.81909Z" stroke="#186FE0" stroke-width="2.5"></path><path d="M39.2422 18.5781C40.9494 17.8511 42.7812 17.4686 44.634 17.4521H44.758C51.9471 17.5147 57.7728 23.207 57.7728 30.2129C57.6489 32.2146 56.9671 34.529 55.7896 35.8426C55.5417 36.4682 50.1498 36.8435 44.758 36.8435" stroke="#186FE0" stroke-width="2.5"></path><path d="M15.0148 36.8435C9.80889 36.8435 5.16074 37.1563 3.98321 35.8426C2.80568 34.529 2.12395 32.2146 2 30.2129C2 23.207 7.82568 17.5147 15.0148 17.4521H15.1388C16.9989 17.4605 18.8364 17.8655 20.5306 18.6407" stroke="#186FE0" stroke-width="2.5"></path></svg> 