<?xml version="1.0" encoding="UTF-8"?> <svg xmlns="http://www.w3.org/2000/svg" width="57" height="52" viewBox="0 0 57 52" fill="none"><path d="M28.25 50.75V17L55.75 22.0417V50.75H28.25Z" stroke="#186FE0" stroke-width="2.5"></path><mask id="path-2-inside-1_201:4695" fill="white"><rect width="30" height="52" rx="1"></rect></mask><rect width="30" height="52" rx="1" fill="white" stroke="#186FE0" stroke-width="5" mask="url(#path-2-inside-1_201:4695)"></rect><mask id="path-3-inside-2_201:4695" fill="white"><rect x="11" y="42" width="8" height="10" rx="1"></rect></mask><rect x="11" y="42" width="8" height="10" rx="1" fill="white" stroke="#186FE0" stroke-width="5" mask="url(#path-3-inside-2_201:4695)"></rect><mask id="path-4-inside-3_201:4695" fill="white"><rect x="39" y="42" width="8" height="10" rx="1"></rect></mask><rect x="39" y="42" width="8" height="10" rx="1" fill="white" stroke="#186FE0" stroke-width="5" mask="url(#path-4-inside-3_201:4695)"></rect><line x1="8" y1="10.75" x2="11.7333" y2="10.75" stroke="#186FE0" stroke-width="2.5"></line><line x1="18.2656" y1="10.75" x2="21.999" y2="10.75" stroke="#186FE0" stroke-width="2.5"></line><line x1="8" y1="19.4165" x2="11.7333" y2="19.4165" stroke="#186FE0" stroke-width="2.5"></line><line x1="18.2656" y1="19.4165" x2="21.999" y2="19.4165" stroke="#186FE0" stroke-width="2.5"></line><line x1="36" y1="27.75" x2="39.7333" y2="27.75" stroke="#186FE0" stroke-width="2.5"></line><line x1="46.2656" y1="27.75" x2="49.999" y2="27.75" stroke="#186FE0" stroke-width="2.5"></line><line x1="8" y1="28.0835" x2="11.7333" y2="28.0835" stroke="#186FE0" stroke-width="2.5"></line><line x1="18.2656" y1="28.0835" x2="21.999" y2="28.0835" stroke="#186FE0" stroke-width="2.5"></line><line x1="36" y1="36.417" x2="39.7333" y2="36.417" stroke="#186FE0" stroke-width="2.5"></line><line x1="46.2656" y1="36.417" x2="49.999" y2="36.417" stroke="#186FE0" stroke-width="2.5"></line><line x1="8" y1="36.75" x2="11.7333" y2="36.75" stroke="#186FE0" stroke-width="2.5"></line><line x1="18.2656" y1="36.75" x2="21.999" y2="36.75" stroke="#186FE0" stroke-width="2.5"></line></svg> 