<?xml version="1.0" encoding="UTF-8"?> <svg xmlns="http://www.w3.org/2000/svg" width="40" height="40" viewBox="0 0 40 40" fill="none"><path d="M16.2235 39.97C7.27812 39.97 0 32.6919 0 23.7465C0 14.8011 7.27812 7.52295 16.2235 7.52295C17.5963 7.52295 18.9615 7.69517 20.2819 8.03461L21.4912 8.3466L20.8684 10.7639L19.6604 10.4532C18.5435 10.1649 17.3866 10.0189 16.2235 10.0189C8.65462 10.0189 2.49593 16.1776 2.49593 23.7465C2.49593 31.3154 8.65462 37.4741 16.2235 37.4741C23.7924 37.4741 29.9511 31.3154 29.9511 23.7465C29.9511 22.5821 29.8051 21.4265 29.5181 20.3083L29.2061 19.1003L31.6234 18.4776L31.9341 19.6868C32.2748 21.0072 32.447 22.3725 32.447 23.7465C32.447 32.6919 25.1689 39.97 16.2235 39.97Z" fill="#186FE0"></path><path d="M16.2239 33.7301C10.7192 33.7301 6.24023 29.2512 6.24023 23.7464C6.24023 18.2416 10.7192 13.7627 16.2239 13.7627C21.7287 13.7627 26.2076 18.2416 26.2076 23.7464C26.2076 29.2512 21.7287 33.7301 16.2239 33.7301ZM16.2239 16.2586C12.0944 16.2586 8.73616 19.6169 8.73616 23.7464C8.73616 27.8759 12.0944 31.2342 16.2239 31.2342C20.3534 31.2342 23.7117 27.8759 23.7117 23.7464C23.7117 19.6169 20.3534 16.2586 16.2239 16.2586Z" fill="#186FE0"></path><path d="M32.8585 16.3658L39.9718 9.2524L33.732 8.00443L37.0753 4.66114C37.5633 4.17319 37.5633 3.38448 37.0753 2.89652C36.5874 2.40857 35.7987 2.40857 35.3107 2.89652L31.9674 6.23981L30.7194 0L23.6061 7.11214L24.854 13.352L17.8292 20.3767C17.34 20.1434 16.8009 20.0023 16.2244 20.0023C14.1602 20.0023 12.4805 21.6821 12.4805 23.7462C12.4805 25.8104 14.1602 27.4901 16.2244 27.4901C18.2885 27.4901 19.9682 25.8104 19.9682 23.7462C19.9682 23.1697 19.8272 22.6306 19.5926 22.1426L26.6174 15.1178L32.8585 16.3658ZM17.0667 24.6548C16.9594 24.7546 16.8384 24.8395 16.7023 24.8969C16.8346 24.8432 16.9557 24.7583 17.0667 24.6548ZM15.3121 22.9089C15.211 23.0187 15.1274 23.1385 15.0725 23.2683C15.1286 23.1335 15.2148 23.0149 15.3121 22.9089ZM15.3121 24.5836C15.2148 24.4775 15.1299 24.359 15.0725 24.2242C15.1274 24.354 15.211 24.4738 15.3121 24.5836ZM15.382 24.6548C15.4931 24.7571 15.6141 24.8419 15.7464 24.8969C15.6104 24.8407 15.4893 24.7546 15.382 24.6548Z" fill="#186FE0"></path></svg> 