<?xml version="1.0" encoding="UTF-8"?> <svg xmlns="http://www.w3.org/2000/svg" width="45" height="32" viewBox="0 0 45 32" fill="none"><path d="M42.2451 0H28.4695C27.9824 0 27.5152 0.193513 27.1708 0.537967C26.8263 0.882422 26.6328 1.3496 26.6328 1.83673V15.6122C26.6328 15.7828 26.6803 15.95 26.77 16.0951C26.8596 16.2401 26.9879 16.3574 27.1405 16.4337C27.293 16.5099 27.4638 16.5422 27.6337 16.5269C27.8035 16.5116 27.9658 16.4493 28.1022 16.3469L31.5305 13.7755H42.2451C42.7322 13.7755 43.1994 13.582 43.5438 13.2375C43.8883 12.8931 44.0818 12.4259 44.0818 11.9388V1.83673C44.0818 1.3496 43.8883 0.882422 43.5438 0.537967C43.1994 0.193513 42.7322 0 42.2451 0V0ZM34.8981 10.102H30.3063V8.26531H34.8981V10.102ZM40.4083 5.5102H30.3063V3.67347H40.4083V5.5102Z" fill="#186FE0"></path><path d="M39.4902 15.6122V24.7959C39.4902 25.0394 39.3934 25.273 39.2212 25.4452C39.0489 25.6175 38.8154 25.7142 38.5718 25.7142H6.42893C6.18536 25.7142 5.95177 25.6175 5.77955 25.4452C5.60732 25.273 5.51056 25.0394 5.51056 24.7959V6.42851C5.51056 6.18494 5.60732 5.95135 5.77955 5.77912C5.95177 5.6069 6.18536 5.51014 6.42893 5.51014H24.7963V1.83667H6.42893C5.69823 1.83667 4.99746 2.12694 4.48078 2.64362C3.9641 3.1603 3.67383 3.86107 3.67383 4.59177V29.3877C6.95144 29.3877 41.3269 29.516 41.3269 29.3877V15.6122H39.4902Z" fill="#186FE0"></path><path d="M0 28.4694C0 27.9622 0.411167 27.551 0.918367 27.551H44.0816C44.5888 27.551 45 27.9622 45 28.4694C45 29.991 43.7665 31.2245 42.2449 31.2245H2.7551C1.2335 31.2245 0 29.991 0 28.4694Z" fill="#186FE0"></path></svg> 