<?xml version="1.0" encoding="UTF-8"?> <svg xmlns="http://www.w3.org/2000/svg" width="34" height="34" viewBox="0 0 34 34" fill="none"><path d="M5.91245 10.3478C7.9535 10.3478 9.6081 8.69325 9.6081 6.65219C9.6081 4.61114 7.9535 2.95654 5.91245 2.95654C3.8714 2.95654 2.2168 4.61114 2.2168 6.65219C2.2168 8.69325 3.8714 10.3478 5.91245 10.3478Z" fill="#186FE0"></path><path d="M17.0001 10.3478C19.8576 10.3478 22.174 8.03139 22.174 5.17391C22.174 2.31644 19.8576 0 17.0001 0C14.1426 0 11.8262 2.31644 11.8262 5.17391C11.8262 8.03139 14.1426 10.3478 17.0001 10.3478Z" fill="#186FE0"></path><path d="M9.07061 25.8039C8.08165 25.5563 7.3913 24.6715 7.3913 23.6523V15.5218C7.3913 14.113 7.95896 12.8358 8.87548 11.9016C8.63452 11.852 8.38543 11.8262 8.13043 11.8262H3.69565C1.65787 11.8262 0 13.484 0 15.5218V22.174C0 22.4926 0.203261 22.7742 0.505565 22.8754L2.2647 23.4616L2.95948 31.1108C2.99422 31.4907 3.31352 31.7827 3.69565 31.7827H8.13043C8.51256 31.7827 8.83187 31.4907 8.86661 31.1101L9.34261 25.8711L9.07061 25.8039Z" fill="#186FE0"></path><path d="M28.0863 10.3478C30.1273 10.3478 31.7819 8.69325 31.7819 6.65219C31.7819 4.61114 30.1273 2.95654 28.0863 2.95654C26.0452 2.95654 24.3906 4.61114 24.3906 6.65219C24.3906 8.69325 26.0452 10.3478 28.0863 10.3478Z" fill="#186FE0"></path><path d="M24.9302 25.8039C25.9192 25.5563 26.6095 24.6715 26.6095 23.6523V15.5218C26.6095 14.113 26.0419 12.8358 25.1253 11.9016C25.3663 11.852 25.6154 11.8262 25.8704 11.8262H30.3052C32.3429 11.8262 34.0008 13.484 34.0008 15.5218V22.174C34.0008 22.4926 33.7976 22.7742 33.4952 22.8754L31.7361 23.4616L31.0413 31.1108C31.0066 31.4907 30.6873 31.7827 30.3052 31.7827H25.8704C25.4882 31.7827 25.1689 31.4907 25.1342 31.1101L24.6582 25.8711L24.9302 25.8039Z" fill="#186FE0"></path><path d="M21.4344 11.8262H12.5648C10.527 11.8262 8.86914 13.484 8.86914 15.5218V23.6523C8.86914 23.9915 9.09975 24.2872 9.42866 24.3692L11.8722 24.9797L12.567 33.3223C12.5995 33.7059 12.9196 34.0001 13.3039 34.0001H20.6952C21.0796 34.0001 21.3996 33.7059 21.4321 33.3223L22.1269 24.9797L24.5705 24.3692C24.8994 24.2872 25.13 23.9915 25.13 23.6523V15.5218C25.13 13.484 23.4721 11.8262 21.4344 11.8262Z" fill="#186FE0"></path></svg> 