<?xml version="1.0" encoding="UTF-8"?> <svg xmlns="http://www.w3.org/2000/svg" width="159" height="19" viewBox="0 0 159 19" fill="none"><path d="M38.5143 6.45718L46.9905 18.598H53.6056L42.0234 2.05169C41.2698 0.986007 40.1623 0 38.4193 0C36.7483 0 35.6408 0.90301 34.8578 2.05169L23.5605 18.598H30.2674L31.886 16.211L42.7671 16.211L39.3956 11.5067H35.0576L38.4881 6.44058L38.5143 6.45718Z" fill="#2D2D2D"></path><path d="M75.79 13.8933L72.1859 18.5976L63.1298 18.5976C56.8652 18.5976 52.252 14.5772 52.252 9.27205C52.252 3.91043 56.8652 0.30835 63.1298 0.30835L75.79 0.30835L72.1859 5.06575L63.1298 5.06575C60.1056 5.06575 57.8383 6.89833 57.8383 9.52436C57.8383 12.1504 60.0794 13.9 63.1298 13.9L75.79 13.8933Z" fill="#2D2D2D"></path><path d="M100.162 0.301758L96.5582 5.05916L90.1036 5.05916V18.5977L84.5074 18.5977V5.05916L76.0312 5.05916L79.6353 0.301758L100.162 0.301758Z" fill="#2D2D2D"></path><path d="M131.252 0.301758L127.648 5.05916L116.622 5.05916V7.43952L130.226 7.43952L126.825 11.8981H116.622V18.5977H111.01V0.301758L131.252 0.301758Z" fill="#2D2D2D"></path><path d="M159 0.301758L148.282 12.5521V18.5977L142.666 18.5977V12.5256L131.654 0.301758L138.833 0.301758L143.155 5.38783C143.721 6.0518 145.232 7.71175 145.609 8.25953C145.959 7.74163 146.592 6.93158 147.876 5.36127L151.981 0.301758L159 0.301758Z" fill="#2D2D2D"></path><path d="M107.528 6.29346L101.941 6.29346V18.597H107.528V6.29346Z" fill="#2D2D2D"></path><path d="M107.528 0.301758L101.941 0.301758V5.06248L107.528 5.06248V0.301758Z" fill="#186FE0"></path><path d="M15.2779 2.8252L12.5781 17.8809C13.9546 17.2855 15.1638 16.3534 16.0973 15.1681C17.0308 13.9828 17.6595 12.5813 17.9271 11.0893C18.1946 9.59725 18.0927 8.06126 17.6303 6.61897C17.168 5.17667 16.3597 3.87314 15.2779 2.8252Z" fill="#186FE0"></path><path d="M12.8699 1.15123C11.5259 0.5138 10.0477 0.221196 8.56568 0.299212C7.08369 0.377228 5.6434 0.823467 4.37177 1.59859C3.10014 2.37372 2.03624 3.45392 1.27384 4.74398C0.511449 6.03403 0.07398 7.49433 0 8.99612L12.8699 1.15123Z" fill="#186FE0"></path><path d="M9.88163 16.3472L10.514 13.1634L12.1719 4.80396L5.46824 9.07001L5.04558 9.33892L2.25404 11.1383L0.425781 12.2936C1.018 14.1321 2.16874 15.7338 3.71347 16.8697C5.2582 18.0056 7.11783 18.6175 9.02647 18.618C9.16408 18.618 9.29842 18.618 9.43275 18.618L9.88163 16.3472Z" fill="#186FE0"></path></svg> 