<?xml version="1.0" encoding="UTF-8"?> <svg xmlns="http://www.w3.org/2000/svg" width="22" height="16" viewBox="0 0 22 16" fill="none"><path fill-rule="evenodd" clip-rule="evenodd" d="M20.4436 1.91603C21.142 2.52628 21.3166 4.00834 21.3166 4.00834C21.3166 4.00834 21.4912 5.66475 21.4912 7.32116V8.89039C21.4912 10.634 21.3166 12.2904 21.3166 12.2904C21.3166 12.2904 21.0547 13.7724 20.4436 14.3827C19.7826 15.0427 19.0599 15.1475 18.5872 15.2161C18.498 15.229 18.4177 15.2407 18.3484 15.2545C15.3802 15.516 11.0151 15.516 11.0151 15.516C11.0151 15.516 5.51519 15.516 3.85648 15.3417C3.77275 15.3249 3.66653 15.3146 3.54399 15.3027C3.0277 15.2527 2.22165 15.1744 1.58667 14.4699C0.888265 13.8596 0.713664 12.3776 0.713664 12.3776C0.713664 12.3776 0.539062 10.634 0.539062 8.97757V7.40834C0.539062 5.66475 0.713664 4.00834 0.713664 4.00834C0.713664 4.00834 0.975565 2.52628 1.58667 1.91603C2.24763 1.25599 2.97037 1.15119 3.44306 1.08265C3.53227 1.06972 3.61258 1.05807 3.68188 1.04423C6.6501 0.869873 11.0151 0.869873 11.0151 0.869873C11.0151 0.869873 15.3802 0.869873 18.3484 1.04423C18.7849 1.04423 19.6579 1.04423 20.4436 1.91603ZM8.83264 5.05444V10.8955L14.5072 8.01855L8.83264 5.05444Z" fill="#186FE0"></path></svg> 