<?xml version="1.0" encoding="UTF-8"?> <svg xmlns="http://www.w3.org/2000/svg" width="16" height="17" viewBox="0 0 16 17" fill="none"><path fill-rule="evenodd" clip-rule="evenodd" d="M0.795379 0.34668H15.2C15.5928 0.34668 15.8547 0.608217 15.8547 1.00053V15.3851C15.8547 15.7774 15.5928 16.039 15.2 16.039H0.795379C0.402527 16.039 0.140625 15.7774 0.140625 15.3851V1.00053C0.140625 0.608217 0.402527 0.34668 0.795379 0.34668ZM2.4978 13.7505H4.78945H4.85493V6.23126H2.4978V13.7505ZM3.61082 5.18512C2.89059 5.18512 2.23584 4.59666 2.23584 3.81204C2.23584 3.09281 2.82512 2.43896 3.61082 2.43896C4.33105 2.43896 4.98581 3.02743 4.98581 3.81204C4.98581 4.59666 4.39653 5.18512 3.61082 5.18512ZM11.2059 13.7505H13.5631V9.69668C13.5631 7.66976 13.1047 6.10052 10.7476 6.10052C9.56906 6.10052 8.84883 6.68899 8.52145 7.27745V6.23129H6.29529V13.7505H8.6524V10.0236C8.6524 9.04283 8.78336 8.12745 10.0274 8.12745C11.2059 8.12745 11.2059 9.23899 11.2059 10.089V13.7505Z" fill="#186FE0"></path></svg> 