<?xml version="1.0" encoding="UTF-8"?> <svg xmlns="http://www.w3.org/2000/svg" width="20" height="16" viewBox="0 0 20 16" fill="none"><path d="M19.1307 2.51036C18.4409 2.79736 17.7512 3.02696 16.9465 3.08436C17.7512 2.62516 18.326 1.87896 18.6134 1.01796C17.8661 1.47716 17.0614 1.76416 16.1992 1.93636C15.5095 1.19016 14.5323 0.730957 13.4977 0.730957C11.4284 0.730957 9.70401 2.39556 9.70401 4.51936C9.70401 4.80636 9.76149 5.09336 9.81897 5.38036C6.65758 5.20816 3.89855 3.71576 2.00172 1.41976C1.65684 1.99376 1.4844 2.62516 1.4844 3.31396C1.4844 4.63416 2.17416 5.78216 3.15132 6.47096C2.51904 6.47096 1.94424 6.29876 1.42692 6.01176V6.06916C1.42692 7.90596 2.74896 9.39836 4.47335 9.74276C4.12847 9.80016 3.84107 9.85756 3.49619 9.85756C3.26628 9.85756 3.03636 9.85756 2.80644 9.80016C3.26628 11.2926 4.70327 12.3832 6.3127 12.4406C5.04815 13.4738 3.38124 14.0478 1.59936 14.0478C1.31196 14.0478 0.967086 14.0478 0.679688 13.9904C2.40408 15.0236 4.41587 15.655 6.54262 15.655C13.4977 15.655 17.2913 9.91496 17.2913 4.92116C17.2913 4.74896 17.2913 4.57676 17.2913 4.46196C17.9811 3.88796 18.6134 3.25656 19.1307 2.51036Z" fill="#186FE0"></path></svg> 