<?xml version="1.0" encoding="UTF-8"?> <svg xmlns="http://www.w3.org/2000/svg" width="15" height="15" viewBox="0 0 15 15" fill="none"><path d="M13.9931 6.06579L14.6837 3.18595V3.18534C14.8812 2.36387 14.6368 1.49855 14.0394 0.900524C13.4414 0.303101 12.5761 0.0586938 11.7546 0.256192L8.8743 0.946818C8.31266 1.08136 7.79917 1.36897 7.3906 1.77754L0.747881 8.42026C0.609015 8.55913 0.53125 8.74736 0.53125 8.94301C0.53125 9.13928 0.609015 9.32752 0.747881 9.46638L5.47361 14.1921C5.76244 14.4809 6.23089 14.4809 6.51973 14.1921L13.1624 7.54939C13.571 7.14082 13.8586 6.62733 13.9932 6.06569L13.9931 6.06579ZM11.4942 3.44649C11.1375 3.08976 11.0307 2.55344 11.2239 2.08684C11.4171 1.62087 11.872 1.31721 12.3762 1.31721C12.881 1.31721 13.3359 1.62087 13.5285 2.08684C13.7217 2.55342 13.6149 3.08976 13.2581 3.44649C12.7712 3.93344 11.9812 3.93344 11.4943 3.44649H11.4942Z" fill="#233741"></path></svg> 