<?xml version="1.0" encoding="UTF-8"?> <svg xmlns="http://www.w3.org/2000/svg" width="14" height="14" viewBox="0 0 14 14" fill="none"><path d="M12.1292 2.72387C12.0234 2.60266 11.9323 2.49683 11.8419 2.40578C10.5554 1.10448 8.83021 0.37793 6.99852 0.37793C5.16683 0.37793 3.44168 1.10455 2.15517 2.40578C2.06412 2.49683 1.95829 2.60266 1.86784 2.72387C0.777617 3.96485 0.1875 5.55405 0.1875 7.18883C0.1875 8.82361 0.777541 10.4128 1.86784 11.6538C1.97367 11.775 2.06472 11.8808 2.15517 11.9719C3.44168 13.2732 5.16683 13.9997 6.99852 13.9997C8.83021 13.9997 10.5554 13.2731 11.8419 11.9719C11.9329 11.8808 12.0387 11.775 12.1292 11.6538C13.2194 10.4128 13.8095 8.82361 13.8095 7.18883C13.8095 5.55405 13.2195 3.96482 12.1292 2.72387ZM8.70889 3.14778C8.69351 3.17793 8.66336 3.20809 8.60306 3.22346C8.28497 3.26898 7.95211 3.29913 7.61925 3.31451H7.60388C7.5282 3.31451 7.45253 3.2542 7.45253 3.16315V1.72528C7.45253 1.63423 7.54357 1.57393 7.60388 1.57393C7.63403 1.57393 7.6494 1.5893 7.67956 1.60408C8.05794 1.87664 8.40618 2.36085 8.69351 3.0118C8.75441 3.07211 8.72367 3.11763 8.70889 3.14778ZM9.51119 7.82434C9.46566 8.64141 9.34446 9.41356 9.16295 10.1402C9.14758 10.2005 9.08727 10.246 9.02697 10.246H9.0116C8.57291 10.1857 8.10347 10.1402 7.63403 10.1101C7.55835 10.1101 7.49804 10.0498 7.49804 9.9587V7.80962C7.49804 7.73394 7.55835 7.65827 7.6494 7.65827H9.38998C9.4355 7.65827 9.46565 7.67364 9.49581 7.70379C9.49581 7.74872 9.51119 7.77881 9.51119 7.82434ZM9.37461 12.2437C9.49582 12.0167 9.61702 11.7595 9.73762 11.5023C9.75299 11.442 9.8133 11.4113 9.87361 11.4113H9.90376C10.1006 11.4568 10.2975 11.5171 10.4938 11.5928C10.5695 11.623 10.5848 11.6685 10.5996 11.714C10.5996 11.7442 10.5996 11.805 10.5393 11.8654C10.2366 12.0924 9.91853 12.2893 9.58567 12.4554C9.55552 12.4708 9.54014 12.4708 9.50999 12.4708C9.46447 12.4708 9.40416 12.4406 9.37401 12.3951C9.34445 12.3348 9.34446 12.2893 9.37461 12.2437ZM10.4642 6.56794C10.4187 5.67519 10.3129 4.8428 10.116 4.07059C10.1006 3.99491 10.1462 3.91923 10.2218 3.88908C10.6458 3.78325 11.0389 3.64667 11.3871 3.49532C11.4025 3.49532 11.4173 3.47995 11.4475 3.47995C11.493 3.47995 11.5385 3.49532 11.5533 3.54025C12.2498 4.40285 12.6884 5.44763 12.8096 6.55191C12.8096 6.59743 12.7943 6.64296 12.7795 6.65774C12.7493 6.68789 12.7038 6.70326 12.6737 6.70326L10.6155 6.70445C10.5399 6.70445 10.4796 6.64362 10.4642 6.56794ZM10.5854 2.67828C10.5854 2.70843 10.5553 2.76933 10.4796 2.79948C10.2981 2.85979 10.1012 2.92068 9.88958 2.98098H9.85942C9.79912 2.98098 9.75359 2.95083 9.72344 2.88994C9.61761 2.61738 9.49641 2.37557 9.36043 2.14854C9.33028 2.10302 9.33028 2.05749 9.36043 2.01256C9.39058 1.96703 9.43611 1.93688 9.49641 1.93688C9.52657 1.93688 9.54194 1.93688 9.57209 1.95225C9.90495 2.11898 10.223 2.31526 10.5257 2.54229C10.5855 2.57244 10.5854 2.64812 10.5854 2.67828ZM9.46567 6.65906C9.43551 6.68921 9.40536 6.70458 9.35984 6.70458H7.61926C7.54358 6.70458 7.4679 6.64427 7.4679 6.55323V4.41882C7.4679 4.34315 7.52821 4.28284 7.60389 4.26747C8.07333 4.2521 8.54216 4.20716 8.98145 4.13148H8.99683C9.05713 4.13148 9.11803 4.17701 9.13281 4.23731C9.32969 4.96394 9.43552 5.73548 9.48105 6.55319C9.5112 6.59872 9.49582 6.6289 9.46567 6.65906ZM7.77065 11.0785H7.78602C8.05858 11.0938 8.33114 11.124 8.60309 11.1541C8.67877 11.1695 8.70892 11.2144 8.70892 11.2298C8.72429 11.26 8.73907 11.3055 8.70892 11.351C8.42159 12.002 8.05797 12.4862 7.69497 12.7587C7.66481 12.7741 7.64944 12.7889 7.61929 12.7889C7.55898 12.7889 7.46793 12.7434 7.46793 12.6375V11.487C7.48271 11.2452 7.58855 11.0785 7.77065 11.0785ZM10.2224 10.4884C10.1468 10.473 10.1012 10.3826 10.1166 10.3069C10.3135 9.53476 10.4347 8.68757 10.4648 7.80956C10.4648 7.73389 10.5252 7.67358 10.6162 7.67358H12.6595C12.705 7.67358 12.7352 7.68895 12.7653 7.7191C12.7807 7.73448 12.8108 7.77941 12.7955 7.82493C12.6743 8.92994 12.2504 9.97402 11.5391 10.8366C11.509 10.8667 11.4634 10.8969 11.4333 10.8969C11.4179 10.8969 11.3878 10.8969 11.373 10.8815C11.0247 10.7302 10.631 10.5943 10.2224 10.4884ZM5.28798 11.2298C5.30335 11.1997 5.3335 11.1695 5.39381 11.1541C5.71189 11.1086 6.04475 11.0785 6.37761 11.0631H6.39298C6.43851 11.0631 6.46866 11.0785 6.49881 11.1086C6.51418 11.124 6.54434 11.1541 6.54434 11.2144V12.6369C6.54434 12.728 6.45329 12.7883 6.39298 12.7883C6.36283 12.7883 6.34746 12.7729 6.31731 12.7581C5.93892 12.4856 5.59068 12.0014 5.30335 11.3504C5.24245 11.3055 5.27319 11.26 5.28798 11.2298ZM4.48567 6.55326C4.5312 5.73619 4.65241 4.96404 4.83391 4.23738C4.84928 4.17708 4.90959 4.13155 4.96989 4.13155H4.98527C5.42395 4.19186 5.89339 4.23738 6.36284 4.26753C6.43851 4.26753 6.49882 4.32784 6.49882 4.41889V6.56797C6.49882 6.64365 6.43851 6.71933 6.34746 6.71933H4.63701C4.59148 6.71933 4.56133 6.70396 4.53118 6.6738C4.50102 6.62887 4.48567 6.59878 4.48567 6.55326ZM4.62225 2.13386C4.50105 2.36089 4.37984 2.61807 4.25924 2.87525C4.24387 2.93556 4.18356 2.9663 4.12326 2.9663H4.0931C3.89622 2.92078 3.69934 2.86047 3.50306 2.7848C3.42739 2.75464 3.41201 2.70912 3.39723 2.66359C3.39723 2.63344 3.39723 2.57254 3.45754 2.51224C3.76025 2.28521 4.07833 2.08832 4.41119 1.9222C4.44135 1.90683 4.45672 1.90683 4.48687 1.90683C4.53239 1.90683 4.5927 1.93698 4.62285 1.9825C4.65241 2.04281 4.6524 2.08833 4.62225 2.13386ZM3.88026 4.07074C3.68338 4.84289 3.56218 5.69008 3.53203 6.56809C3.53203 6.64377 3.47172 6.70407 3.38067 6.70407L1.33799 6.70467C1.29246 6.70467 1.26231 6.68929 1.23216 6.65914C1.21679 6.64377 1.18663 6.59884 1.20201 6.55331C1.32321 5.4483 1.74712 4.40423 2.45837 3.54166C2.48852 3.5115 2.53405 3.48135 2.5642 3.48135C2.57957 3.48135 2.60972 3.48135 2.62451 3.49672C2.98751 3.64808 3.38128 3.78405 3.78982 3.89049C3.85012 3.90468 3.89563 3.98028 3.88026 4.07074ZM1.21672 7.71869C1.24688 7.68854 1.2924 7.67316 1.32255 7.67316H3.36584C3.44152 7.67316 3.50182 7.73347 3.5172 7.80915C3.56272 8.7019 3.66855 9.53429 3.86543 10.3065C3.8808 10.3822 3.83528 10.4579 3.7596 10.488C3.33569 10.5938 2.94253 10.7304 2.59429 10.8818C2.57892 10.8818 2.56414 10.8971 2.53399 10.8971C2.48846 10.8971 2.44294 10.8818 2.42816 10.8368C1.73168 9.97423 1.293 8.92946 1.17179 7.82518C1.18657 7.77906 1.20135 7.73406 1.21672 7.71869ZM3.41137 11.6995C3.41137 11.6693 3.44152 11.6084 3.5172 11.5783C3.6987 11.518 3.89558 11.4571 4.10724 11.3968H4.13739C4.1977 11.3968 4.24322 11.4269 4.27337 11.4878C4.3792 11.7604 4.5004 12.0022 4.63638 12.2292C4.66653 12.2747 4.66653 12.3203 4.63638 12.3652C4.60623 12.4107 4.5607 12.4409 4.5004 12.4409C4.47025 12.4409 4.45487 12.4409 4.42472 12.4255C4.09186 12.2588 3.77378 12.0625 3.47107 11.8355C3.41135 11.8053 3.41137 11.7296 3.41137 11.6995ZM4.53115 7.71869C4.5613 7.68854 4.59145 7.67316 4.63698 7.67316H6.37756C6.45323 7.67316 6.52891 7.73347 6.52891 7.82452V9.9736C6.52891 10.0493 6.46861 10.1096 6.39293 10.125C5.92349 10.1403 5.45465 10.1853 5.01536 10.2609H4.99999C4.93968 10.2609 4.87879 10.2154 4.864 10.1551C4.66712 9.42849 4.5613 8.65694 4.51577 7.83923C4.48561 7.77893 4.501 7.74884 4.53115 7.71869ZM6.22617 3.29929H6.2108C5.93824 3.28391 5.66568 3.25376 5.39372 3.22361C5.31805 3.20824 5.28789 3.1633 5.28789 3.14793C5.27252 3.11778 5.25774 3.07225 5.28789 3.02673C5.57522 2.37578 5.93884 1.89157 6.30185 1.61901C6.332 1.60364 6.34737 1.58886 6.37753 1.58886C6.40768 1.58886 6.4532 1.60423 6.48336 1.63438C6.49873 1.64975 6.52888 1.69469 6.52888 1.74021V2.89075C6.5141 3.13257 6.40827 3.29929 6.22617 3.29929Z" fill="#233741"></path></svg> 