<?xml version="1.0" encoding="UTF-8"?> <svg xmlns="http://www.w3.org/2000/svg" width="16" height="16" viewBox="0 0 16 16" fill="none"><path d="M7.99854 0.87793C6.05936 0.87793 4.19972 1.64844 2.8289 3.01933C1.45808 4.39022 0.6875 6.24993 0.6875 8.18896C0.6875 10.128 1.45801 11.9878 2.8289 13.3586C4.19979 14.7294 6.0595 15.5 7.99854 15.5C9.93757 15.5 11.7973 14.7295 13.1682 13.3586C14.539 11.9877 15.3096 10.128 15.3096 8.18896C15.3096 6.24993 14.5391 4.39015 13.1682 3.01933C11.7973 1.64851 9.93757 0.87793 7.99854 0.87793V0.87793ZM8.80275 11.8445C8.80275 12.2889 8.44291 12.6487 7.99854 12.6487C7.55416 12.6487 7.19432 12.2889 7.19432 11.8445V7.39967C7.19432 6.95529 7.55416 6.59545 7.99854 6.59545C8.44291 6.59545 8.80275 6.95529 8.80275 7.39967V11.8445ZM7.99854 5.26455C7.59643 5.26455 7.23373 5.02238 7.08009 4.65054C6.92587 4.27927 7.01098 3.85147 7.29543 3.56702C7.57988 3.28257 8.00769 3.19747 8.37896 3.35168C8.7508 3.50533 8.99297 3.86801 8.99297 4.27012C8.99297 4.81959 8.54745 5.26454 7.99855 5.26454L7.99854 5.26455Z" fill="#233741"></path></svg> 