<?xml version="1.0" encoding="UTF-8"?> <svg xmlns="http://www.w3.org/2000/svg" width="14" height="14" viewBox="0 0 14 14" fill="none"><path d="M11.6657 0H2.33439C2.02783 -7.2956e-07 1.72428 0.0603789 1.44106 0.177692C1.15784 0.295005 0.900497 0.466954 0.683729 0.683721C0.466961 0.900488 0.295011 1.15783 0.177696 1.44105C0.0603818 1.72427 7.29565e-07 2.02782 0 2.33438V8.55453C7.29549e-07 8.86109 0.0603824 9.16464 0.177697 9.44786C0.295012 9.73108 0.466962 9.98842 0.68373 10.2052C0.900499 10.4219 1.15784 10.5939 1.44106 10.7112C1.72428 10.8285 2.02784 10.8889 2.33439 10.8889H5.44444L8.55556 14V10.8889H11.6656C12.2848 10.8889 12.8785 10.6429 13.3163 10.2052C13.7541 9.7674 14 9.17364 14 8.55453V2.33438C14 1.71527 13.7541 1.12152 13.3163 0.683735C12.8785 0.245955 12.2848 8.84047e-06 11.6657 0Z" fill="#233741"></path><path d="M10.4444 6.41689L9.69417 5.84823C9.7229 5.69567 9.73744 5.54078 9.73761 5.38554C9.73716 5.23027 9.72231 5.07538 9.69326 4.92285L10.444 4.35442C10.466 4.3378 10.4811 4.3137 10.4866 4.28667C10.492 4.25964 10.4874 4.23156 10.4735 4.20771L9.87857 3.17749C9.86481 3.15367 9.84282 3.1357 9.81674 3.12695C9.79066 3.1182 9.76228 3.11928 9.73694 3.12998L8.86798 3.4972C8.63251 3.29427 8.3614 3.13684 8.06843 3.03293L7.95163 2.09886C7.94822 2.07157 7.93496 2.04646 7.91435 2.02826C7.89373 2.01006 7.86718 2.00001 7.83968 2H6.64955C6.62205 2.00001 6.5955 2.01006 6.57488 2.02826C6.55427 2.04646 6.54101 2.07157 6.5376 2.09886L6.4208 3.03293C6.12779 3.13672 5.85663 3.29408 5.62113 3.49697L4.75218 3.12976C4.72684 3.11905 4.69846 3.11797 4.67238 3.12672C4.6463 3.13547 4.62431 3.15345 4.61055 3.17727L4.01526 4.20805C4.00141 4.23189 3.99678 4.25998 4.00222 4.28701C4.00767 4.31404 4.02283 4.33814 4.04482 4.35476L4.79574 4.92285C4.73774 5.22859 4.73774 5.5425 4.79574 5.84823L4.04482 6.41667C4.02283 6.43329 4.00767 6.45739 4.00222 6.48441C3.99678 6.51144 4.00141 6.53953 4.01526 6.56337L4.61021 7.59393C4.62397 7.61775 4.64596 7.63573 4.67204 7.64448C4.69812 7.65322 4.7265 7.65215 4.75184 7.64144L5.62079 7.27422C5.85638 7.47715 6.12767 7.63447 6.4208 7.73816L6.53749 8.67223C6.5409 8.69952 6.55415 8.72462 6.57477 8.74282C6.59538 8.76103 6.62193 8.77108 6.64944 8.77109H7.83968C7.86718 8.77108 7.89373 8.76103 7.91435 8.74282C7.93496 8.72462 7.94822 8.69952 7.95163 8.67223L8.06843 7.73816C8.36144 7.63437 8.6326 7.47701 8.8681 7.27411L9.73705 7.64133C9.76239 7.65203 9.79077 7.65311 9.81685 7.64436C9.84293 7.63561 9.86492 7.61764 9.87868 7.59382L10.4736 6.56326C10.4874 6.53949 10.4921 6.5115 10.4867 6.48455C10.4813 6.45761 10.4663 6.43355 10.4444 6.41689ZM7.24461 6.62691C6.99909 6.62691 6.75909 6.5541 6.55495 6.4177C6.35081 6.2813 6.1917 6.08742 6.09774 5.86059C6.00379 5.63376 5.9792 5.38417 6.0271 5.14336C6.075 4.90256 6.19323 4.68137 6.36684 4.50776C6.54044 4.33416 6.76163 4.21593 7.00244 4.16803C7.24324 4.12013 7.49283 4.14471 7.71966 4.23867C7.94649 4.33263 8.14037 4.49174 8.27677 4.69588C8.41317 4.90002 8.48598 5.14002 8.48598 5.38554C8.48598 5.71477 8.35519 6.03052 8.12239 6.26332C7.88959 6.49612 7.57384 6.62691 7.24461 6.62691Z" fill="#F4F4F4"></path></svg> 