<?xml version="1.0" encoding="UTF-8"?> <svg xmlns="http://www.w3.org/2000/svg" xmlns:xlink="http://www.w3.org/1999/xlink" version="1.1" id="Layer_1" x="0px" y="0px" viewBox="0 0 100 97" style="enable-background:new 0 0 100 97;" xml:space="preserve"> <style type="text/css"> .st0{fill:#FFFFFF;} </style> <g> <ellipse transform="matrix(0.999 -4.531488e-02 4.531488e-02 0.999 -0.7809 0.7358)" class="st0" cx="15.8" cy="17.6" rx="2" ry="2"></ellipse> <path class="st0" d="M22.2,15.6c-1.1,0-2,0.9-2,2c0,1.1,0.9,2,2,2c1.1,0,2-0.9,2-2C24.2,16.5,23.3,15.6,22.2,15.6z"></path> <path class="st0" d="M28.6,15.6c-1.1,0-2,0.9-2,2c0,1.1,0.9,2,2,2c1.1,0,2-0.9,2-2C30.5,16.5,29.6,15.6,28.6,15.6z"></path> <path class="st0" d="M90.6,70c-0.1,0-0.1,0-0.2,0L87,56.9c0.6-0.7,1-1.6,1-2.6c0-1.6-1-3-2.3-3.7V15.3c0-2.7-2.2-4.8-4.8-4.8H11.3 c-2.7,0-4.8,2.2-4.8,4.8v8.1c0,0,0,0,0,0s0,0,0,0v55.5c0,2.7,2.2,4.8,4.8,4.8h50.2l3,1c0.4,2.1,2.2,3.7,4.3,3.7 c2.2,0,4.1-1.7,4.4-3.9l13.3-5.8c1,1.2,2.5,1.9,4.1,1.9c3,0,5.4-2.4,5.4-5.4C96,72.4,93.6,70,90.6,70z M9,22.1v-6.8 c0-1.3,1.1-2.3,2.3-2.3h69.4c1.3,0,2.4,1.1,2.4,2.3v6.8H9z M28.6,24.6h54.5v25.7c-0.5,0.1-1,0.3-1.5,0.6l-6.9-6 c0.1-0.4,0.1-0.7,0.1-1.1c0-3.2-2.6-5.8-5.8-5.8c-3.2,0-5.8,2.6-5.8,5.8c0,0.3,0,0.6,0.1,0.9l-10.6,8.7c-0.7-0.7-1.7-1.2-2.8-1.2 c-2.2,0-4,1.8-4,4c0,1.7,1,3.1,2.5,3.7v13.4c-2.1,0.7-3.7,2.7-3.7,5c0,1,0.3,2,0.8,2.8h-17V24.6z M79.9,54.6l-5.6,3.2L71.5,49 c0.7-0.4,1.4-0.9,1.9-1.5l6.6,5.7c-0.1,0.3-0.1,0.7-0.1,1.1C79.8,54.4,79.9,54.5,79.9,54.6z M51.2,73.4V60.2c0.5-0.2,1-0.4,1.4-0.8 l10.8,5.1c0.2,1.3,1.1,2.3,2.3,2.6l0.2,2.1l-12,5.8C53.2,74.2,52.2,73.6,51.2,73.4z M64.1,61.8L53.9,57c0-0.2,0.1-0.4,0.1-0.7 c0-0.2,0-0.5-0.1-0.7l10.9-7.9c1,1.1,2.4,1.7,4,1.8l3,9.7l-3.5,2c-0.5-0.3-1.1-0.5-1.8-0.5C65.6,60.8,64.7,61.2,64.1,61.8z M65,82 l-2.2-0.8c0,0,0,0,0,0h0l-7.6-2.6c0-0.1,0-0.1,0-0.2c0-0.3,0-0.7-0.1-1l11.1-5.4l0.9,7.9C66.2,80.4,65.4,81.1,65,82z M67.9,66.9 c1.1-0.5,1.9-1.6,1.9-2.9c0-0.3,0-0.6-0.1-0.8l2.9-1.7l0.3,1.1c-1.2,1-1.9,2.4-1.9,4c0,0,0,0,0,0.1L68,68.2L67.9,66.9z M85.3,75.4 c0,0.3,0,0.6,0.1,1l-12.7,5.5c-0.7-1.2-1.9-2-3.3-2.1l-1-8.6l3.4-1.6c0.9,1.5,2.6,2.5,4.5,2.5c2.9,0,5.2-2.3,5.2-5.2 c0-2.9-2.3-5.2-5.2-5.2c-0.3,0-0.5,0-0.8,0.1l-0.4-1.4l5.8-3.3c0.7,1,1.9,1.6,3.2,1.6c0.2,0,0.4,0,0.6,0l3.3,12.5 C86.3,71.8,85.3,73.4,85.3,75.4z"></path> </g> </svg> 