<?xml version="1.0" encoding="UTF-8"?> <svg xmlns="http://www.w3.org/2000/svg" width="68" height="69" viewBox="0 0 68 69" fill="none"><path d="M55.1913 25.5291C52.0884 25.5291 48.9855 24.3219 46.6147 21.9253C44.3311 19.5997 43.0586 16.493 43.0586 13.1911C43.0586 9.88911 44.3137 6.80017 46.6147 4.45683C51.3388 -0.354101 59.0263 -0.354101 63.7678 4.45683C68.4919 9.26777 68.4919 17.0966 63.7678 21.9253C61.3971 24.3219 58.2942 25.5291 55.1913 25.5291ZM55.1913 2.61057C52.5416 2.61057 49.8745 3.64022 47.8524 5.69951C45.9 7.68779 44.8192 10.3507 44.8192 13.1733C44.8192 15.996 45.9 18.6589 47.8524 20.6471C51.8966 24.7657 58.4859 24.7657 62.5301 20.6471C66.5744 16.5286 66.5744 9.8181 62.5301 5.69951C60.508 3.64022 57.8409 2.61057 55.1913 2.61057Z" fill="#366AAF"></path><path d="M12.7602 68.7386C9.65733 68.7386 6.55443 67.5314 4.18368 65.1348C-0.540393 60.3239 -0.540393 52.495 4.18368 47.6663C8.90775 42.8554 16.5953 42.8554 21.3368 47.6663C26.0783 52.4772 26.0608 60.3061 21.3368 65.1348C18.966 67.5314 15.8631 68.7386 12.7602 68.7386ZM5.42135 48.9267C1.37713 53.0453 1.37713 59.7558 5.42135 63.8744C9.46557 67.993 16.0549 67.993 20.0991 63.8744C24.1433 59.7558 24.1433 53.0453 20.0991 48.9267C16.0549 44.7904 9.46557 44.7904 5.42135 48.9267Z" fill="#366AAF"></path><path d="M55.1899 68.7389C52.087 68.7389 48.9841 67.5317 46.6134 65.1351C41.8893 60.3242 41.8893 52.4953 46.6134 47.6666C51.3374 42.8379 59.025 42.8557 63.7665 47.6666C68.4905 52.4776 68.4905 60.3064 63.7665 65.1351C61.3957 67.5317 58.2928 68.7389 55.1899 68.7389ZM55.1899 45.8204C52.5402 45.8204 49.8731 46.85 47.851 48.9093C43.8068 53.0279 43.8068 59.7383 47.851 63.8569C51.8953 67.9755 58.4846 67.9755 62.5288 63.8569C66.573 59.7383 66.573 53.0279 62.5288 48.9093C60.5067 46.85 57.8396 45.8204 55.1899 45.8204Z" fill="#366AAF"></path><path d="M12.7602 25.5291C9.65733 25.5291 6.55443 24.3219 4.18368 21.9253C-0.540393 17.1144 -0.540393 9.28552 4.18368 4.45683C8.90775 -0.354101 16.5953 -0.354101 21.3368 4.45683C23.6204 6.78242 24.8929 9.88911 24.8929 13.1911C24.8929 16.493 23.6378 19.582 21.3368 21.9253C18.966 24.3219 15.8631 25.5291 12.7602 25.5291ZM12.7602 2.61057C10.1106 2.61057 7.44346 3.64022 5.42135 5.69951C1.37713 9.8181 1.37713 16.5286 5.42135 20.6471C9.46557 24.7657 16.0549 24.7657 20.0991 20.6471C22.0515 18.6589 23.1323 15.996 23.1323 13.1733C23.1323 10.3507 22.0515 7.68779 20.0991 5.69951C18.077 3.64022 15.4099 2.61057 12.7602 2.61057Z" fill="#366AAF"></path><path d="M4.44452 43.974C2.75362 38.3109 2.66646 32.2751 4.18304 26.541L5.85651 27.0026C4.40966 32.4171 4.49682 38.0979 6.10056 43.4592L4.44452 43.974Z" fill="#366AAF"></path><path d="M33.9578 66.2357C30.9246 66.2357 27.8915 65.7742 24.9629 64.8688L25.4684 63.1646C30.7329 64.7978 36.3111 64.8688 41.6279 63.4131L42.0811 65.1173C39.414 65.8629 36.6772 66.2357 33.9578 66.2357Z" fill="#366AAF"></path><path d="M63.2088 44.8616L61.5527 44.2935C63.4877 38.4707 63.5748 32.0088 61.8142 26.1149L63.4877 25.6001C65.3703 31.849 65.2658 38.6837 63.2088 44.8616Z" fill="#366AAF"></path><path d="M24.6301 6.69344L24.0723 5.00695C30.1386 2.9299 36.8499 2.82338 42.986 4.7229L42.4805 6.42715C36.693 4.61639 30.3478 4.72291 24.6301 6.69344Z" fill="#366AAF"></path></svg> 