<?xml version="1.0" encoding="UTF-8"?> <svg xmlns="http://www.w3.org/2000/svg" width="64" height="66" viewBox="0 0 64 66" fill="none"><path d="M31.4435 65.6336C25.9031 65.6336 18.3008 65.6336 18.3008 57.5113C18.3008 50.3572 24.0743 44.7451 31.4435 44.7451C38.8128 44.7451 44.5862 50.3572 44.5862 57.5113C44.5862 65.6336 37.0018 65.6336 31.4435 65.6336ZM31.4435 46.5381C25.0783 46.5381 20.0938 51.3613 20.0938 57.5113C20.0938 62.8903 23.7515 63.8406 31.4435 63.8406C39.1355 63.8406 42.7932 62.8903 42.7932 57.5113C42.7932 51.3613 37.8087 46.5381 31.4435 46.5381Z" fill="#366AAF"></path><path d="M31.4432 44.9423C27.6062 44.9423 24.4863 41.3563 24.4863 36.9455C24.4863 32.5347 27.6062 28.9487 31.4432 28.9487C35.2802 28.9487 38.4001 32.5347 38.4001 36.9455C38.4001 41.3563 35.2802 44.9423 31.4432 44.9423ZM31.4432 30.7597C28.5923 30.7597 26.2793 33.5388 26.2793 36.9635C26.2793 40.3881 28.5923 43.1673 31.4432 43.1673C34.2941 43.1673 36.607 40.3881 36.607 36.9635C36.607 33.5388 34.2941 30.7597 31.4432 30.7597Z" fill="#366AAF"></path><path d="M13.1544 60.9002C7.61406 60.9002 0.0117188 60.9002 0.0117188 52.7779C0.0117188 45.6238 5.7852 40.0117 13.1544 40.0117C17.3859 40.0117 21.223 41.8585 23.6973 45.1039L22.2808 46.1976C20.1472 43.4184 16.8122 41.8227 13.1544 41.8227C6.78928 41.8227 1.80472 46.6458 1.80472 52.7958C1.80472 58.1749 5.46246 59.1252 13.1544 59.1252C13.9434 59.1252 14.6964 59.1252 15.4495 59.0893L15.5033 60.8823C14.7323 60.9002 13.9613 60.9002 13.1544 60.9002Z" fill="#366AAF"></path><path d="M13.1541 40.2089C9.3171 40.2089 6.19727 36.6229 6.19727 32.2121C6.19727 27.8013 9.3171 24.2153 13.1541 24.2153C16.9912 24.2153 20.111 27.8013 20.111 32.2121C20.111 36.6229 16.9912 40.2089 13.1541 40.2089ZM13.1541 26.0263C10.3032 26.0263 7.99027 28.8054 7.99027 32.2301C7.99027 35.6547 10.3032 38.4339 13.1541 38.4339C16.005 38.4339 18.318 35.6547 18.318 32.2301C18.318 28.8054 16.005 26.0263 13.1541 26.0263Z" fill="#366AAF"></path><path d="M49.9823 60.9001C49.1755 60.9001 48.4045 60.9001 47.6335 60.8642L47.6873 59.0712C48.4224 59.0892 49.1934 59.1071 49.9823 59.1071C57.6743 59.1071 61.3321 58.1568 61.3321 52.7778C61.3321 46.6278 56.3475 41.8046 49.9823 41.8046C46.3246 41.8046 42.9896 43.4004 40.8559 46.1795L39.4395 45.0858C41.9138 41.8584 45.7688 39.9937 49.9823 39.9937C57.3516 39.9937 63.1251 45.6058 63.1251 52.7599C63.1251 60.9001 55.5227 60.9001 49.9823 60.9001Z" fill="#366AAF"></path><path d="M49.9823 40.2089C46.1452 40.2089 43.0254 36.6229 43.0254 32.2121C43.0254 27.8013 46.1452 24.2153 49.9823 24.2153C53.8193 24.2153 56.9391 27.8013 56.9391 32.2121C56.9391 36.6229 53.8193 40.2089 49.9823 40.2089ZM49.9823 26.0263C47.1314 26.0263 44.8184 28.8054 44.8184 32.2301C44.8184 35.6547 47.1314 38.4339 49.9823 38.4339C52.8331 38.4339 55.1461 35.6547 55.1461 32.2301C55.1461 28.8054 52.8331 26.0263 49.9823 26.0263Z" fill="#366AAF"></path><path d="M31.4422 19.8404C26.1528 19.8404 21.8496 15.5372 21.8496 10.2479C21.8496 4.95849 26.1528 0.655273 31.4422 0.655273C36.7316 0.655273 41.0348 4.95849 41.0348 10.2479C41.0348 15.5372 36.7316 19.8404 31.4422 19.8404ZM31.4422 2.46621C27.139 2.46621 23.6426 5.96257 23.6426 10.2658C23.6426 14.569 27.139 18.0654 31.4422 18.0654C35.7454 18.0654 39.2418 14.569 39.2418 10.2658C39.2418 5.96257 35.7454 2.46621 31.4422 2.46621Z" fill="#366AAF"></path><path d="M31.4427 15.3402C28.9863 15.3402 26.9961 13.35 26.9961 10.8936H28.7891C28.7891 12.3638 29.9725 13.5472 31.4427 13.5472C32.5185 13.5472 33.4688 12.9197 33.8812 11.9335C34.0247 11.6108 34.0964 11.2522 34.0964 10.8936H35.8894C35.8894 11.4852 35.7639 12.0769 35.5487 12.6328C34.8495 14.2644 33.2358 15.3402 31.4427 15.3402Z" fill="#366AAF"></path><path d="M29.7393 8.04259C28.9145 7.23574 28.2869 7.23574 27.4621 8.04259L26.207 6.75162C27.7311 5.28136 29.4703 5.28136 30.9764 6.75162L29.7393 8.04259Z" fill="#366AAF"></path><path d="M35.4404 8.04259C34.6156 7.23574 33.9881 7.23574 33.1633 8.04259L31.9082 6.75162C33.4323 5.28136 35.1715 5.28136 36.6776 6.75162L35.4404 8.04259Z" fill="#366AAF"></path><path d="M21.0618 13.2241C16.5793 14.9633 13.0471 17.7784 11.1465 21.203L21.0618 13.2241Z" fill="white"></path><path d="M11.9173 21.6333L10.3574 20.7547C12.3477 17.1866 16.0412 14.2102 20.7389 12.3813L21.3844 14.0488C17.0633 15.7343 13.7103 18.4238 11.9173 21.6333Z" fill="#366AAF"></path><path d="M51.7571 21.1849C49.8565 17.7603 46.3064 14.9453 41.8418 13.2061L51.7571 21.1849Z" fill="white"></path><path d="M50.9866 21.6334C49.1936 18.4239 45.8407 15.7344 41.5195 14.0669L42.165 12.3994C46.8627 14.2283 50.5563 17.2047 52.5465 20.7727L50.9866 21.6334Z" fill="#366AAF"></path></svg> 