<?xml version="1.0" encoding="UTF-8"?> <svg xmlns="http://www.w3.org/2000/svg" width="69" height="56" viewBox="0 0 69 56" fill="none"><path d="M68.7622 55.5933H13.4863V13.2246H68.7622V55.5933ZM15.3148 53.8003H66.9337V15.0176H15.3148V53.8003Z" fill="#366AAF"></path><path d="M27.5293 41.3745H18.3867V43.1675H27.5293V41.3745Z" fill="#366AAF"></path><path d="M42.5784 41.375H31.0039V43.168H42.5784V41.375Z" fill="#366AAF"></path><path d="M56.09 43.1677H46.0332V41.3747H54.2615V33.3062H56.09V43.1677Z" fill="#366AAF"></path><path d="M56.0902 18.0298H54.2617V26.9948H56.0902V18.0298Z" fill="#366AAF"></path><path d="M10.4324 43.1675H0.814453V0.798828H56.0903V10.2121H54.2618V2.59183H2.64296V41.3745H10.4324V43.1675Z" fill="#366AAF"></path><path d="M34.1165 13.493L13.7656 33.4487L15.0586 34.7166L35.4094 14.7609L34.1165 13.493Z" fill="#366AAF"></path><path d="M38.4271 13.5622L13.7578 37.7524L15.0508 39.0203L39.72 14.83L38.4271 13.5622Z" fill="#366AAF"></path><path d="M32.2112 24.4772L23.5098 33.0098L24.8027 34.2776L33.5042 25.7451L32.2112 24.4772Z" fill="#366AAF"></path></svg> 