<?xml version="1.0" encoding="UTF-8"?> <svg xmlns="http://www.w3.org/2000/svg" width="40" height="62" viewBox="0 0 40 62" fill="none"><path d="M27.7003 61.8725C23.935 61.8725 20.4207 60.0257 18.287 56.9238C17.1933 55.346 15.8127 53.4992 14.3245 51.5448C8.24617 43.5121 0.679688 33.5251 0.679688 24.5959C0.679688 11.4711 11.3481 0.802734 24.4729 0.802734C30.1388 0.802734 35.6254 2.82883 39.9286 6.50449L38.7631 7.86718C34.7826 4.46047 29.7084 2.59574 24.4729 2.59574C12.3342 2.59574 2.47269 12.4752 2.47269 24.5959C2.47269 32.9155 10.1468 43.0639 15.7409 50.469C17.2291 52.4413 18.6456 54.2881 19.7573 55.9197C21.5503 58.5375 24.5087 60.0974 27.6823 60.0974C32.9896 60.0974 37.3108 55.7763 37.3108 50.469H39.1038C39.1217 56.7624 33.9937 61.8725 27.7003 61.8725Z" fill="#366AAF"></path><path d="M35.6795 42.9024C30.1032 42.9024 25.5669 38.3661 25.5669 32.7898C25.5669 27.5363 29.6012 23.1972 34.7471 22.7311C34.3168 17.4596 29.8701 13.2998 24.4911 13.2998C18.8252 13.2998 14.1993 17.9079 14.1993 23.5917H12.4062C12.4062 16.9217 17.8211 11.5068 24.4911 11.5068C31.1611 11.5068 36.576 16.9217 36.576 23.5917V24.4882H35.6795C31.0894 24.4882 27.3599 28.2176 27.3599 32.8077C27.3599 37.3978 31.0894 41.1273 35.6795 41.1273V42.9024Z" fill="#366AAF"></path></svg> 