<?xml version="1.0" encoding="UTF-8"?> <svg xmlns="http://www.w3.org/2000/svg" width="1293" height="503"><g fill="none" fill-rule="evenodd"><path d="M0 0h1293v503H0z"></path><g fill="#000" fill-rule="nonzero"><path d="M419.08 189.6c-33.977 0-61.58 27.603-61.58 61.58 0 33.979 27.603 61.582 61.58 61.582 33.979 0 61.582-27.603 61.582-61.581S453.059 189.6 419.08 189.6zm0 116.99c-30.586 0-55.408-24.89-55.408-55.41 0-30.518 24.822-55.408 55.409-55.408s55.41 24.89 55.41 55.409-24.823 55.41-55.41 55.41z"></path><path d="M441.055 211.71a1.367 1.367 0 0 0-.746-.204c-.814 0-1.425.61-1.425 1.424v19.261c0 .678-.542 1.22-1.22 1.22h-37.302c-.678 0-1.152-.542-1.22-1.22v-19.26c0-.272-.068-.476-.204-.747a1.43 1.43 0 0 0-1.967-.475c-13.767 8.478-22.109 23.195-22.109 39.472s8.342 30.994 22.245 39.471c.204.136.475.204.746.204.814 0 1.424-.61 1.424-1.424V270.17c0-.679.543-1.153 1.221-1.221H437.8c.678 0 1.221.542 1.221 1.22v19.262c0 .27.068.474.204.746a1.43 1.43 0 0 0 1.966.474c13.903-8.477 22.245-23.194 22.245-39.471 0-16.277-8.477-30.994-22.38-39.472zm-48.967 63.615l.204 2.306-1.492-1.831c-11.462-14.446-11.462-34.86 0-49.306l1.288-1.627.204-.204-.204 2.374c-.203 1.899-.27 3.866-.27 5.832v36.556c0 1.966.135 3.933.27 5.9zm46.796-14.92c0 .678-.542 1.22-1.22 1.22h-37.302c-.678 0-1.152-.542-1.22-1.22v-18.448c0-.678.542-1.22 1.22-1.22h37.302c.678 0 1.22.542 1.22 1.22v18.447zm8.41 15.395l-1.492 1.83.204-2.305c.203-1.9.27-3.866.27-5.833V232.87c0-1.966-.067-3.933-.27-5.832l-.068-1.017-.068-1.086v-.27l1.424 1.83c5.561 6.918 8.613 15.735 8.613 24.619 0 8.885-3.052 17.769-8.613 24.687zm126.282-25.705c-.34-.135-.746-.271-.746-.678 0-.271.135-.475.407-.61.474-.204 12.207-4.409 12.207-18.244 0-15.395-10.376-24.55-27.874-24.55h-42.388v90.471h46.254c13.496 0 28.01-9.562 28.01-24.957 0-14.718-11.123-19.872-15.87-21.432zm-37.03-25.568c0-.34.271-.61.61-.61h16.82c5.56 0 9.359 3.73 9.359 9.291 0 4.34-3.391 9.02-9.766 9.02h-16.413a.608.608 0 0 1-.61-.61v-17.091zm17.43 54.12h-16.82a.608.608 0 0 1-.61-.61v-18.04c0-.34.271-.61.61-.61h16.413c8.07 0 12.682 3.459 12.682 9.562 0 6.308-4.273 9.699-12.275 9.699zm178.638-36.622l-3.255-.679c-7.325-1.56-14.446-3.526-14.446-9.833 0-6.308 5.9-9.156 11.733-9.156 6.85 0 13.632 3.052 18.786 8.342l13.429-13.293c-5.765-6.375-16.006-13.7-32.554-13.7-19.94 0-33.367 11.326-33.367 28.213 0 17.837 14.038 24.551 25.84 27.06l3.187.679c11.461 2.441 16.887 4.273 16.887 10.783 0 5.833-5.222 9.699-12.954 9.699-9.088 0-17.158-4.002-23.262-11.53l-13.768 13.496c7.325 8.681 17.023 16.549 37.301 16.549 17.295 0 34.86-10.038 34.86-29.299-.068-19.735-13.496-24.212-28.417-27.331zm178.707-36.013v33.096c0 .34-.271.61-.61.61h-27.807a.608.608 0 0 1-.61-.61v-33.096h-22.788v90.472h22.788v-35.537c0-.34.271-.61.61-.61h27.807c.339 0 .61.27.61.61v35.537h22.923v-90.472h-22.923zM813.66 277.97c-10.241 0-21.296-8.545-21.296-27.331 0-17.159 10.377-26.111 20.618-26.111 7.46 0 12.682 3.12 16.819 10.037l17.498-11.597c-8.953-13.157-19.6-19.125-34.453-19.125-29.095 0-42.117 23.533-42.117 46.796 0 28.28 17.227 48.017 41.846 48.017 18.311 0 26.653-6.715 35.402-19.126l-17.633-11.868c-3.934 6.375-8.207 10.308-16.684 10.308zm-173.01-74.263c-24.89 0-41.574 19.058-41.574 47.474 0 28.417 16.684 47.475 41.574 47.475 24.89 0 41.574-19.058 41.574-47.475 0-28.416-16.684-47.474-41.574-47.474zm0 74.263c-12.208 0-20.075-10.512-20.075-26.789 0-16.209 7.867-26.653 20.075-26.653 12.276 0 20.21 10.444 20.21 26.653 0 16.277-7.934 26.79-20.21 26.79z"></path></g></g></svg> 