<?xml version="1.0" encoding="UTF-8"?> <svg xmlns="http://www.w3.org/2000/svg" width="1293" height="503"><g fill="none" fill-rule="evenodd"><path d="M0 0h1293v503H0z"></path><path fill="#121214" fill-rule="nonzero" d="M460.424 220.901c-.368-1.239-3.542-7.584-3.542-7.584l32.949.014c11.035 0 24.556.977 31.248 8.596 5.386 6.132 5.866 15.785 1.449 29.505-11.403 35.487-36.27 38.423-62.192 38.423H438.57l21.854-68.954zm6.282 59.588c9.188-.046 17.084-1.533 21.875-4.676 6.111-4.028 10.336-11.028 14.567-24.167 3.752-11.69 5.352-20.167 1.327-24.735-2.674-3.062-9.107-4.54-17.378-4.54-.374 0-.745 0-1.092.003 0 0-3.52-.066-7.035.364l-17.356 54.26s-.924 3.49 3.24 3.49m91.116.005l34.843.035-3 9.33h-58.012l21.85-68.953c-.364-1.242-3.475-7.598-3.475-7.598h61.67l-3.003 9.33H570.2l-7.259 22.67h25.575l-3.003 9.356h-25.557l-7.063 22.144s-.963 3.595 3.076 3.686m59.693 9.362l17.535-56.329 21.178 56.329h16.426l24.601-76.552h-13.261l-16.79 53.592-.259-.623-19.722-52.969h-25.127s3.115 6.356 3.48 7.599l-21.855 68.953m158.344-63.753c-3.028-1.386-10.206-4.508-20.461-4.627-2.947-.022-10.056.812-12.446 8.274-2.023 6.283 4.75 9.664 12.603 13.566 10.06 5.012 21.452 10.7 17.035 24.441-4.757 14.802-20.213 23.615-42.389 23.282-16.16-.238-24.048-3.252-24.048-3.252l4.511-14.094 3.27 1.869c3.226 1.841 11.77 6.139 21.332 6.139 3.199 0 7.717-.581 11.354-2.835 2.6-1.61 4.452-4.249 5.52-7.574 2.187-6.814-4.775-10.342-12.846-14.438-9.824-4.977-20.968-10.619-16.653-23.985 1.757-5.516 5.51-10.269 10.822-13.758 6.93-4.558 14.784-6.885 27.377-6.966 8.845-.045 17.437 1.124 21.042 2.069l1.34.378-.5 1.635-2.558 7.945-1.092 3.412m10.174 24.294c5.033-15.653 11.886-25.911 21.602-32.288 8.019-5.264 17.808-7.826 29.936-7.826 11.57 0 19.418 2.524 23.978 7.697 5.68 6.481 5.996 16.771.966 32.416-5.456 16.972-16.639 39.561-50.568 39.561-12.036 0-20.153-2.58-24.815-7.892-5.638-6.409-5.981-16.489-1.099-31.668m28.949 30.12c4.795 0 8.876-1.057 12.355-3.45 7.962-5.415 12.435-16.626 15.673-26.67 3.52-10.984 6.132-21.886 1.403-27.283-2.016-2.282-5.25-3.406-9.887-3.406-16.807 0-23.863 14.746-28.977 30.689-2.761 8.592-5.859 20.709-.731 26.544 2.114 2.404 5.435 3.577 10.164 3.577"></path></g></svg> 