<?xml version="1.0" encoding="UTF-8"?> <svg xmlns="http://www.w3.org/2000/svg" height="503" width="1293"><g fill="none" fill-rule="evenodd"><path d="M0 0h1293v503H0z"></path><g fill="#131415" fill-rule="nonzero"><path d="M915.4 207.7C932.6 215.4 934 224 934 233c0 30.6-109.4 51.3-253.2 54.3V197c0-1.7-1.4-3.1-3.1-3.1s-3.1 1.4-3.1 3.1v90.4c-9.6.2-19.4.2-29.3.2-12.5 0-24.8-.1-36.9-.4v-90.3c0-1.7-1.4-3.1-3.1-3.1s-3.1 1.4-3.1 3.1V287c-138.3-3.4-243.6-24-243.6-54 0-9 1.3-17.6 18.6-25.3-24.9 10.5-30.9 18.4-30.9 31.3 0 39.3 134 70.1 297.8 70.4h2.1c166.1-.3 300.1-31.1 300.1-70.4 0-12.9-6-20.9-30.9-31.3z"></path><path d="M420.2 247.1v-41.7l-3.9-4H446v9l-5.3-5.3h-15v17.3h11.2l4-3.9v11.6l-4-4h-11.3V247l4 4h-13.3zm43.4 0v-41.7l-3.9-4H473l-4 4V247h11.9l5.4-5.4v9.4h-26.6zm36 3.9l3.9-4v-41.7l-3.9-4h29.7v9L524 205h-15v17.6h11.2l3.9-3.9v11.6l-3.9-4H509v20.8h15l5.3-5.4v9.1zm43.1-49.6h10.8v3.8l9.2 15.9 10.1-15.8-3.9-3.9h12.6l-4 4-12.5 19.7 12.9 21.9 3.9 4H571v-3.8l-9.6-16.6-10.4 16.5 3.9 3.9h-12.6l4-4 12.8-20.2-12.5-21.3zm87 44.3l5.4 5.3h-16.5l5.3-5.3v-39l-5.3-5.3h13.8L653 231v-24.3l-5.3-5.3h16.4l-5.3 5.3v50.1l-29.1-42zm99.9-21.2h13.3l-3.9 4v19.6c-2.7 1.8-6 3.6-13.6 3.6-13.5 0-23-12.4-23-25.5 0-13.4 9.5-25.5 23-25.5 5.6 0 8.6 1.3 11.5 2.9v8.6l-5.5-5.4c-1.7-1.8-3.5-2.3-6.1-2.3-9.6 0-16.5 11-16.5 21.8 0 10.7 5.5 21.8 16.5 21.8 4.6 0 7-2.3 8.2-3.5v-16zm34.9 26.5h-11.9l4-4 15.7-45.6h2.5l15.5 45.6 4 4h-14l3.9-3.9-3.5-10.5h-16.4l-3.6 10.5zm1-18h13.9l-6.8-20.5zm58.1 18h-13.3l3.9-4v-41.9h-9.3l-5.4 5.3v-9h34.9v9l-5.3-5.3h-9.4v42zm23 0l3.9-4v-41.7l-3.9-4h29.7v9L871 205h-15v17.6h11.2l4-3.9v11.6l-4-4H856v20.8h15l5.3-5.4v9.1z"></path></g></g></svg> 