<?xml version="1.0" encoding="UTF-8"?> <svg xmlns="http://www.w3.org/2000/svg" width="1293" height="503"><path d="M471.121 213.908h37.273l13.748 52.345h.929a110.57 110.57 0 0 1 2.513-13.21l11.229-39.135H573.7l16.386 99.669h-35.025l-4.9-54.591h-.656a83.234 83.234 0 0 1-2.38 9.911l-14.407 44.682h-21.146l-12.953-42.173a68.3 68.3 0 0 1-2.253-12.422h-1.191c-.259 3.967-.523 8.062-.921 12.021l-4.234 42.571h-35.026z"></path><path d="M643.7 277.492l-4.228-17.582c-1.057-4.235-1.721-8.594-2.385-12.824h-1.316l-6.613 30.406zm-23.929 36.085h-38.335l34.629-99.669h40.057l35.56 99.669h-38.339l-3.3-12.43h-27.37zm170.376-58.691c-.272 16.26-.272 29.873-12.035 42.558-10.577 11.506-26.829 17.719-42.3 17.719-30.4 0-54.983-18.771-54.983-50.761 0-32.514 23.919-52.081 55.25-52.081 17.316 0 41.113 8.594 48.905 25.646L751.149 250.4c-2.774-5.024-7.927-7.669-13.747-7.669-12.946 0-20.092 11.1-20.092 23.129 0 10.967 6.875 21.282 18.637 21.282 5.689 0 12.958-2.645 14.672-8.724h-16.387v-23.532zm2.705-40.978h34.77l32.513 55.256h1.053c-1.448-8.329-3.038-16.922-3.038-25.38v-29.876h34.629v99.669H858.15l-31.85-52.343h-1.056c1.185 6.868 2.244 13.348 2.244 19.962v32.381h-34.637v-99.669z"></path><path d="M951.412 277.492l-4.234-17.582c-1.055-4.235-1.716-8.594-2.381-12.824h-1.319l-6.61 30.406zm-23.926 36.085h-38.333l34.627-99.669h40.054l35.557 99.669h-38.333l-3.3-12.43H930.4zm-527.738.098h37.556l-36.168-99.5h-27.492l-5.053 13.848zm-25.47-141.838a18.245 18.245 0 1 0 18.241 18.249 18.242 18.242 0 0 0-18.238-18.246m-80.672 141.835h55.985l-28-76.858zm62.336 0H393.5l-36.176-99.5h-27.489l-5.046 13.848z"></path></svg> 