<?xml version="1.0" encoding="UTF-8"?> <svg xmlns="http://www.w3.org/2000/svg" height="503" width="1293"><g fill="none" fill-rule="evenodd"><path d="m0 0h1293v503h-1293z" fill="none"></path><path d="m759.635 251.5c0-62.537-50.72-113.135-113.135-113.135-62.537 0-113.135 50.68-113.135 113.135 0 62.537 50.72 113.135 113.135 113.135s113.135-50.68 113.135-113.135m-202.717-49.258h55.106l-45.441 112.323h160.24c-18.68 23.796-47.755 39.024-80.404 39.024-56.446 0-102.211-45.765-102.211-102.21.081-17.747 4.63-34.518 12.71-49.137m155.042 48.852v-13.807h-27.694v-34.964h51.653c8.081 14.62 12.63 31.39 12.63 49.258s-4.549 34.639-12.63 49.258h-130.758l45.36-112.322h-84.425c18.68-23.797 47.755-39.025 80.404-39.025 32.568 0 61.643 15.269 80.404 39.025h-73.054v102.17h30.497v-39.593z" fill="#000" fill-rule="nonzero"></path></g></svg> 