<?xml version="1.0" encoding="UTF-8"?> <svg xmlns="http://www.w3.org/2000/svg" version="1.1" viewBox="0 0 290.7 60"><defs><style> .cls-1 { fill: #fff; } .cls-2 { fill: #56575b; } .cls-3 { fill: #026299; } .cls-4 { fill: #1599d6; } </style></defs><g><g id="Layer_1"><g><circle class="cls-4" cx="30.1" cy="30" r="27.6"></circle><circle class="cls-3" cx="30.1" cy="30" r="27.6"></circle><g><path class="cls-1" d="M39.4,34.3c-.6-6.1-3.8-11.8-8.6-15.7,0,0,0,0,0,0h0c-3.5-2.8-7.6-4.4-11.9-4.9,3.3-2.3,7.3-3.6,11.4-3.6s10.5,2.2,14.3,6.1c0,0,0,.1.1.1h0c2.2,2.4,3.8,5.3,4.7,8.4-2.2,4.2-5.7,7.6-9.9,9.6h0Z"></path><path class="cls-1" d="M24.5,49.1c-8.4-2.5-14.3-10.3-14.3-19.1s.1-2.6.4-3.9c0,0,0-.2,0-.3.8-3.6,2.5-6.8,5-9.5,0,0,.1-.1.2-.2.3-.4.7-.7,1.1-1,4.4,0,8.5,1.5,12.1,4.1-4.7,4.1-7.6,10-8,16.2,0,0,0,.1,0,.2,0,.3,0,.7,0,1.1,0,4.3,1.2,8.6,3.5,12.3,0,0,0,0,0,0h0Z"></path><path class="cls-1" d="M30.1,49.9c-1.1,0-2.2,0-3.3-.3-.3-.4-.5-.8-.8-1.1v-.2c-2.3-3.4-3.5-7.4-3.5-11.5,2.4.8,5,1.3,7.6,1.3s6-.6,8.8-1.7h0s.1,0,.2,0c4.4-1.8,8.2-5.1,10.7-9.1.1.9.2,1.9.2,2.9,0,9-6.1,16.9-14.8,19.2,0,0-.2,0-.2,0-.3,0-.6.1-.9.2h-.3c-1.2.3-2.5.4-3.8.4h0Z"></path></g><rect class="cls-3" x="268.1" y="12.7" width="20" height="5"></rect><polygon class="cls-3" points="288.2 42.8 288.2 47.8 268.1 47.8 268.1 27.8 285.7 27.8 285.7 32.7 273.2 32.7 273.2 42.8 288.2 42.8"></polygon><path class="cls-2" d="M102.4,37.5c0,6.1-5.1,10.7-13.2,10.7s-12.9-5.1-13.5-5.7l2.5-4.5c2.9,3.2,6.9,5.2,11.1,5.2s8.1-2.1,8.1-5.5-3.2-4.5-8-5.4c-9.8-1.7-12.5-5.2-12.5-9.9s4.4-10.2,12.6-10.2,7,.2,11.3,4.2l-2.4,4.5c-1.8-1.8-4.6-3.7-9-3.7s-7.5,1.8-7.5,5,2.4,4,7.9,5.1c8.3,1.6,12.6,4.3,12.6,10.2h0Z"></path><path class="cls-2" d="M134,23.9c0,6.6-4.4,11.7-11.8,11.7h-7.4v12.1h-5v-17.1h12.5c3.7,0,6.7-1.9,6.7-6.4s-3.4-6.5-7-6.5h-12.2v-5h10.8c9.1,0,13.4,4.6,13.4,11.2h0Z"></path><path class="cls-2" d="M142,12.7h5v35h-5V12.7Z"></path><path class="cls-2" d="M186.3,12.7v35.9l-29.2-29.8v-6.9l24.2,24.8V12.7h5ZM157.1,23l5,5v19.7h-5v-24.7Z"></path><path class="cls-3" d="M215.1,12.7v5h-20v-5h20ZM195,27.8h17.5v4.9h-12.5v15h-5v-20h0Z"></path><path class="cls-3" d="M222.6,12.7h5v35h-5V12.7Z"></path><path class="cls-3" d="M261.9,47.8h-5.8l-8.7-12.1h-5.5v12.1h-5v-17.1h12.5c3.7,0,6.7-1.9,6.7-6.4s-3-6.5-6.6-6.5h-12.6v-5h10.8c9.1,0,13.4,4.6,13.4,11.2s-3,9.9-8.2,11.3l9,12.6h0Z"></path></g></g></g></svg> 