<?xml version="1.0" encoding="UTF-8"?> <svg xmlns="http://www.w3.org/2000/svg" width="71" height="60" viewBox="0 0 71 60" fill="none"><circle cx="23" cy="16" r="14.5" stroke="#186FE0" stroke-width="3"></circle><circle cx="23" cy="10" r="2.5" fill="#186FE0" stroke="#186FE0" stroke-width="3"></circle><circle cx="50" cy="7" r="3.5" fill="#186FE0" stroke="#186FE0" stroke-width="3"></circle><circle cx="5" cy="42" r="3.5" fill="#186FE0" stroke="#186FE0" stroke-width="3"></circle><path d="M28.5 21.4286C28.5 22.0958 28.3546 22.4352 28.2249 22.6188C28.0965 22.8005 27.8772 22.9799 27.4486 23.1319C26.4796 23.4754 25.0297 23.5 23 23.5C20.9703 23.5 19.5204 23.4754 18.5514 23.1319C18.1228 22.9799 17.9035 22.8005 17.7751 22.6188C17.6454 22.4352 17.5 22.0958 17.5 21.4286C17.5 18.8243 19.8396 16.5 23 16.5C26.1604 16.5 28.5 18.8243 28.5 21.4286Z" fill="#186FE0" stroke="#186FE0" stroke-width="3"></path><circle cx="32" cy="48" r="10.5" stroke="#186FE0" stroke-width="3"></circle><circle cx="32" cy="44.5" r="1.5" fill="#186FE0" stroke="#186FE0" stroke-width="2"></circle><path d="M34.5 51.8571C34.5 52.0199 34.4827 52.123 34.4673 52.1821C34.4598 52.2112 34.4527 52.2295 34.4482 52.2395C34.446 52.2446 34.4442 52.248 34.4431 52.25L34.4416 52.2525L34.4406 52.2535C34.4393 52.2546 34.437 52.2564 34.4335 52.259C34.4195 52.2692 34.3821 52.293 34.3052 52.3216C34.1371 52.3842 33.8688 52.4384 33.4492 52.4686C33.0341 52.4985 32.5633 52.5 32 52.5C31.4367 52.5 30.9659 52.4985 30.5508 52.4686C30.1312 52.4384 29.8629 52.3842 29.6948 52.3216C29.6179 52.293 29.5805 52.2692 29.5665 52.259C29.563 52.2564 29.5607 52.2546 29.5594 52.2535L29.5584 52.2525L29.5569 52.25C29.5558 52.248 29.554 52.2446 29.5518 52.2395C29.5473 52.2295 29.5402 52.2112 29.5327 52.1821C29.5173 52.123 29.5 52.0199 29.5 51.8571C29.5 50.6063 30.5674 49.5 32 49.5C33.4326 49.5 34.5 50.6063 34.5 51.8571Z" fill="#186FE0" stroke="#186FE0" stroke-width="3"></path><circle cx="59" cy="30" r="10.5" stroke="#186FE0" stroke-width="3"></circle><circle cx="59" cy="26.5" r="1.375" fill="#186FE0" stroke="#186FE0" stroke-width="2.25"></circle><path d="M61.875 33.8571C61.875 34.2345 61.7964 34.3971 61.7524 34.4625C61.7124 34.5218 61.6364 34.5985 61.436 34.6731C60.9444 34.856 60.18 34.875 59 34.875C57.82 34.875 57.0556 34.856 56.564 34.6731C56.3636 34.5985 56.2876 34.5218 56.2476 34.4625C56.2036 34.3971 56.125 34.2345 56.125 33.8571C56.125 32.3864 57.3733 31.125 59 31.125C60.6267 31.125 61.875 32.3864 61.875 33.8571Z" fill="#186FE0" stroke="#186FE0" stroke-width="2.25"></path><path d="M5 42L15 28.5" stroke="#186FE0" stroke-width="3"></path><path d="M27 30L29 38" stroke="#186FE0" stroke-width="3"></path><path d="M37.5 12.5L49.5 7.5" stroke="#186FE0" stroke-width="3"></path><path d="M37 21L43 23.25L49 25.5" stroke="#186FE0" stroke-width="3"></path><path d="M51 37L42 43.5" stroke="#186FE0" stroke-width="3"></path></svg> 