<?xml version="1.0" encoding="UTF-8"?> <svg xmlns="http://www.w3.org/2000/svg" width="55" height="55" viewBox="0 0 55 55" fill="none"><path d="M22.3235 54.9986C10.0147 54.9986 0 44.9839 0 32.675C0 20.3662 10.0147 10.3515 22.3235 10.3515C24.2124 10.3515 26.0911 10.5885 27.9078 11.0556L29.5718 11.4848L28.7149 14.8111L27.0527 14.3835C25.5158 13.9868 23.924 13.7859 22.3235 13.7859C11.9087 13.7859 3.43439 22.2602 3.43439 32.675C3.43439 43.0898 11.9087 51.5642 22.3235 51.5642C32.7383 51.5642 41.2127 43.0898 41.2127 32.675C41.2127 31.0729 41.0118 29.4828 40.6168 27.9442L40.1875 26.2819L43.5137 25.425L43.9413 27.089C44.4101 28.9058 44.6471 30.7844 44.6471 32.675C44.6471 44.9839 34.6324 54.9986 22.3235 54.9986Z" fill="#186FE0"></path><path d="M22.3235 46.4127C14.7489 46.4127 8.58594 40.2497 8.58594 32.6751C8.58594 25.1006 14.7489 18.9376 22.3235 18.9376C29.898 18.9376 36.061 25.1006 36.061 32.6751C36.061 40.2497 29.898 46.4127 22.3235 46.4127ZM22.3235 22.3719C16.6413 22.3719 12.0203 26.9929 12.0203 32.6751C12.0203 38.3573 16.6413 42.9783 22.3235 42.9783C28.0057 42.9783 32.6267 38.3573 32.6267 32.6751C32.6267 26.9929 28.0057 22.3719 22.3235 22.3719Z" fill="#186FE0"></path><path d="M45.212 22.5193L55 12.7313L46.414 11.0141L51.0144 6.41372C51.6858 5.7423 51.6858 4.65703 51.0144 3.98561C50.343 3.31419 49.2577 3.31419 48.5863 3.98561L43.9859 8.58597L42.2687 0L32.4807 9.78629L34.1979 18.3723L24.5318 28.0383C23.8587 27.7172 23.1169 27.5232 22.3235 27.5232C19.4833 27.5232 17.1719 29.8345 17.1719 32.6748C17.1719 35.515 19.4833 37.8264 22.3235 37.8264C25.1638 37.8264 27.4751 35.515 27.4751 32.6748C27.4751 31.8814 27.2811 31.1396 26.9582 30.4682L36.6243 20.8021L45.212 22.5193ZM23.4826 33.9249C23.3349 34.0623 23.1684 34.179 22.9812 34.258C23.1632 34.1842 23.3298 34.0674 23.4826 33.9249ZM21.0683 31.5225C20.9292 31.6737 20.8141 31.8385 20.7385 32.0171C20.8158 31.8316 20.9343 31.6685 21.0683 31.5225ZM21.0683 33.827C20.9343 33.681 20.8175 33.5179 20.7385 33.3325C20.8141 33.511 20.9292 33.6759 21.0683 33.827ZM21.1644 33.9249C21.3172 34.0657 21.4838 34.1825 21.6658 34.258C21.4787 34.1808 21.3121 34.0623 21.1644 33.9249Z" fill="#186FE0"></path></svg> 