<?xml version="1.0" encoding="UTF-8"?> <svg xmlns="http://www.w3.org/2000/svg" width="181" height="172" viewBox="0 0 181 172" fill="none"><path d="M100 43.5L49.9997 126.463" stroke="#186FE0" stroke-width="2"></path><path d="M100 43.5002L129.5 121" stroke="#186FE0" stroke-width="2"></path><path d="M50 126.5L129.5 121" stroke="#186FE0" stroke-width="2"></path><path d="M7.63452 157.065V65.0275C7.63452 58.9372 12.5717 54 18.6621 54H162.02C168.111 54 173.048 58.9372 173.048 65.0275V157.065" stroke="#233741" stroke-width="2"></path><path d="M1 157.345H179.682V160.587C179.682 166.125 175.193 170.614 169.655 170.614H11.0275C5.48948 170.614 1 166.125 1 160.587V157.345Z" stroke="#233741" stroke-width="2"></path><path d="M103.489 157.065L103.489 159.186C103.489 161.06 101.97 162.579 100.096 162.579L80.5861 162.579C78.7121 162.579 77.193 161.06 77.193 159.186L77.193 157.065" stroke="#233741" stroke-width="2"></path><path d="M18.6622 157.065V68.8448C18.6622 66.9708 20.1813 65.4517 22.0553 65.4517H158.627C160.501 65.4517 162.021 66.9708 162.021 68.8448V157.065" stroke="#233741" stroke-width="2"></path><circle cx="99.5" cy="44.5" r="44.5" fill="#186FE0"></circle><ellipse cx="99.9581" cy="30.8171" rx="8.79616" ry="9.04049" fill="#F2F2F2"></ellipse><path d="M114.618 57.5342C114.618 65.6774 108.055 67.2234 99.9581 67.2234C91.8615 67.2234 85.2979 65.6774 85.2979 57.5342C85.2979 49.391 91.8615 42.7897 99.9581 42.7897C108.055 42.7897 114.618 49.391 114.618 57.5342Z" fill="#F2F2F2"></path><circle cx="50" cy="126" r="20" fill="#233741"></circle><circle cx="128.5" cy="120.5" r="23.5" fill="#186FE0"></circle><ellipse cx="50" cy="120.479" rx="3.75" ry="3.85417" fill="#F2F2F2"></ellipse><path d="M56.25 131.869C56.25 135.341 53.4518 136 50 136C46.5482 136 43.75 135.341 43.75 131.869C43.75 128.398 46.5482 125.583 50 125.583C53.4518 125.583 56.25 128.398 56.25 131.869Z" fill="#F2F2F2"></path><ellipse cx="128.5" cy="114.013" rx="4.40625" ry="4.52865" fill="#F2F2F2"></ellipse><path d="M135.844 127.396C135.844 131.475 132.556 132.25 128.5 132.25C124.444 132.25 121.156 131.475 121.156 127.396C121.156 123.317 124.444 120.01 128.5 120.01C132.556 120.01 135.844 123.317 135.844 127.396Z" fill="#F2F2F2"></path><path d="M135.89 150.163L137.334 152.231H138.461L136.488 149.412C136.36 149.231 136.171 149.063 135.874 149.063C135.589 149.063 135.401 149.217 135.267 149.412L133.343 152.231H134.486L134.761 151.824H136.615L136.04 151.023H135.302L135.886 150.16L135.89 150.163Z" fill="#2D2D2D"></path><path d="M142.239 151.43L141.625 152.231H140.083C139.016 152.231 138.23 151.546 138.23 150.642C138.23 149.729 139.016 149.116 140.083 149.116H142.239L141.625 149.926H140.083C139.568 149.926 139.182 150.238 139.182 150.685C139.182 151.133 139.563 151.431 140.083 151.431L142.239 151.43Z" fill="#2D2D2D"></path><path d="M146.39 149.114L145.776 149.925H144.677V152.231H143.724V149.925H142.28L142.894 149.114H146.39Z" fill="#2D2D2D"></path><path d="M151.686 149.114L151.072 149.925H149.194V150.33H151.511L150.932 151.09H149.194V152.231H148.238V149.114H151.686Z" fill="#2D2D2D"></path><path d="M156.412 149.114L154.587 151.201V152.231H153.63V151.196L151.754 149.114H152.977L153.713 149.981C153.81 150.094 154.067 150.377 154.131 150.47C154.191 150.382 154.299 150.244 154.517 149.976L155.217 149.114H156.412Z" fill="#2D2D2D"></path><path d="M147.645 150.135H146.693V152.231H147.645V150.135Z" fill="#2D2D2D"></path><path d="M147.645 149.114H146.693V149.925H147.645V149.114Z" fill="#186FE0"></path><path d="M131.932 149.544L131.472 152.109C131.707 152.007 131.913 151.848 132.072 151.647C132.231 151.445 132.338 151.206 132.384 150.952C132.429 150.698 132.412 150.436 132.333 150.19C132.254 149.945 132.117 149.723 131.932 149.544Z" fill="#186FE0"></path><path d="M131.522 149.259C131.293 149.15 131.041 149.1 130.789 149.114C130.537 149.127 130.291 149.203 130.075 149.335C129.858 149.467 129.677 149.651 129.547 149.871C129.417 150.09 129.343 150.339 129.33 150.595L131.522 149.259Z" fill="#186FE0"></path><path d="M131.013 151.847L131.121 151.305L131.403 149.881L130.261 150.608L130.189 150.654L129.714 150.96L129.403 151.157C129.503 151.47 129.699 151.743 129.963 151.936C130.226 152.13 130.542 152.234 130.868 152.234C130.891 152.234 130.914 152.234 130.937 152.234L131.013 151.847Z" fill="#186FE0"></path></svg> 