<?xml version="1.0" encoding="UTF-8"?> <svg xmlns="http://www.w3.org/2000/svg" width="690" height="440" fill="none"><path fill="#F2F2F2" d="M0 0H690V440H0z"></path><path stroke="#E5E5E5" d="M365.5 48L365.5 391"></path><path stroke="#E5E5E5" d="M200.5 48L200.5 391"></path><path stroke="#E5E5E5" d="M530.5 48L530.5 391"></path><path stroke="#E5E5E5" d="M118.5 48L118.5 391"></path><path stroke="#E5E5E5" d="M448.5 48L448.5 391"></path><path stroke="#E5E5E5" d="M284.5 48L284.5 391"></path><path stroke="#E5E5E5" d="M613.5 48L613.5 391"></path><path stroke="#E5E5E5" d="M77.5 48L77.5 391"></path><path stroke="#E5E5E5" d="M406.5 48L406.5 391"></path><path stroke="#E5E5E5" d="M242.5 48L242.5 391"></path><path stroke="#E5E5E5" d="M572.5 48L572.5 391"></path><path stroke="#E5E5E5" d="M160.5 48L160.5 391"></path><path stroke="#E5E5E5" d="M490.5 48L490.5 391"></path><path stroke="#E5E5E5" d="M325.5 48L325.5 391"></path><path stroke="#E5E5E5" d="M35 200.5L655 200.5"></path><path stroke="#E5E5E5" d="M35 352.5L655 352.5"></path><path stroke="#E5E5E5" d="M35 124.5L655 124.5"></path><path stroke="#E5E5E5" d="M35 275.5L655 275.5"></path><path stroke="#E5E5E5" d="M35 163.5L655 163.5"></path><path stroke="#E5E5E5" d="M35 314.5L655 314.5"></path><path stroke="#E5E5E5" d="M35 85.5L655 85.5"></path><path stroke="#E5E5E5" d="M35 238.5L655 238.5"></path><path d="M195.813 300.479V133.952c0-11.019 8.933-19.952 19.953-19.952h259.381c11.02 0 19.953 8.933 19.953 19.952v166.527" stroke="#BBBCBC" stroke-width="2"></path><path d="M183 300.176h324.913v6.674c0 10.467-8.485 18.953-18.952 18.953H201.952c-10.467 0-18.952-8.486-18.952-18.953v-6.674z" stroke="#BBBCBC" stroke-width="2"></path><path d="M369.246 300.479v3.837a6.14 6.14 0 0 1-6.139 6.139h-35.301a6.14 6.14 0 0 1-6.139-6.139v-3.837m-105.901 0v-159.62a6.138 6.138 0 0 1 6.139-6.139h247.103a6.138 6.138 0 0 1 6.139 6.139v159.62" stroke="#BBBCBC" stroke-width="2"></path><path d="M427.869 287.99l2.613 3.741h2.038l-3.569-5.099c-.232-.328-.574-.632-1.111-.632-.515 0-.856.278-1.097.632l-3.482 5.099h2.067l.499-.735h3.353l-1.039-1.45h-1.337l1.057-1.561.008.005zm11.488 2.292l-1.111 1.449h-2.791c-1.93 0-3.352-1.239-3.352-2.874 0-1.652 1.422-2.762 3.352-2.762h3.902l-1.111 1.466h-2.791c-.932 0-1.63.565-1.63 1.374 0 .809.69 1.349 1.63 1.349l3.902-.002zm7.51-4.189l-1.11 1.466h-1.989v4.172h-1.725v-4.172h-2.612l1.11-1.466h6.326zm9.582 0l-1.111 1.466h-3.398v.734h4.193l-1.048 1.374h-3.145v2.064h-1.729v-5.638h6.238zm8.551 0l-3.303 3.775v1.863h-1.73v-1.871l-3.394-3.767h2.212l1.332 1.567c.175.205.64.717.756.885.108-.159.303-.409.699-.893l1.265-1.559H465zm-15.863 1.847h-1.721v3.791h1.721v-3.791z" fill="#2D2D2D"></path><path d="M449.137 286.093h-1.721v1.467h1.721v-1.467zm-28.429.778l-.832 4.639c.425-.183.797-.47 1.085-.836a2.843 2.843 0 0 0 .472-2.634 2.815 2.815 0 0 0-.725-1.169zm-.742-.516a2.75 2.75 0 0 0-2.619.138 2.792 2.792 0 0 0-.954.969c-.235.398-.37.848-.393 1.31l3.966-2.417zm-.921 4.683l.195-.981.511-2.577-2.066 1.315-.13.083-.86.555-.564.356c.183.566.537 1.06 1.013 1.41a2.77 2.77 0 0 0 1.638.539h.125l.138-.7z" fill="#186FE0"></path><circle cx="311" cy="204" r="2" fill="#F2F2F2"></circle><circle cx="341" cy="241" r="2" fill="#F2F2F2"></circle><circle cx="317" cy="204" r="2" fill="#F2F2F2"></circle><circle cx="347" cy="241" r="2" fill="#F2F2F2"></circle><path d="M214.5 232.462l80.127-114.833M360.5 245.963l-65.873-128.334M360.5 245.962l124.5-20.5m-124 20.5l107.5-124M485 226.463l-16.5-104.501m16.5 104.5L295 117.463m173.5 4.5L214 233.462" stroke="#186FE0" stroke-width="2"></path><circle cx="212" cy="226.963" r="48" fill="#186FE0"></circle><circle cx="295" cy="112.963" r="48" fill="#233741"></circle><circle cx="359" cy="245.963" r="38" fill="#233741"></circle><circle cx="469" cy="115.963" r="47" fill="#186FE0"></circle><circle cx="484" cy="222.963" r="30" fill="#233741"></circle><ellipse cx="484" cy="214.681" rx="5.625" ry="5.781" fill="#F2F2F2"></ellipse><path d="M493.375 231.766c0 5.208-4.197 6.197-9.375 6.197s-9.375-.989-9.375-6.197c0-5.207 4.197-9.428 9.375-9.428s9.375 4.221 9.375 9.428z" fill="#F2F2F2"></path><ellipse cx="358.613" cy="234.124" rx="6.968" ry="7.161" fill="#F2F2F2"></ellipse><path d="M370.226 255.287c0 6.451-5.199 7.676-11.613 7.676S347 261.738 347 255.287c0-6.45 5.199-11.679 11.613-11.679s11.613 5.229 11.613 11.679z" fill="#F2F2F2"></path><ellipse cx="212" cy="211.108" rx="9.871" ry="10.145" fill="#F2F2F2"></ellipse><path d="M228.452 241.089c0 9.139-7.366 10.874-16.452 10.874-9.086 0-16.452-1.735-16.452-10.874 0-9.138 7.366-16.546 16.452-16.546 9.086 0 16.452 7.408 16.452 16.546z" fill="#F2F2F2"></path><ellipse cx="469.484" cy="101.511" rx="9.29" ry="9.548" fill="#F2F2F2"></ellipse><path d="M484.968 129.729c0 8.601-6.933 10.234-15.484 10.234-8.552 0-15.484-1.633-15.484-10.234 0-8.601 6.932-15.573 15.484-15.573 8.551 0 15.484 6.972 15.484 15.573z" fill="#F2F2F2"></path><ellipse cx="295.484" cy="98.511" rx="9.29" ry="9.548" fill="#F2F2F2"></ellipse><path d="M310.968 126.729c0 8.601-6.933 10.234-15.484 10.234-8.552 0-15.484-1.633-15.484-10.234 0-8.601 6.932-15.573 15.484-15.573 8.551 0 15.484 6.972 15.484 15.573z" fill="#F2F2F2"></path></svg> 