<?xml version="1.0" encoding="UTF-8"?> <svg xmlns="http://www.w3.org/2000/svg" fill="none" height="440" viewBox="0 0 690 440" width="690"><path d="m0 0h690v440h-690z" fill="#f2f2f2"></path><g stroke="#e5e5e5"><path d="m365.5 48v343"></path><path d="m200.5 48v343"></path><path d="m530.5 48v343"></path><path d="m118.5 48v343"></path><path d="m448.5 48v343"></path><path d="m284.5 48v343"></path><path d="m613.5 48v343"></path><path d="m77.5 48v343"></path><path d="m406.5 48v343"></path><path d="m242.5 48v343"></path><path d="m572.5 48v343"></path><path d="m160.5 48v343"></path><path d="m490.5 48v343"></path><path d="m325.5 48v343"></path><path d="m35 200.5h620"></path><path d="m35 352.5h620"></path><path d="m35 124.5h620"></path><path d="m35 275.5h620"></path><path d="m35 163.5h620"></path><path d="m35 314.5h620"></path><path d="m35 85.5h620"></path><path d="m35 238.5h620"></path></g><path d="m195.813 300.479v-166.527c0-11.019 8.933-19.952 19.953-19.952h259.381c11.02 0 19.953 8.933 19.953 19.952v166.527" stroke="#bbbcbc" stroke-width="2"></path><path d="m183 300.176h324.913v6.674c0 10.467-8.485 18.953-18.952 18.953h-287.009c-10.467 0-18.952-8.486-18.952-18.953z" stroke="#bbbcbc" stroke-width="2"></path><path d="m369.246 300.478v3.837c0 3.391-2.749 6.14-6.139 6.14h-35.301c-3.39 0-6.139-2.749-6.139-6.14v-3.837" stroke="#bbbcbc" stroke-width="2"></path><path d="m215.766 300.478v-159.619c0-3.391 2.748-6.139 6.139-6.139h247.103c3.391 0 6.139 2.748 6.139 6.139v159.619" stroke="#bbbcbc" stroke-width="2"></path><path d="m427.869 287.99 2.613 3.741h2.038l-3.569-5.099c-.232-.328-.574-.632-1.111-.632-.515 0-.856.278-1.097.632l-3.482 5.099h2.067l.499-.735h3.353l-1.039-1.45h-1.337l1.057-1.561z" fill="#2d2d2d"></path><path d="m439.357 290.282-1.111 1.449h-2.791c-1.93 0-3.352-1.239-3.352-2.874 0-1.652 1.422-2.762 3.352-2.762h3.902l-1.111 1.466h-2.791c-.932 0-1.63.565-1.63 1.374s.69 1.349 1.63 1.349z" fill="#2d2d2d"></path><path d="m446.867 286.093-1.11 1.466h-1.989v4.172h-1.725v-4.172h-2.612l1.11-1.466z" fill="#2d2d2d"></path><path d="m456.449 286.093-1.111 1.466h-3.398v.734h4.193l-1.048 1.374h-3.145v2.064h-1.729v-5.638z" fill="#2d2d2d"></path><path d="m465 286.093-3.303 3.775v1.863h-1.73v-1.871l-3.394-3.767h2.212l1.332 1.567c.175.205.64.717.756.885.108-.159.303-.409.699-.893l1.265-1.559z" fill="#2d2d2d"></path><path d="m449.137 287.94h-1.721v3.791h1.721z" fill="#2d2d2d"></path><path d="m449.137 286.093h-1.721v1.467h1.721z" fill="#186fe0"></path><path d="m420.708 286.871-.832 4.639c.425-.183.797-.47 1.085-.836.288-.365.481-.797.564-1.257.082-.459.051-.933-.092-1.377-.142-.445-.391-.846-.725-1.169z" fill="#186fe0"></path><path d="m419.966 286.355c-.414-.197-.87-.287-1.326-.263-.457.024-.901.162-1.293.401-.392.238-.719.571-.954.969s-.37.848-.393 1.31z" fill="#186fe0"></path><path d="m419.045 291.038.195-.981.511-2.577-2.066 1.315-.13.083-.86.555-.564.356c.183.566.537 1.06 1.013 1.41s1.049.538 1.638.539h.125z" fill="#186fe0"></path><path d="m519 164.5c0-30.652-24.848-55.5-55.5-55.5s-55.5 24.848-55.5 55.5 24.848 55.5 55.5 55.5h55.5z" fill="#233741"></path><path d="m387 149.5c0-30.652 24.848-55.5 55.5-55.5s55.5 24.848 55.5 55.5-24.848 55.5-55.5 55.5h-55.5z" fill="#186fe0"></path><path d="m471.569 130.784c-.52-.763-.982-1.467-1.502-2.112-3.041-3.945-6.926-7.136-11.36-9.331s-9.302-3.338-14.236-3.341c-4.933.003-9.801 1.146-14.236 3.341-4.434 2.195-8.319 5.386-11.359 9.331l-1.503 2.112c-3.522 5.411-5.392 11.759-5.373 18.245-.019 6.487 1.851 12.834 5.373 18.246l1.503 2.112c3.043 3.937 6.93 7.119 11.364 9.304 4.435 2.186 9.302 3.317 14.231 3.309 4.93.008 9.796-1.123 14.231-3.309 4.435-2.185 8.321-5.367 11.365-9.304.52-.646.982-1.35 1.502-2.112 3.54-5.407 5.429-11.754 5.431-18.246-.029-6.488-1.916-12.827-5.431-18.245zm-34.84-10.971c-2.947 3.11-5.373 7.979-6.818 13.904-3.067-.749-6.02-1.913-8.782-3.461 3.958-5.095 9.429-8.757 15.6-10.443zm-17.102 12.496c3.015 1.786 6.263 3.129 9.649 3.99-.711 3.73-1.06 7.523-1.04 11.322h-13.52c.234-5.462 1.932-10.757 4.911-15.312zm-4.911 18.011h13.52v.176c.001 3.782.369 7.555 1.097 11.264-3.415.825-6.687 2.17-9.706 3.989-2.989-4.594-4.687-9.928-4.911-15.429zm6.413 17.483c2.762-1.548 5.715-2.712 8.782-3.462 1.502 5.984 3.987 10.854 6.991 13.963-6.231-1.691-11.762-5.372-15.773-10.501zm21.956 11.205c-4.623-.997-8.552-6.864-10.574-15.253 3.489-.648 7.027-.982 10.574-.998zm0-18.949c-3.743-.02-7.478.334-11.152 1.056-.663-3.559-.992-7.173-.982-10.795h12.134zm0-12.438h-12.134c.003-3.599.313-7.191.925-10.736 3.687.772 7.444 1.145 11.209 1.115zm0-12.32c-3.569-.008-7.129-.362-10.632-1.056 2.08-8.389 6.009-14.314 10.632-15.312zm31.142 12.32h-13.52c.019-3.799-.329-7.592-1.04-11.322 3.382-.872 6.629-2.215 9.649-3.99 2.987 4.551 4.685 9.848 4.911 15.312zm-6.414-17.424c-2.75 1.573-5.707 2.738-8.782 3.462-1.444-5.867-3.871-10.736-6.818-13.846 6.157 1.686 11.623 5.324 15.6 10.384zm-22.071-11.264c4.68.88 8.667 6.864 10.747 15.312-3.542.694-7.14 1.047-10.747 1.056zm0 19.067c3.803.03 7.598-.344 11.325-1.115.614 3.545.924 7.137.924 10.736h-12.249zm0 12.32h12.249c.01 3.641-.319 7.275-.982 10.853-3.704-.794-7.481-1.187-11.267-1.173zm0 28.747v-16.31c3.588.006 7.167.36 10.689 1.056-2.08 8.39-6.009 14.315-10.689 15.254zm6.298-.763c3.004-3.109 5.489-7.979 6.991-13.904 3.075.724 6.032 1.889 8.782 3.461-4.025 5.101-9.552 8.761-15.773 10.443zm17.276-12.555c-3.041-1.775-6.307-3.117-9.707-3.989.731-3.709 1.099-7.482 1.098-11.264v-.176h13.52c-.225 5.501-1.923 10.835-4.911 15.429z" fill="#fff"></path><path d="m122 184c0-3.314 2.686-6 6-6h190c3.314 0 6 2.686 6 6v26h-196c-3.314 0-6-2.686-6-6z" fill="#186fe0"></path><path d="m357 221c0-3.314-2.686-6-6-6h-190c-3.314 0-6 2.686-6 6v26h196c3.314 0 6-2.686 6-6z" fill="#233741"></path><path d="m138.78 191.967c.061-.797.368-1.421.923-1.872s1.274-.676 2.158-.676c.589 0 1.096.108 1.521.325.433.208.758.494.975.858.225.364.338.776.338 1.235 0 .537-.156 1.001-.468 1.391-.303.39-.702.641-1.196.754v.065c.563.139 1.01.412 1.339.819s.494.94.494 1.599c0 .494-.113.94-.338 1.339-.225.39-.563.698-1.014.923s-.992.338-1.625.338c-.919 0-1.673-.238-2.262-.715-.589-.485-.919-1.17-.988-2.054h1.144c.061.52.273.945.637 1.274s.849.494 1.456.494 1.066-.156 1.378-.468c.321-.321.481-.732.481-1.235 0-.65-.217-1.118-.65-1.404s-1.088-.429-1.963-.429h-.299v-.988h.312c.797-.009 1.4-.139 1.807-.39.407-.26.611-.659.611-1.196 0-.459-.152-.828-.455-1.105-.295-.277-.719-.416-1.274-.416-.537 0-.971.139-1.3.416s-.524.65-.585 1.118zm7.231 2.236c0-1.491.243-2.652.728-3.484.486-.841 1.335-1.261 2.548-1.261 1.205 0 2.05.42 2.535 1.261.486.832.728 1.993.728 3.484 0 1.517-.242 2.695-.728 3.536-.485.841-1.33 1.261-2.535 1.261-1.213 0-2.062-.42-2.548-1.261-.485-.841-.728-2.019-.728-3.536zm5.369 0c0-.754-.052-1.391-.156-1.911-.095-.529-.299-.953-.611-1.274-.303-.321-.745-.481-1.326-.481-.589 0-1.04.16-1.352.481-.303.321-.507.745-.611 1.274-.095.52-.143 1.157-.143 1.911 0 .78.048 1.434.143 1.963.104.529.308.953.611 1.274.312.321.763.481 1.352.481.581 0 1.023-.16 1.326-.481.312-.321.516-.745.611-1.274.104-.529.156-1.183.156-1.963zm5.113 1.209c0-.728.148-1.365.442-1.911.295-.555.698-.984 1.209-1.287.52-.303 1.101-.455 1.742-.455.555 0 1.071.13 1.547.39.477.251.841.585 1.092 1.001v-3.77h1.196v9.62h-1.196v-1.339c-.234.425-.58.776-1.04 1.053-.459.269-.996.403-1.612.403-.632 0-1.209-.156-1.729-.468-.511-.312-.914-.75-1.209-1.313-.294-.563-.442-1.205-.442-1.924zm6.032.013c0-.537-.108-1.005-.325-1.404-.216-.399-.511-.702-.884-.91-.364-.217-.767-.325-1.209-.325s-.845.104-1.209.312-.654.511-.871.91c-.216.399-.325.867-.325 1.404 0 .546.109 1.023.325 1.43.217.399.507.706.871.923.364.208.767.312 1.209.312s.845-.104 1.209-.312c.373-.217.668-.524.884-.923.217-.407.325-.88.325-1.417zm2.303-.013c0-.728.148-1.365.442-1.911.295-.555.698-.984 1.209-1.287.52-.303 1.097-.455 1.729-.455.624 0 1.166.134 1.625.403.46.269.802.607 1.027 1.014v-1.3h1.196v7.124h-1.196v-1.326c-.234.416-.585.763-1.053 1.04-.459.269-.996.403-1.612.403-.632 0-1.204-.156-1.716-.468-.511-.312-.914-.75-1.209-1.313-.294-.563-.442-1.205-.442-1.924zm6.032.013c0-.537-.108-1.005-.325-1.404-.216-.399-.511-.702-.884-.91-.364-.217-.767-.325-1.209-.325s-.845.104-1.209.312-.654.511-.871.91c-.216.399-.325.867-.325 1.404 0 .546.109 1.023.325 1.43.217.399.507.706.871.923.364.208.767.312 1.209.312s.845-.104 1.209-.312c.373-.217.668-.524.884-.923.217-.407.325-.88.325-1.417zm8.881-3.549-4.29 10.478h-1.222l1.404-3.432-2.873-7.046h1.313l2.236 5.772 2.21-5.772zm4.939-2.496v9.62h-1.183v-9.62zm8.066 5.785c0 .225-.013.464-.039.715h-5.694c.043.702.281 1.252.715 1.651.442.39.975.585 1.599.585.511 0 .936-.117 1.274-.351.346-.243.589-.563.728-.962h1.274c-.191.685-.572 1.244-1.144 1.677-.572.425-1.283.637-2.132.637-.676 0-1.283-.152-1.82-.455-.529-.303-.945-.732-1.248-1.287-.304-.563-.455-1.213-.455-1.95s.147-1.382.442-1.937c.294-.555.706-.979 1.235-1.274.537-.303 1.152-.455 1.846-.455.676 0 1.274.147 1.794.442s.918.702 1.196 1.222c.286.511.429 1.092.429 1.742zm-1.222-.247c0-.451-.1-.836-.299-1.157-.2-.329-.473-.576-.819-.741-.338-.173-.715-.26-1.131-.26-.598 0-1.11.191-1.534.572-.416.381-.655.91-.715 1.586zm1.891.494c0-.728.148-1.365.442-1.911.295-.555.698-.984 1.209-1.287.52-.303 1.097-.455 1.729-.455.624 0 1.166.134 1.625.403.46.269.802.607 1.027 1.014v-1.3h1.196v7.124h-1.196v-1.326c-.234.416-.585.763-1.053 1.04-.459.269-.996.403-1.612.403-.632 0-1.204-.156-1.716-.468-.511-.312-.914-.75-1.209-1.313-.294-.563-.442-1.205-.442-1.924zm6.032.013c0-.537-.108-1.005-.325-1.404-.216-.399-.511-.702-.884-.91-.364-.217-.767-.325-1.209-.325s-.845.104-1.209.312-.654.511-.871.91c-.216.399-.325.867-.325 1.404 0 .546.109 1.023.325 1.43.217.399.507.706.871.923.364.208.767.312 1.209.312s.845-.104 1.209-.312c.373-.217.668-.524.884-.923.217-.407.325-.88.325-1.417zm2.303-.013c0-.728.148-1.365.442-1.911.295-.555.698-.984 1.209-1.287.52-.303 1.101-.455 1.742-.455.555 0 1.071.13 1.547.39.477.251.841.585 1.092 1.001v-3.77h1.196v9.62h-1.196v-1.339c-.234.425-.58.776-1.04 1.053-.459.269-.996.403-1.612.403-.632 0-1.209-.156-1.729-.468-.511-.312-.914-.75-1.209-1.313-.294-.563-.442-1.205-.442-1.924zm6.032.013c0-.537-.108-1.005-.325-1.404-.216-.399-.511-.702-.884-.91-.364-.217-.767-.325-1.209-.325s-.845.104-1.209.312-.654.511-.871.91c-.216.399-.325.867-.325 1.404 0 .546.109 1.023.325 1.43.217.399.507.706.871.923.364.208.767.312 1.209.312s.845-.104 1.209-.312c.373-.217.668-.524.884-.923.217-.407.325-.88.325-1.417zm7.204-2.574v4.199c0 .347.074.594.221.741.148.139.403.208.767.208h.871v1.001h-1.066c-.658 0-1.152-.152-1.482-.455-.329-.303-.494-.802-.494-1.495v-4.199h-.923v-.975h.923v-1.794h1.183v1.794h1.859v.975zm3.454-2.132c-.226 0-.416-.078-.572-.234s-.234-.347-.234-.572.078-.416.234-.572.346-.234.572-.234c.216 0 .398.078.546.234.156.156.234.347.234.572s-.078.416-.234.572c-.148.156-.33.234-.546.234zm.572 1.157v7.124h-1.183v-7.124zm10.133-.13c.555 0 1.049.117 1.482.351.433.225.776.568 1.027 1.027s.377 1.018.377 1.677v4.199h-1.17v-4.03c0-.711-.178-1.252-.533-1.625-.347-.381-.819-.572-1.417-.572-.615 0-1.105.199-1.469.598-.364.39-.546.958-.546 1.703v3.926h-1.17v-4.03c0-.711-.178-1.252-.533-1.625-.347-.381-.819-.572-1.417-.572-.615 0-1.105.199-1.469.598-.364.39-.546.958-.546 1.703v3.926h-1.183v-7.124h1.183v1.027c.234-.373.546-.659.936-.858.399-.199.836-.299 1.313-.299.598 0 1.127.134 1.586.403s.802.663 1.027 1.183c.199-.503.529-.893.988-1.17s.971-.416 1.534-.416zm10.877 3.419c0 .225-.013.464-.039.715h-5.694c.043.702.281 1.252.715 1.651.442.39.975.585 1.599.585.511 0 .936-.117 1.274-.351.346-.243.589-.563.728-.962h1.274c-.191.685-.572 1.244-1.144 1.677-.572.425-1.283.637-2.132.637-.676 0-1.283-.152-1.82-.455-.529-.303-.945-.732-1.248-1.287-.304-.563-.455-1.213-.455-1.95s.147-1.382.442-1.937c.294-.555.706-.979 1.235-1.274.537-.303 1.152-.455 1.846-.455.676 0 1.274.147 1.794.442s.918.702 1.196 1.222c.286.511.429 1.092.429 1.742zm-1.222-.247c0-.451-.1-.836-.299-1.157-.2-.329-.473-.576-.819-.741-.338-.173-.715-.26-1.131-.26-.598 0-1.11.191-1.534.572-.416.381-.655.91-.715 1.586z" fill="#fff"></path><path d="m176.538 231.333c.329.052.628.186.897.403.277.217.494.485.65.806.165.321.247.663.247 1.027 0 .459-.117.875-.351 1.248-.234.364-.576.654-1.027.871-.442.208-.966.312-1.573.312h-3.38v-9.061h3.25c.615 0 1.14.104 1.573.312.433.199.758.472.975.819s.325.737.325 1.17c0 .537-.147.984-.442 1.339-.286.347-.667.598-1.144.754zm-3.354-.481h1.989c.555 0 .984-.13 1.287-.39s.455-.62.455-1.079-.152-.819-.455-1.079-.741-.39-1.313-.39h-1.963zm2.093 4.173c.589 0 1.049-.139 1.378-.416s.494-.663.494-1.157c0-.503-.173-.897-.52-1.183-.347-.295-.81-.442-1.391-.442h-2.054v3.198zm10.747-2.86c0 .225-.013.464-.039.715h-5.694c.043.702.281 1.252.715 1.651.442.39.975.585 1.599.585.511 0 .936-.117 1.274-.351.346-.243.589-.563.728-.962h1.274c-.191.685-.572 1.244-1.144 1.677-.572.425-1.283.637-2.132.637-.676 0-1.283-.152-1.82-.455-.529-.303-.945-.732-1.248-1.287-.304-.563-.455-1.213-.455-1.95s.147-1.382.442-1.937c.294-.555.706-.979 1.235-1.274.537-.303 1.152-.455 1.846-.455.676 0 1.274.147 1.794.442s.918.702 1.196 1.222c.286.511.429 1.092.429 1.742zm-1.222-.247c0-.451-.1-.836-.299-1.157-.2-.329-.473-.576-.819-.741-.338-.173-.715-.26-1.131-.26-.598 0-1.11.191-1.534.572-.416.381-.655.91-.715 1.586zm4.855 4.199c-.546 0-1.035-.091-1.469-.273-.433-.191-.775-.451-1.027-.78-.251-.338-.39-.724-.416-1.157h1.222c.035.355.2.646.494.871.304.225.698.338 1.183.338.451 0 .806-.1 1.066-.299s.39-.451.39-.754c0-.312-.138-.542-.416-.689-.277-.156-.706-.308-1.287-.455-.528-.139-.962-.277-1.3-.416-.329-.147-.615-.36-.858-.637-.234-.286-.351-.659-.351-1.118 0-.364.109-.698.325-1.001.217-.303.525-.542.923-.715.399-.182.854-.273 1.365-.273.789 0 1.426.199 1.911.598.486.399.746.945.78 1.638h-1.183c-.026-.373-.177-.672-.455-.897-.268-.225-.632-.338-1.092-.338-.424 0-.762.091-1.014.273-.251.182-.377.42-.377.715 0 .234.074.429.221.585.156.147.347.269.572.364.234.087.555.186.962.299.512.139.928.277 1.248.416.321.13.594.329.819.598.234.269.356.62.364 1.053 0 .39-.108.741-.325 1.053-.216.312-.524.559-.923.741-.39.173-.84.26-1.352.26zm5.263-6.266v4.199c0 .347.074.594.221.741.148.139.403.208.767.208h.871v1.001h-1.066c-.658 0-1.152-.152-1.482-.455-.329-.303-.494-.802-.494-1.495v-4.199h-.923v-.975h.923v-1.794h1.183v1.794h1.859v.975zm9.343 2.314c0 .225-.013.464-.039.715h-5.694c.043.702.281 1.252.715 1.651.442.39.975.585 1.599.585.511 0 .936-.117 1.274-.351.346-.243.589-.563.728-.962h1.274c-.191.685-.572 1.244-1.144 1.677-.572.425-1.283.637-2.132.637-.676 0-1.283-.152-1.82-.455-.529-.303-.945-.732-1.248-1.287-.304-.563-.455-1.213-.455-1.95s.147-1.382.442-1.937c.294-.555.706-.979 1.235-1.274.537-.303 1.152-.455 1.846-.455.676 0 1.274.147 1.794.442s.918.702 1.196 1.222c.286.511.429 1.092.429 1.742zm-1.222-.247c0-.451-.1-.836-.299-1.157-.2-.329-.473-.576-.819-.741-.338-.173-.715-.26-1.131-.26-.598 0-1.11.191-1.534.572-.416.381-.655.91-.715 1.586zm3.516-5.538v9.62h-1.183v-9.62zm2.749 0v9.62h-1.183v-9.62zm7.884 2.496v7.124h-1.183v-1.053c-.225.364-.541.65-.949.858-.398.199-.84.299-1.326.299-.554 0-1.053-.113-1.495-.338-.442-.234-.793-.581-1.053-1.04-.251-.459-.377-1.018-.377-1.677v-4.173h1.17v4.017c0 .702.178 1.244.533 1.625.356.373.841.559 1.456.559.633 0 1.131-.195 1.495-.585s.546-.958.546-1.703v-3.913zm5.019-.13c.867 0 1.569.264 2.106.793.537.52.806 1.274.806 2.262v4.199h-1.17v-4.03c0-.711-.178-1.252-.533-1.625-.355-.381-.841-.572-1.456-.572-.624 0-1.122.195-1.495.585-.364.39-.546.958-.546 1.703v3.939h-1.183v-7.124h1.183v1.014c.234-.364.55-.646.949-.845.407-.199.854-.299 1.339-.299zm7.332.013c.616 0 1.153.134 1.612.403.468.269.815.607 1.04 1.014v-1.3h1.196v7.28c0 .65-.138 1.226-.416 1.729-.277.511-.676.91-1.196 1.196-.511.286-1.109.429-1.794.429-.936 0-1.716-.221-2.34-.663s-.992-1.044-1.105-1.807h1.17c.13.433.399.78.806 1.04.408.269.897.403 1.469.403.65 0 1.179-.204 1.586-.611.416-.407.624-.979.624-1.716v-1.495c-.234.416-.58.763-1.04 1.04-.459.277-.996.416-1.612.416-.632 0-1.209-.156-1.729-.468-.511-.312-.914-.75-1.209-1.313-.294-.563-.442-1.205-.442-1.924 0-.728.148-1.365.442-1.911.295-.555.698-.984 1.209-1.287.52-.303 1.097-.455 1.729-.455zm2.652 3.666c0-.537-.108-1.005-.325-1.404-.216-.399-.511-.702-.884-.91-.364-.217-.767-.325-1.209-.325s-.845.104-1.209.312-.654.511-.871.91c-.216.399-.325.867-.325 1.404 0 .546.109 1.023.325 1.43.217.399.507.706.871.923.364.208.767.312 1.209.312s.845-.104 1.209-.312c.373-.217.668-.524.884-.923.217-.407.325-.88.325-1.417zm5.319-.013c0-.728.148-1.365.442-1.911.295-.555.698-.984 1.209-1.287.52-.303 1.097-.455 1.729-.455.624 0 1.166.134 1.625.403.46.269.802.607 1.027 1.014v-1.3h1.196v7.124h-1.196v-1.326c-.234.416-.585.763-1.053 1.04-.459.269-.996.403-1.612.403-.632 0-1.204-.156-1.716-.468-.511-.312-.914-.75-1.209-1.313-.294-.563-.442-1.205-.442-1.924zm6.032.013c0-.537-.108-1.005-.325-1.404-.216-.399-.511-.702-.884-.91-.364-.217-.767-.325-1.209-.325s-.845.104-1.209.312-.654.511-.871.91c-.216.399-.325.867-.325 1.404 0 .546.109 1.023.325 1.43.217.399.507.706.871.923.364.208.767.312 1.209.312s.845-.104 1.209-.312c.373-.217.668-.524.884-.923.217-.407.325-.88.325-1.417zm9.063-3.549v7.124h-1.183v-1.053c-.225.364-.541.65-.949.858-.398.199-.84.299-1.326.299-.554 0-1.053-.113-1.495-.338-.442-.234-.793-.581-1.053-1.04-.251-.459-.377-1.018-.377-1.677v-4.173h1.17v4.017c0 .702.178 1.244.533 1.625.356.373.841.559 1.456.559.633 0 1.131-.195 1.495-.585s.546-.958.546-1.703v-3.913zm4.447.975h-1.495v6.149h-1.183v-6.149h-.923v-.975h.923v-.507c0-.797.204-1.378.611-1.742.416-.373 1.079-.559 1.989-.559v.988c-.52 0-.888.104-1.105.312-.208.199-.312.533-.312 1.001v.507h1.495zm3.867-1.092c.616 0 1.153.134 1.612.403.468.269.815.607 1.04 1.014v-1.3h1.196v7.28c0 .65-.138 1.226-.416 1.729-.277.511-.676.91-1.196 1.196-.511.286-1.109.429-1.794.429-.936 0-1.716-.221-2.34-.663s-.992-1.044-1.105-1.807h1.17c.13.433.399.78.806 1.04.408.269.897.403 1.469.403.65 0 1.179-.204 1.586-.611.416-.407.624-.979.624-1.716v-1.495c-.234.416-.58.763-1.04 1.04-.459.277-.996.416-1.612.416-.632 0-1.209-.156-1.729-.468-.511-.312-.914-.75-1.209-1.313-.294-.563-.442-1.205-.442-1.924 0-.728.148-1.365.442-1.911.295-.555.698-.984 1.209-1.287.52-.303 1.097-.455 1.729-.455zm2.652 3.666c0-.537-.108-1.005-.325-1.404-.216-.399-.511-.702-.884-.91-.364-.217-.767-.325-1.209-.325s-.845.104-1.209.312-.654.511-.871.91c-.216.399-.325.867-.325 1.404 0 .546.109 1.023.325 1.43.217.399.507.706.871.923.364.208.767.312 1.209.312s.845-.104 1.209-.312c.373-.217.668-.524.884-.923.217-.407.325-.88.325-1.417zm9.245-.26c0 .225-.013.464-.039.715h-5.694c.044.702.282 1.252.715 1.651.442.39.975.585 1.599.585.512 0 .936-.117 1.274-.351.347-.243.59-.563.728-.962h1.274c-.19.685-.572 1.244-1.144 1.677-.572.425-1.282.637-2.132.637-.676 0-1.282-.152-1.82-.455-.528-.303-.944-.732-1.248-1.287-.303-.563-.455-1.213-.455-1.95s.148-1.382.442-1.937c.295-.555.707-.979 1.235-1.274.538-.303 1.153-.455 1.846-.455.676 0 1.274.147 1.794.442s.919.702 1.196 1.222c.286.511.429 1.092.429 1.742zm-1.222-.247c0-.451-.099-.836-.299-1.157-.199-.329-.472-.576-.819-.741-.338-.173-.715-.26-1.131-.26-.598 0-1.109.191-1.534.572-.416.381-.654.91-.715 1.586zm5.272-3.159c.615 0 1.153.134 1.612.403.468.269.815.607 1.04 1.014v-1.3h1.196v7.28c0 .65-.139 1.226-.416 1.729-.277.511-.676.91-1.196 1.196-.511.286-1.109.429-1.794.429-.936 0-1.716-.221-2.34-.663s-.992-1.044-1.105-1.807h1.17c.13.433.399.78.806 1.04.407.269.897.403 1.469.403.65 0 1.179-.204 1.586-.611.416-.407.624-.979.624-1.716v-1.495c-.234.416-.581.763-1.04 1.04s-.997.416-1.612.416c-.633 0-1.209-.156-1.729-.468-.511-.312-.914-.75-1.209-1.313s-.442-1.205-.442-1.924c0-.728.147-1.365.442-1.911.295-.555.698-.984 1.209-1.287.52-.303 1.096-.455 1.729-.455zm2.652 3.666c0-.537-.108-1.005-.325-1.404s-.511-.702-.884-.91c-.364-.217-.767-.325-1.209-.325s-.845.104-1.209.312-.654.511-.871.91-.325.867-.325 1.404c0 .546.108 1.023.325 1.43.217.399.507.706.871.923.364.208.767.312 1.209.312s.845-.104 1.209-.312c.373-.217.667-.524.884-.923.217-.407.325-.88.325-1.417zm9.245-.26c0 .225-.013.464-.039.715h-5.694c.043.702.282 1.252.715 1.651.442.39.975.585 1.599.585.511 0 .936-.117 1.274-.351.347-.243.589-.563.728-.962h1.274c-.191.685-.572 1.244-1.144 1.677-.572.425-1.283.637-2.132.637-.676 0-1.283-.152-1.82-.455-.529-.303-.945-.732-1.248-1.287-.303-.563-.455-1.213-.455-1.95s.147-1.382.442-1.937.706-.979 1.235-1.274c.537-.303 1.153-.455 1.846-.455.676 0 1.274.147 1.794.442s.919.702 1.196 1.222c.286.511.429 1.092.429 1.742zm-1.222-.247c0-.451-.1-.836-.299-1.157-.199-.329-.472-.576-.819-.741-.338-.173-.715-.26-1.131-.26-.598 0-1.109.191-1.534.572-.416.381-.654.91-.715 1.586zm3.517-1.716c.242-.425.598-.771 1.066-1.04s1.001-.403 1.599-.403c.641 0 1.217.152 1.729.455.511.303.914.732 1.209 1.287.294.546.442 1.183.442 1.911 0 .719-.148 1.361-.442 1.924-.295.563-.702 1.001-1.222 1.313-.512.312-1.084.468-1.716.468-.616 0-1.157-.134-1.625-.403-.46-.269-.806-.611-1.04-1.027v1.313h-1.183v-9.62h1.183zm4.836 2.21c0-.537-.109-1.005-.325-1.404-.217-.399-.512-.702-.884-.91-.364-.208-.767-.312-1.209-.312-.434 0-.837.108-1.209.325-.364.208-.659.516-.884.923-.217.399-.325.862-.325 1.391 0 .537.108 1.01.325 1.417.225.399.52.706.884.923.372.208.775.312 1.209.312.442 0 .845-.104 1.209-.312.372-.217.667-.524.884-.923.216-.407.325-.884.325-1.43zm8.816-.247c0 .225-.013.464-.039.715h-5.694c.043.702.281 1.252.715 1.651.442.39.975.585 1.599.585.511 0 .936-.117 1.274-.351.346-.243.589-.563.728-.962h1.274c-.191.685-.572 1.244-1.144 1.677-.572.425-1.283.637-2.132.637-.676 0-1.283-.152-1.82-.455-.529-.303-.945-.732-1.248-1.287-.304-.563-.455-1.213-.455-1.95s.147-1.382.442-1.937c.294-.555.706-.979 1.235-1.274.537-.303 1.152-.455 1.846-.455.676 0 1.274.147 1.794.442s.918.702 1.196 1.222c.286.511.429 1.092.429 1.742zm-1.222-.247c0-.451-.1-.836-.299-1.157-.2-.329-.473-.576-.819-.741-.338-.173-.715-.26-1.131-.26-.598 0-1.11.191-1.534.572-.416.381-.655.91-.715 1.586zm5.804-3.172c.867 0 1.569.264 2.106.793.538.52.806 1.274.806 2.262v4.199h-1.17v-4.03c0-.711-.177-1.252-.533-1.625-.355-.381-.84-.572-1.456-.572-.624 0-1.122.195-1.495.585-.364.39-.546.958-.546 1.703v3.939h-1.183v-7.124h1.183v1.014c.234-.364.551-.646.949-.845.408-.199.854-.299 1.339-.299z" fill="#fff"></path><circle cx="311" cy="204" fill="#f2f2f2" r="2"></circle><circle cx="341" cy="241" fill="#f2f2f2" r="2"></circle><circle cx="317" cy="204" fill="#f2f2f2" r="2"></circle><circle cx="347" cy="241" fill="#f2f2f2" r="2"></circle></svg> 