<?xml version="1.0" encoding="UTF-8"?> <svg xmlns="http://www.w3.org/2000/svg" width="181" height="165" viewBox="0 0 181 165" fill="none"><path d="M7.63452 150.065V58.0275C7.63452 51.9372 12.5717 47 18.6621 47H162.02C168.111 47 173.048 51.9372 173.048 58.0275V150.065" stroke="#233741" stroke-width="2"></path><path d="M1 150.345H179.682V153.587C179.682 159.125 175.193 163.614 169.655 163.614H11.0275C5.48948 163.614 1 159.125 1 153.587V150.345Z" stroke="#233741" stroke-width="2"></path><path d="M103.489 150.065L103.489 152.186C103.489 154.06 101.97 155.579 100.096 155.579L80.5861 155.579C78.7121 155.579 77.193 154.06 77.193 152.186L77.193 150.065" stroke="#233741" stroke-width="2"></path><path d="M18.6622 150.065V61.8448C18.6622 59.9708 20.1813 58.4517 22.0553 58.4517H158.627C160.501 58.4517 162.021 59.9708 162.021 61.8448V150.065" stroke="#233741" stroke-width="2"></path><path d="M148.479 61.3456C148.479 34.6739 126.857 13.0521 100.186 13.0521C73.5139 13.0521 51.8922 34.6739 51.8922 61.3456C51.8922 88.0174 73.5139 109.639 100.186 109.639H148.479V61.3456Z" fill="#233741"></path><path d="M33.619 48.2935C33.619 21.6218 55.2408 0 81.9125 0C108.584 0 130.206 21.6217 130.206 48.2935C130.206 74.9653 108.584 96.587 81.9125 96.587H33.619V48.2935Z" fill="#186FE0"></path><path d="M107.207 32.0075C106.754 31.3439 106.352 30.7313 105.9 30.1698C103.254 26.7372 99.8738 23.9607 96.0152 22.0504C92.1566 20.1401 87.9206 19.1459 83.6278 19.1432C79.3349 19.1459 75.0989 20.1401 71.2403 22.0504C67.3817 23.9607 64.0016 26.7372 61.3558 30.1698L60.0486 32.0075C56.9833 36.7161 55.3567 42.2395 55.373 47.8837C55.3567 53.528 56.9833 59.0514 60.0486 63.76L61.3558 65.5977C64.0042 69.0237 67.386 71.7925 71.2449 73.6942C75.1038 75.5958 79.3384 76.5804 83.6278 76.5733C87.9171 76.5804 92.1517 75.5958 96.0106 73.6942C99.8695 71.7925 103.251 69.0237 105.9 65.5977C106.352 65.0362 106.754 64.4236 107.207 63.76C110.287 59.0557 111.931 53.5328 111.933 47.8837C111.908 42.2382 110.266 36.722 107.207 32.0075ZM76.8909 22.4614C74.3268 25.167 72.2152 29.404 70.9584 34.56C68.2898 33.9078 65.7196 32.8948 63.3165 31.5481C66.7606 27.1151 71.5211 23.9284 76.8909 22.4614ZM62.0093 33.3348C64.6326 34.8884 67.4594 36.0571 70.4053 36.8061C69.7867 40.0523 69.4836 43.3523 69.5004 46.6586H57.7359C57.9395 41.9052 59.4171 37.2983 62.0093 33.3348ZM57.7359 49.0068H69.5004V49.16C69.5018 52.451 69.8218 55.7339 70.4556 58.9614C67.4838 59.6791 64.6361 60.8494 62.0093 62.4327C59.409 58.4353 57.9315 53.7934 57.7359 49.0068ZM63.3165 64.2194C65.7196 62.8727 68.2898 61.8597 70.9584 61.2075C72.2655 66.4145 74.4274 70.6516 77.0417 73.3572C71.6192 71.8862 66.8069 68.6824 63.3165 64.2194ZM82.4212 73.9698C78.3991 73.1019 74.9804 67.997 73.2208 60.697C76.2565 60.1337 79.3352 59.8433 82.4212 59.8292V73.9698ZM82.4212 57.481C79.1649 57.4639 75.9149 57.7717 72.718 58.3998C72.1409 55.3034 71.8547 52.1582 71.8633 49.0068H82.4212V57.481ZM82.4212 46.6586H71.8633C71.866 43.5269 72.1351 40.4013 72.6677 37.3166C75.8762 37.9878 79.1454 38.3129 82.4212 38.2865V46.6586ZM82.4212 35.9383C79.3159 35.9308 76.2183 35.6231 73.1705 35.0194C74.9804 27.7194 78.3991 22.5635 82.4212 21.6956V35.9383ZM109.52 46.6586H97.7551C97.7719 43.3523 97.4688 40.0523 96.8502 36.8061C99.7931 36.0476 102.619 34.8794 105.246 33.3348C107.845 37.2949 109.324 41.9038 109.52 46.6586ZM103.939 31.497C101.546 32.8651 98.9726 33.8793 96.2972 34.5089C95.0403 29.404 92.9287 25.167 90.3647 22.4614C95.7219 23.9281 100.478 27.0938 103.939 31.497ZM84.7338 21.6956C88.8061 22.4614 92.2751 27.6684 94.085 35.0194C91.0033 35.6229 87.8724 35.9305 84.7338 35.9383V21.6956ZM84.7338 38.2865C88.0428 38.3126 91.3454 37.9875 94.5878 37.3166C95.1227 40.401 95.3918 43.5268 95.3922 46.6586H84.7338V38.2865ZM84.7338 49.0068H95.3922C95.4007 52.1751 95.1145 55.3372 94.5375 58.4509C91.3143 57.7597 88.0281 57.4175 84.7338 57.4299V49.0068ZM84.7338 74.0208V59.8292C87.8559 59.8344 90.9703 60.142 94.0348 60.7481C92.2249 68.0481 88.8061 73.204 84.7338 74.0208ZM90.2138 73.3572C92.8282 70.6516 94.99 66.4145 96.2972 61.2586C98.9726 61.8882 101.546 62.9024 103.939 64.2705C100.436 68.7091 95.6267 71.8932 90.2138 73.3572ZM105.246 62.4327C102.601 60.8879 99.7588 59.7198 96.7999 58.9614C97.4364 55.7343 97.7563 52.4511 97.7551 49.16V49.0068H109.52C109.324 53.7934 107.847 58.4353 105.246 62.4327Z" fill="white"></path></svg> 