<?xml version="1.0" encoding="UTF-8"?> <svg xmlns="http://www.w3.org/2000/svg" width="181" height="166" viewBox="0 0 181 166" fill="none"><path d="M7.63452 151.065V59.0276C7.63452 52.9372 12.5717 48 18.6621 48H162.02C168.111 48 173.048 52.9372 173.048 59.0276V151.065" stroke="#233741" stroke-width="2"></path><path d="M1 151.345H179.682V154.587C179.682 160.125 175.193 164.614 169.655 164.614H11.0275C5.48948 164.614 1 160.125 1 154.587V151.345Z" stroke="#233741" stroke-width="2"></path><path d="M103.489 151.065L103.489 153.186C103.489 155.06 101.97 156.579 100.096 156.579L80.5861 156.579C78.7121 156.579 77.193 155.06 77.193 153.186L77.193 151.065" stroke="#233741" stroke-width="2"></path><path d="M18.6622 151.065V62.8448C18.6622 60.9708 20.1813 59.4517 22.0553 59.4517H158.627C160.501 59.4517 162.021 60.9708 162.021 62.8448V151.065" stroke="#233741" stroke-width="2"></path><path d="M135.89 144.163L137.334 146.231H138.461L136.488 143.412C136.36 143.231 136.171 143.063 135.874 143.063C135.589 143.063 135.401 143.217 135.267 143.412L133.343 146.231H134.486L134.761 145.824H136.615L136.04 145.023H135.302L135.886 144.16L135.89 144.163Z" fill="#2D2D2D"></path><path d="M142.239 145.43L141.625 146.231H140.083C139.016 146.231 138.23 145.546 138.23 144.642C138.23 143.729 139.016 143.116 140.083 143.116H142.239L141.625 143.926H140.083C139.568 143.926 139.182 144.238 139.182 144.685C139.182 145.133 139.563 145.431 140.083 145.431L142.239 145.43Z" fill="#2D2D2D"></path><path d="M146.39 143.114L145.776 143.925H144.677V146.231H143.724V143.925H142.28L142.894 143.114H146.39Z" fill="#2D2D2D"></path><path d="M151.686 143.114L151.072 143.925H149.194V144.33H151.511L150.932 145.09H149.194V146.231H148.238V143.114H151.686Z" fill="#2D2D2D"></path><path d="M156.412 143.114L154.587 145.201V146.231H153.63V145.196L151.754 143.114H152.977L153.713 143.981C153.81 144.094 154.067 144.377 154.131 144.47C154.191 144.382 154.299 144.244 154.517 143.976L155.217 143.114H156.412Z" fill="#2D2D2D"></path><path d="M147.645 144.135H146.693V146.231H147.645V144.135Z" fill="#2D2D2D"></path><path d="M147.645 143.114H146.693V143.925H147.645V143.114Z" fill="#186FE0"></path><path d="M131.932 143.544L131.472 146.109C131.707 146.007 131.913 145.848 132.072 145.647C132.231 145.445 132.338 145.206 132.384 144.952C132.429 144.698 132.412 144.436 132.333 144.19C132.254 143.945 132.117 143.723 131.932 143.544Z" fill="#186FE0"></path><path d="M131.522 143.259C131.293 143.15 131.041 143.1 130.789 143.114C130.537 143.127 130.291 143.203 130.075 143.335C129.858 143.467 129.677 143.651 129.547 143.871C129.417 144.09 129.343 144.339 129.33 144.595L131.522 143.259Z" fill="#186FE0"></path><path d="M131.013 145.847L131.121 145.305L131.403 143.881L130.261 144.608L130.189 144.654L129.714 144.96L129.403 145.157C129.503 145.47 129.699 145.743 129.963 145.936C130.226 146.13 130.542 146.234 130.868 146.234C130.891 146.234 130.914 146.234 130.937 146.234L131.013 145.847Z" fill="#186FE0"></path><rect x="46" width="78.776" height="108.073" fill="#233741"></rect><rect x="60.3229" y="16.9271" width="78.776" height="108.073" fill="#186FE0"></rect><path d="M74.6458 34.5384L78.3727 38.2653L85.388 31.25" stroke="white" stroke-width="2.19228"></path><line x1="91.5729" y1="32.7572" x2="124.776" y2="32.7572" stroke="white" stroke-width="2.19401"></line><line x1="91.5729" y1="37.3144" x2="107.849" y2="37.3144" stroke="white" stroke-width="2.19401"></line><path d="M74.6458 70.9968L78.3727 74.7236L85.388 67.7083" stroke="white" stroke-width="2.19228"></path><line x1="91.5729" y1="69.2155" x2="124.776" y2="69.2155" stroke="white" stroke-width="2.19401"></line><line x1="91.5729" y1="73.7728" x2="107.849" y2="73.7728" stroke="white" stroke-width="2.19401"></line><path d="M74.6458 52.7676L78.3727 56.4945L85.388 49.4792" stroke="white" stroke-width="2.19228"></path><line x1="91.5729" y1="50.9863" x2="124.776" y2="50.9863" stroke="white" stroke-width="2.19401"></line><line x1="91.5729" y1="55.5436" x2="107.849" y2="55.5436" stroke="white" stroke-width="2.19401"></line><path d="M74.6458 89.2259L78.3727 92.9528L85.388 85.9375" stroke="white" stroke-width="2.19228"></path><line x1="91.5729" y1="87.4447" x2="124.776" y2="87.4447" stroke="white" stroke-width="2.19401"></line><line x1="91.5729" y1="92.002" x2="107.849" y2="92.002" stroke="white" stroke-width="2.19401"></line><path d="M74.6458 107.455L78.3727 111.182L85.388 104.167" stroke="white" stroke-width="2.19228"></path><line x1="91.5729" y1="105.674" x2="124.776" y2="105.674" stroke="white" stroke-width="2.19401"></line><line x1="91.5729" y1="110.231" x2="107.849" y2="110.231" stroke="white" stroke-width="2.19401"></line></svg> 