<?xml version="1.0" encoding="UTF-8"?> <svg xmlns="http://www.w3.org/2000/svg" fill="none" height="440" viewBox="0 0 690 440" width="690"><path d="m0 0h690v440h-690z" fill="#f2f2f2"></path><g stroke="#e5e5e5"><path d="m365.5 48v343"></path><path d="m200.5 48v343"></path><path d="m530.5 48v343"></path><path d="m118.5 48v343"></path><path d="m448.5 48v343"></path><path d="m284.5 48v343"></path><path d="m613.5 48v343"></path><path d="m77.5 48v343"></path><path d="m406.5 48v343"></path><path d="m242.5 48v343"></path><path d="m572.5 48v343"></path><path d="m160.5 48v343"></path><path d="m490.5 48v343"></path><path d="m325.5 48v343"></path><path d="m35 200.5h620"></path><path d="m35 352.5h620"></path><path d="m35 124.5h620"></path><path d="m35 275.5h620"></path><path d="m35 163.5h620"></path><path d="m35 314.5h620"></path><path d="m35 85.5h620"></path><path d="m35 238.5h620"></path></g><path d="m195.813 300.479v-166.527c0-11.019 8.933-19.952 19.953-19.952h259.381c11.02 0 19.953 8.933 19.953 19.952v166.527" stroke="#bbbcbc" stroke-width="2"></path><path d="m183 300.176h324.913v6.674c0 10.467-8.485 18.953-18.952 18.953h-287.009c-10.467 0-18.952-8.486-18.952-18.953z" stroke="#bbbcbc" stroke-width="2"></path><path d="m369.246 300.479v3.837c0 3.39-2.749 6.139-6.139 6.139h-35.301c-3.39 0-6.139-2.749-6.139-6.139v-3.837" stroke="#bbbcbc" stroke-width="2"></path><path d="m215.766 300.479v-159.62c0-3.391 2.748-6.139 6.139-6.139h247.103c3.391 0 6.139 2.748 6.139 6.139v159.62" stroke="#bbbcbc" stroke-width="2"></path><path d="m427.869 287.99 2.613 3.741h2.038l-3.569-5.099c-.232-.328-.574-.632-1.111-.632-.515 0-.856.278-1.097.632l-3.482 5.099h2.067l.499-.735h3.353l-1.039-1.45h-1.337l1.057-1.561z" fill="#2d2d2d"></path><path d="m439.357 290.282-1.111 1.449h-2.791c-1.93 0-3.352-1.239-3.352-2.874 0-1.652 1.422-2.762 3.352-2.762h3.902l-1.111 1.466h-2.791c-.932 0-1.63.565-1.63 1.374s.69 1.349 1.63 1.349z" fill="#2d2d2d"></path><path d="m446.867 286.093-1.11 1.466h-1.989v4.172h-1.725v-4.172h-2.612l1.11-1.466z" fill="#2d2d2d"></path><path d="m456.449 286.093-1.111 1.466h-3.398v.734h4.193l-1.048 1.374h-3.145v2.064h-1.729v-5.638z" fill="#2d2d2d"></path><path d="m465 286.093-3.303 3.775v1.863h-1.73v-1.871l-3.394-3.767h2.212l1.332 1.567c.175.205.64.717.756.885.108-.159.303-.409.699-.893l1.265-1.559z" fill="#2d2d2d"></path><path d="m449.137 287.939h-1.721v3.792h1.721z" fill="#2d2d2d"></path><path d="m449.137 286.093h-1.721v1.467h1.721z" fill="#186fe0"></path><path d="m420.708 286.871-.832 4.639c.425-.183.797-.47 1.085-.836.288-.365.481-.797.564-1.257.082-.459.051-.933-.092-1.377-.142-.445-.391-.846-.725-1.169z" fill="#186fe0"></path><path d="m419.966 286.355c-.414-.197-.87-.287-1.326-.263-.457.024-.901.162-1.293.401-.392.238-.719.571-.954.969s-.37.848-.393 1.31z" fill="#186fe0"></path><path d="m419.045 291.038.195-.981.511-2.577-2.066 1.315-.13.083-.86.555-.564.356c.183.566.537 1.06 1.013 1.41s1.049.538 1.638.539h.125z" fill="#186fe0"></path><circle cx="311" cy="204" fill="#f2f2f2" r="2"></circle><circle cx="341" cy="241" fill="#f2f2f2" r="2"></circle><circle cx="317" cy="204" fill="#f2f2f2" r="2"></circle><circle cx="347" cy="241" fill="#f2f2f2" r="2"></circle><path d="m273 77h121v166h-121z" fill="#233741"></path><path d="m295 103h121v166h-121z" fill="#186fe0"></path><path d="m317 130.051 5.724 5.725 10.776-10.776" stroke="#fff" stroke-width="3.36735"></path><path d="m343 127.315h51" stroke="#fff" stroke-width="3.37"></path><path d="m343 134.315h25" stroke="#fff" stroke-width="3.37"></path><path d="m317 186.051 5.724 5.725 10.776-10.776" stroke="#fff" stroke-width="3.36735"></path><path d="m343 183.315h51" stroke="#fff" stroke-width="3.37"></path><path d="m343 190.315h25" stroke="#fff" stroke-width="3.37"></path><path d="m317 158.051 5.724 5.725 10.776-10.776" stroke="#fff" stroke-width="3.36735"></path><path d="m343 155.315h51" stroke="#fff" stroke-width="3.37"></path><path d="m343 162.315h25" stroke="#fff" stroke-width="3.37"></path><path d="m317 214.051 5.724 5.725 10.776-10.776" stroke="#fff" stroke-width="3.36735"></path><path d="m343 211.315h51" stroke="#fff" stroke-width="3.37"></path><path d="m343 218.315h25" stroke="#fff" stroke-width="3.37"></path><path d="m317 242.051 5.724 5.725 10.776-10.776" stroke="#fff" stroke-width="3.36735"></path><path d="m343 239.315h51" stroke="#fff" stroke-width="3.37"></path><path d="m343 246.315h25" stroke="#fff" stroke-width="3.37"></path></svg> 