<svg version="1.1" id="Layer_1" xmlns="http://www.w3.org/2000/svg" xmlns:xlink="http://www.w3.org/1999/xlink" x="0px" y="0px"
	 width="100%" viewBox="0 0 1600 1000" enable-background="new 0 0 1600 1000" xml:space="preserve">
<path fill="#006198" opacity="1.000000" stroke="none" 
	d="
M905.000000,1001.000000 
	C603.333313,1001.000000 302.166656,1001.000000 1.000000,1001.000000 
	C1.000000,667.666687 1.000000,334.333344 1.000000,1.000000 
	C534.333313,1.000000 1067.666626,1.000000 1601.000000,1.000000 
	C1601.000000,334.333344 1601.000000,667.666687 1601.000000,1001.000000 
	C1369.166626,1001.000000 1137.333374,1001.000000 905.000000,1001.000000 
M722.346436,786.866272 
	C722.346436,786.866272 722.145447,786.892273 722.145447,786.892273 
	C722.145447,786.892273 722.422546,786.921509 722.040588,786.315857 
	C641.737549,658.389771 661.700073,483.002991 783.840027,376.214722 
	C782.476807,375.198700 781.188904,374.171082 779.834839,373.239380 
	C733.297913,341.217896 681.879639,323.648834 625.415344,320.634674 
	C619.499817,320.318939 615.496521,321.915802 611.420837,325.978516 
	C543.902222,393.282074 514.340393,474.403931 530.420532,568.391357 
	C549.071899,677.407715 613.727600,749.693481 718.114258,786.301758 
	C719.412659,786.757080 720.925598,786.600403 722.346436,786.866272 
M1055.122437,421.374390 
	C979.782043,242.864685 770.237488,206.492783 645.325562,299.469116 
	C719.806335,308.366791 783.967407,338.716736 836.818237,391.749054 
	C889.790588,444.903320 920.051453,509.350739 929.127869,584.011780 
	C930.166443,583.591125 930.943481,583.337158 931.666321,582.974976 
	C989.266479,554.116760 1033.341187,511.314331 1063.789062,454.547852 
	C1064.747314,452.761261 1064.922485,449.980225 1064.309326,448.024353 
	C1061.576172,439.306000 1058.423340,430.719238 1055.122437,421.374390 
M701.264832,671.224609 
	C701.423889,671.871704 701.614563,672.512878 701.737488,673.166748 
	C709.926392,716.731689 727.245911,756.360107 753.247559,792.201172 
	C754.462524,793.875854 756.723816,795.494446 758.706543,795.804565 
	C792.820679,801.140076 826.817200,800.240967 860.484497,792.564575 
	C985.828857,763.985229 1073.585449,655.453308 1075.125977,527.014099 
	C1075.288086,513.490601 1074.003418,499.949707 1073.389893,486.416870 
	C1072.904053,486.317963 1072.418091,486.219055 1071.932251,486.120178 
	C1031.613892,548.014465 977.393860,592.677124 907.713562,617.465698 
	C837.819214,642.330322 767.421204,641.945557 695.368530,618.321594 
	C697.367798,636.414368 699.243896,653.392700 701.264832,671.224609 
z"/>
<path fill="#FEFFFF" opacity="1.000000" stroke="none" 
	d="
M722.338379,786.729431 
	C720.925598,786.600403 719.412659,786.757080 718.114258,786.301758 
	C613.727600,749.693481 549.071899,677.407715 530.420532,568.391357 
	C514.340393,474.403931 543.902222,393.282074 611.420837,325.978516 
	C615.496521,321.915802 619.499817,320.318939 625.415344,320.634674 
	C681.879639,323.648834 733.297913,341.217896 779.834839,373.239380 
	C781.188904,374.171082 782.476807,375.198700 783.840027,376.214722 
	C661.700073,483.002991 641.737549,658.389771 722.176758,786.585449 
	C722.312988,786.854980 722.338379,786.729431 722.338379,786.729431 
z"/>
<path fill="#FEFEFF" opacity="1.000000" stroke="none" 
	d="
M1055.272217,421.729675 
	C1058.423340,430.719238 1061.576172,439.306000 1064.309326,448.024353 
	C1064.922485,449.980225 1064.747314,452.761261 1063.789062,454.547852 
	C1033.341187,511.314331 989.266479,554.116760 931.666321,582.974976 
	C930.943481,583.337158 930.166443,583.591125 929.127869,584.011780 
	C920.051453,509.350739 889.790588,444.903320 836.818237,391.749054 
	C783.967407,338.716736 719.806335,308.366791 645.325562,299.469116 
	C770.237488,206.492783 979.782043,242.864685 1055.272217,421.729675 
z"/>
<path fill="#FEFFFF" opacity="1.000000" stroke="none" 
	d="
M701.192444,670.797852 
	C699.243896,653.392700 697.367798,636.414368 695.368530,618.321594 
	C767.421204,641.945557 837.819214,642.330322 907.713562,617.465698 
	C977.393860,592.677124 1031.613892,548.014465 1071.932251,486.120178 
	C1072.418091,486.219055 1072.904053,486.317963 1073.389893,486.416870 
	C1074.003418,499.949707 1075.288086,513.490601 1075.125977,527.014099 
	C1073.585449,655.453308 985.828857,763.985229 860.484497,792.564575 
	C826.817200,800.240967 792.820679,801.140076 758.706543,795.804565 
	C756.723816,795.494446 754.462524,793.875854 753.247559,792.201172 
	C727.245911,756.360107 709.926392,716.731689 701.737488,673.166748 
	C701.614563,672.512878 701.423889,671.871704 701.192444,670.797852 
z"/>
<path fill="#FEFFFF" opacity="1.000000" stroke="none" 
	d="
M722.367798,786.888245 
	C722.422546,786.921509 722.145447,786.892273 722.145447,786.892273 
	C722.145447,786.892273 722.346436,786.866272 722.342407,786.797852 
	C722.338379,786.729431 722.312988,786.854980 722.367798,786.888245 
z"/>
</svg>