<?xml version="1.0" encoding="UTF-8"?> <svg xmlns="http://www.w3.org/2000/svg" width="600" height="400" viewBox="0 0 600 400" fill="none"><rect width="600" height="400" fill="#186FE0"></rect><path d="M208.3 153.279L227.292 180.127H242.115L216.163 143.537C214.474 141.18 211.993 139 208.087 139C204.343 139 201.861 140.997 200.107 143.537L174.793 180.127H189.821L193.448 174.849H217.829L210.275 164.446H200.555L208.241 153.243L208.3 153.279Z" fill="white"></path><path d="M291.824 169.724L283.748 180.127H263.457C249.42 180.127 239.083 171.236 239.083 159.505C239.083 147.648 249.42 139.683 263.457 139.683H291.824L283.748 150.203H263.457C256.68 150.203 251.6 154.255 251.6 160.063C251.6 165.87 256.622 169.739 263.457 169.739L291.824 169.724Z" fill="white"></path><path d="M346.43 139.668L338.355 150.188H323.892V180.127H311.353V150.188H292.36L300.436 139.668H346.43Z" fill="white"></path><path d="M416.095 139.668L408.019 150.188H383.315V155.452H413.797L406.176 165.312H383.315V180.127H370.739V139.668H416.095Z" fill="white"></path><path d="M478.27 139.668L454.256 166.758V180.127H441.672V166.699L416.998 139.668H433.083L442.766 150.915C444.036 152.383 447.421 156.054 448.265 157.266C449.051 156.12 450.467 154.329 453.345 150.856L462.544 139.668H478.27Z" fill="white"></path><path d="M362.934 152.919H350.417V180.127H362.934V152.919Z" fill="white"></path><path d="M362.934 139.668H350.417V150.196H362.934V139.668Z" fill="white"></path><path d="M156.233 145.248L150.184 178.541C153.268 177.225 155.977 175.163 158.069 172.542C160.161 169.921 161.569 166.822 162.169 163.523C162.768 160.223 162.54 156.826 161.504 153.637C160.468 150.448 158.657 147.565 156.233 145.248Z" fill="white"></path><path d="M150.837 141.547C147.826 140.138 144.514 139.491 141.193 139.663C137.872 139.836 134.645 140.823 131.796 142.537C128.946 144.251 126.563 146.64 124.854 149.492C123.146 152.345 122.166 155.574 122 158.895L150.837 141.547Z" fill="white"></path><path d="M144.143 175.149L145.56 168.109L149.275 149.623L134.254 159.057L133.307 159.652L127.052 163.631L122.955 166.185C124.282 170.251 126.861 173.793 130.322 176.305C133.783 178.817 137.95 180.17 142.227 180.171C142.535 180.171 142.836 180.171 143.137 180.171L144.143 175.149Z" fill="white"></path><path d="M176.088 260.68H164.968L163.128 266H157.248L167.288 238.04H173.808L183.848 266H177.928L176.088 260.68ZM174.568 256.2L170.528 244.52L166.488 256.2H174.568ZM199.081 243.52C201.721 243.52 203.854 244.36 205.481 246.04C207.107 247.693 207.921 250.013 207.921 253V266H202.321V253.76C202.321 252 201.881 250.653 201.001 249.72C200.121 248.76 198.921 248.28 197.401 248.28C195.854 248.28 194.627 248.76 193.721 249.72C192.841 250.653 192.401 252 192.401 253.76V266H186.801V243.84H192.401V246.6C193.147 245.64 194.094 244.893 195.241 244.36C196.414 243.8 197.694 243.52 199.081 243.52ZM211.006 254.84C211.006 252.6 211.446 250.613 212.326 248.88C213.233 247.147 214.446 245.813 215.966 244.88C217.513 243.947 219.233 243.48 221.126 243.48C222.779 243.48 224.219 243.813 225.446 244.48C226.699 245.147 227.699 245.987 228.446 247V243.84H234.086V266H228.446V262.76C227.726 263.8 226.726 264.667 225.446 265.36C224.193 266.027 222.739 266.36 221.086 266.36C219.219 266.36 217.513 265.88 215.966 264.92C214.446 263.96 213.233 262.613 212.326 260.88C211.446 259.12 211.006 257.107 211.006 254.84ZM228.446 254.92C228.446 253.56 228.179 252.4 227.646 251.44C227.113 250.453 226.393 249.707 225.486 249.2C224.579 248.667 223.606 248.4 222.566 248.4C221.526 248.4 220.566 248.653 219.686 249.16C218.806 249.667 218.086 250.413 217.526 251.4C216.993 252.36 216.726 253.507 216.726 254.84C216.726 256.173 216.993 257.347 217.526 258.36C218.086 259.347 218.806 260.107 219.686 260.64C220.593 261.173 221.553 261.44 222.566 261.44C223.606 261.44 224.579 261.187 225.486 260.68C226.393 260.147 227.113 259.4 227.646 258.44C228.179 257.453 228.446 256.28 228.446 254.92ZM244.355 236.4V266H238.755V236.4H244.355ZM270.288 243.84L256.568 276.48H250.608L255.408 265.44L246.528 243.84H252.808L258.528 259.32L264.328 243.84H270.288ZM280.987 266.36C279.174 266.36 277.547 266.04 276.107 265.4C274.667 264.733 273.52 263.84 272.667 262.72C271.84 261.6 271.387 260.36 271.307 259H276.947C277.054 259.853 277.467 260.56 278.187 261.12C278.934 261.68 279.854 261.96 280.947 261.96C282.014 261.96 282.84 261.747 283.427 261.32C284.04 260.893 284.347 260.347 284.347 259.68C284.347 258.96 283.974 258.427 283.227 258.08C282.507 257.707 281.347 257.307 279.747 256.88C278.094 256.48 276.734 256.067 275.667 255.64C274.627 255.213 273.72 254.56 272.947 253.68C272.2 252.8 271.827 251.613 271.827 250.12C271.827 248.893 272.174 247.773 272.867 246.76C273.587 245.747 274.6 244.947 275.907 244.36C277.24 243.773 278.8 243.48 280.587 243.48C283.227 243.48 285.334 244.147 286.907 245.48C288.48 246.787 289.347 248.56 289.507 250.8H284.147C284.067 249.92 283.694 249.227 283.027 248.72C282.387 248.187 281.52 247.92 280.427 247.92C279.414 247.92 278.627 248.107 278.067 248.48C277.534 248.853 277.267 249.373 277.267 250.04C277.267 250.787 277.64 251.36 278.387 251.76C279.134 252.133 280.294 252.52 281.867 252.92C283.467 253.32 284.787 253.733 285.827 254.16C286.867 254.587 287.76 255.253 288.507 256.16C289.28 257.04 289.68 258.213 289.707 259.68C289.707 260.96 289.347 262.107 288.627 263.12C287.934 264.133 286.92 264.933 285.587 265.52C284.28 266.08 282.747 266.36 280.987 266.36ZM300.024 248.44V259.16C300.024 259.907 300.197 260.453 300.544 260.8C300.917 261.12 301.53 261.28 302.384 261.28H304.984V266H301.464C296.744 266 294.384 263.707 294.384 259.12V248.44H291.744V243.84H294.384V238.36H300.024V243.84H304.984V248.44H300.024ZM331.343 266L325.183 255.12H322.543V266H316.943V238.08H327.423C329.583 238.08 331.423 238.467 332.943 239.24C334.463 239.987 335.596 241.013 336.343 242.32C337.116 243.6 337.503 245.04 337.503 246.64C337.503 248.48 336.969 250.147 335.903 251.64C334.836 253.107 333.249 254.12 331.143 254.68L337.823 266H331.343ZM322.543 250.92H327.223C328.743 250.92 329.876 250.56 330.623 249.84C331.369 249.093 331.743 248.067 331.743 246.76C331.743 245.48 331.369 244.493 330.623 243.8C329.876 243.08 328.743 242.72 327.223 242.72H322.543V250.92ZM362.368 254.44C362.368 255.24 362.314 255.96 362.208 256.6H346.008C346.141 258.2 346.701 259.453 347.688 260.36C348.674 261.267 349.888 261.72 351.328 261.72C353.408 261.72 354.888 260.827 355.768 259.04H361.808C361.168 261.173 359.941 262.933 358.128 264.32C356.314 265.68 354.088 266.36 351.448 266.36C349.314 266.36 347.394 265.893 345.688 264.96C344.008 264 342.688 262.653 341.728 260.92C340.794 259.187 340.328 257.187 340.328 254.92C340.328 252.627 340.794 250.613 341.728 248.88C342.661 247.147 343.968 245.813 345.648 244.88C347.328 243.947 349.261 243.48 351.448 243.48C353.554 243.48 355.434 243.933 357.088 244.84C358.768 245.747 360.061 247.04 360.968 248.72C361.901 250.373 362.368 252.28 362.368 254.44ZM356.568 252.84C356.541 251.4 356.021 250.253 355.008 249.4C353.994 248.52 352.754 248.08 351.288 248.08C349.901 248.08 348.728 248.507 347.768 249.36C346.834 250.187 346.261 251.347 346.048 252.84H356.568ZM371.255 247.04C371.975 246.027 372.962 245.187 374.215 244.52C375.495 243.827 376.949 243.48 378.575 243.48C380.469 243.48 382.175 243.947 383.695 244.88C385.242 245.813 386.455 247.147 387.335 248.88C388.242 250.587 388.695 252.573 388.695 254.84C388.695 257.107 388.242 259.12 387.335 260.88C386.455 262.613 385.242 263.96 383.695 264.92C382.175 265.88 380.469 266.36 378.575 266.36C376.949 266.36 375.509 266.027 374.255 265.36C373.029 264.693 372.029 263.853 371.255 262.84V276.56H365.655V243.84H371.255V247.04ZM382.975 254.84C382.975 253.507 382.695 252.36 382.135 251.4C381.602 250.413 380.882 249.667 379.975 249.16C379.095 248.653 378.135 248.4 377.095 248.4C376.082 248.4 375.122 248.667 374.215 249.2C373.335 249.707 372.615 250.453 372.055 251.44C371.522 252.427 371.255 253.587 371.255 254.92C371.255 256.253 371.522 257.413 372.055 258.4C372.615 259.387 373.335 260.147 374.215 260.68C375.122 261.187 376.082 261.44 377.095 261.44C378.135 261.44 379.095 261.173 379.975 260.64C380.882 260.107 381.602 259.347 382.135 258.36C382.695 257.373 382.975 256.2 382.975 254.84ZM401.805 266.36C399.671 266.36 397.751 265.893 396.045 264.96C394.338 264 392.991 262.653 392.005 260.92C391.045 259.187 390.565 257.187 390.565 254.92C390.565 252.653 391.058 250.653 392.045 248.92C393.058 247.187 394.431 245.853 396.165 244.92C397.898 243.96 399.831 243.48 401.965 243.48C404.098 243.48 406.031 243.96 407.765 244.92C409.498 245.853 410.858 247.187 411.845 248.92C412.858 250.653 413.365 252.653 413.365 254.92C413.365 257.187 412.845 259.187 411.805 260.92C410.791 262.653 409.405 264 407.645 264.96C405.911 265.893 403.965 266.36 401.805 266.36ZM401.805 261.48C402.818 261.48 403.765 261.24 404.645 260.76C405.551 260.253 406.271 259.507 406.805 258.52C407.338 257.533 407.605 256.333 407.605 254.92C407.605 252.813 407.045 251.2 405.925 250.08C404.831 248.933 403.485 248.36 401.885 248.36C400.285 248.36 398.938 248.933 397.845 250.08C396.778 251.2 396.245 252.813 396.245 254.92C396.245 257.027 396.765 258.653 397.805 259.8C398.871 260.92 400.205 261.48 401.805 261.48ZM422.272 247.28C422.992 246.107 423.926 245.187 425.072 244.52C426.246 243.853 427.579 243.52 429.072 243.52V249.4H427.592C425.832 249.4 424.499 249.813 423.592 250.64C422.712 251.467 422.272 252.907 422.272 254.96V266H416.672V243.84H422.272V247.28ZM438.564 248.44V259.16C438.564 259.907 438.738 260.453 439.084 260.8C439.458 261.12 440.071 261.28 440.924 261.28H443.524V266H440.004C435.284 266 432.924 263.707 432.924 259.12V248.44H430.284V243.84H432.924V238.36H438.564V243.84H443.524V248.44H438.564Z" fill="white"></path></svg> 