<?xml version="1.0" encoding="UTF-8"?> <svg xmlns="http://www.w3.org/2000/svg" fill="none" height="1220" viewBox="0 0 1200 1220" width="1200"><path d="m0 0h1200v1220h-1200z" fill="#ea533c"></path><g fill="#fff"><path d="m387.903 899.009v-11.66h68.906v11.66h-28.242v77.168h-12.364v-77.168zm72.539 54.023v-33.867h11.66v30.586c0 2.852.195 5.274.586 7.266.39 1.953 1.093 3.711 2.109 5.273 1.016 1.563 2.481 2.735 4.395 3.516 1.914.742 4.316 1.113 7.207 1.113 2.89 0 5.293-.371 7.207-1.113 1.953-.781 3.437-1.953 4.453-3.516 1.055-1.562 1.777-3.32 2.168-5.273.39-1.992.586-4.414.586-7.266v-30.586h11.484v33.867c0 16.485-8.633 24.727-25.898 24.727-17.305 0-25.957-8.242-25.957-24.727zm62.578-22.91v-10.957h8.965v-19.336h11.66v19.336h15.469v10.957h-15.469v27.188c0 3.437.527 5.898 1.582 7.383 1.054 1.484 3.047 2.226 5.976 2.226 2.891 0 5.02-.273 6.387-.82v10.312c-2.226.899-5.234 1.348-9.023 1.348-2.735 0-5.118-.371-7.149-1.113-1.992-.703-3.594-1.621-4.804-2.754-1.172-1.133-2.129-2.559-2.872-4.277-.703-1.719-1.171-3.438-1.406-5.157-.234-1.718-.351-3.652-.351-5.801v-28.535zm46.816 32.813c-2.656-4.57-3.984-9.551-3.984-14.942 0-5.39 1.308-10.371 3.926-14.941 2.656-4.57 6.269-8.203 10.839-10.898 4.61-2.696 9.649-4.043 15.118-4.043 5.429 0 10.449 1.347 15.058 4.043 4.649 2.656 8.321 6.289 11.016 10.898 2.695 4.57 4.043 9.551 4.043 14.941 0 5.352-1.348 10.313-4.043 14.883-2.695 4.571-6.367 8.203-11.016 10.899-4.609 2.656-9.629 3.984-15.058 3.984-5.391 0-10.391-1.328-15-3.984-4.571-2.657-8.204-6.27-10.899-10.84zm7.383-14.824c0 5.117 1.797 9.531 5.391 13.242 3.632 3.711 8.046 5.566 13.242 5.566 5.195 0 9.59-1.875 13.183-5.625 3.594-3.789 5.391-8.262 5.391-13.418s-1.816-9.59-5.449-13.301c-3.594-3.71-7.969-5.566-13.125-5.566-5.235 0-9.649 1.895-13.242 5.684-3.594 3.789-5.391 8.261-5.391 13.418zm63.047 28.066v-57.012h11.484v6.856c2.656-3.164 5.567-5.274 8.731-6.328 3.164-1.055 7.656-1.582 13.476-1.582v11.015c-4.57 0-8.379.43-11.426 1.289-3.007.86-5.273 2.149-6.796 3.867-1.524 1.68-2.579 3.497-3.164 5.45-.547 1.914-.821 4.218-.821 6.914v29.531zm45.879-70.371c-1.406-1.445-2.11-3.223-2.11-5.332s.704-3.867 2.11-5.274c1.445-1.445 3.222-2.168 5.332-2.168 2.109 0 3.847.723 5.215 2.168 1.406 1.407 2.109 3.165 2.109 5.274s-.703 3.887-2.109 5.332c-1.368 1.406-3.106 2.109-5.215 2.109-2.11 0-3.887-.703-5.332-2.109zm-.528 70.371v-57.012h11.602v57.012zm26.016-28.184c0-4.14.781-8.066 2.344-11.777 1.601-3.711 3.75-6.875 6.445-9.492 2.695-2.656 5.899-4.746 9.609-6.27 3.711-1.562 7.618-2.343 11.719-2.343 7.852 0 14.219 2.793 19.102 8.379v-7.325h11.484v57.012h-11.484v-6.738c-4.727 5.547-11.094 8.32-19.102 8.32-4.179 0-8.125-.762-11.836-2.285-3.711-1.563-6.914-3.652-9.609-6.27-2.656-2.656-4.766-5.82-6.328-9.492-1.563-3.711-2.344-7.617-2.344-11.719zm11.367 0c0 5.352 1.797 9.844 5.391 13.477s8.047 5.449 13.359 5.449c5.391 0 9.883-1.836 13.477-5.508 3.594-3.711 5.39-8.183 5.39-13.418 0-5.234-1.816-9.707-5.449-13.418-3.633-3.71-8.105-5.566-13.418-5.566-5.312 0-9.765 1.836-13.359 5.508s-5.391 8.164-5.391 13.476zm68.555 13.653v-74.297h11.484v70.723c0 3.164.489 5.429 1.465 6.796 1.016 1.368 2.891 2.051 5.625 2.051 1.211 0 2.168-.039 2.871-.117v10.078c-2.422.586-4.531.879-6.328.879-4.726 0-8.437-1.387-11.133-4.16-2.656-2.813-3.984-6.797-3.984-11.953z"></path><path d="m773 495.625h-75.688l-38.925-80.012c4.325-8.65 6.488-17.301 6.488-28.113 0-28.112-17.3-51.9-43.25-60.55v-25.95h-43.25v25.95c-25.95 8.65-43.25 32.438-43.25 60.55 0 10.812 2.163 19.463 6.488 28.113l-38.925 80.012h-75.688v43.25h54.062l-54.062 108.125 64.875-21.625 43.25-86.5h129.75l43.25 86.5 64.875 21.625-54.062-108.125h54.062zm-216.25 0 23.787-47.575c6.488 2.163 12.975 4.325 19.463 4.325s12.975-2.162 19.462-4.325l23.788 47.575z"></path></g></svg> 