<svg version="1.1" id="Layer_1" xmlns="http://www.w3.org/2000/svg" xmlns:xlink="http://www.w3.org/1999/xlink" x="0px" y="0px"
	 width="100%" viewBox="0 0 1600 1000" enable-background="new 0 0 1600 1000" xml:space="preserve">
<path fill="#006198" opacity="1.000000" stroke="none" 
	d="
M1028.000000,1001.000000 
	C685.333313,1001.000000 343.166656,1001.000000 1.000000,1001.000000 
	C1.000000,667.666687 1.000000,334.333344 1.000000,1.000000 
	C534.333313,1.000000 1067.666626,1.000000 1601.000000,1.000000 
	C1601.000000,334.333344 1601.000000,667.666687 1601.000000,1001.000000 
	C1410.166626,1001.000000 1219.333374,1001.000000 1028.000000,1001.000000 
M345.702240,373.844604 
	C327.320099,362.502411 307.318359,355.883514 285.765564,355.354614 
	C237.382034,354.167206 198.942459,373.662811 173.557541,414.810608 
	C148.290466,455.767365 147.845291,498.876984 170.612701,541.278503 
	C197.009720,590.439758 254.333160,615.226196 308.902161,602.239197 
	C363.466248,589.253418 403.361084,541.312927 404.900116,485.548767 
	C406.219330,437.749908 386.033752,400.704742 345.702240,373.844604 
M597.465332,485.031860 
	C591.760803,481.662811 586.406433,477.294159 580.274170,475.146393 
	C569.641418,471.422424 558.480408,469.235046 547.631104,466.091705 
	C540.152222,463.924835 532.427368,462.032379 525.520874,458.594177 
	C514.230164,452.973419 512.565186,438.515167 522.121582,430.196075 
	C525.848206,426.951904 530.871643,424.421234 535.699707,423.354095 
	C555.565979,418.963135 573.718872,422.696991 589.212769,436.588104 
	C589.795044,437.110107 590.461304,437.538361 591.353027,438.209442 
	C593.316528,434.548248 595.133179,431.210510 596.902466,427.847839 
	C598.656677,424.514008 600.363281,421.155121 602.025513,417.933533 
	C593.700867,410.019714 583.876282,404.461456 571.672119,401.582306 
	C551.416443,396.803680 531.513977,397.251404 513.275940,408.559174 
	C499.024841,417.394958 492.822632,430.908539 493.444855,447.519684 
	C494.060425,463.953827 503.303131,474.641022 517.802917,480.374023 
	C528.397766,484.563080 539.662354,487.178497 550.773315,489.904968 
	C560.333740,492.250916 570.008606,494.051117 578.230774,499.914124 
	C584.080078,504.085114 587.149597,509.561676 586.270813,517.016663 
	C585.135071,526.651550 578.511597,533.875427 567.136719,536.906372 
	C552.302063,540.859009 537.516174,540.248352 523.780457,533.335327 
	C514.989807,528.911011 507.098175,522.700500 498.534393,517.115173 
	C495.379456,522.751892 491.668457,529.382141 487.959290,536.009155 
	C488.711823,536.901550 489.199524,537.574829 489.782440,538.151917 
	C491.083557,539.440186 492.376190,540.746460 493.769928,541.930420 
	C512.163574,557.555115 533.577271,563.526367 557.369812,561.526428 
	C571.649902,560.326111 584.702881,555.934448 595.476257,545.973267 
	C613.337402,529.458679 613.627869,498.889160 597.465332,485.031860 
M1293.294067,426.917664 
	C1297.089600,430.744904 1302.160889,433.930481 1304.463501,438.508636 
	C1315.400635,460.254395 1301.862915,481.961426 1277.653564,482.172394 
	C1262.330200,482.305939 1247.004761,482.200439 1231.680176,482.201965 
	C1228.072632,482.202332 1224.464966,482.201996 1220.619629,482.201996 
	C1220.619629,508.359283 1220.619629,533.928711 1220.619629,559.671997 
	C1228.225708,559.671997 1235.584961,559.671997 1243.338867,559.671997 
	C1243.338867,541.369385 1243.338867,523.440247 1243.338867,505.042358 
	C1250.185181,505.042358 1256.646606,505.248962 1263.085815,504.960602 
	C1266.635986,504.801575 1268.809204,505.921906 1270.883789,508.863129 
	C1282.208374,524.918274 1293.747314,540.822693 1305.275757,556.733154 
	C1306.194458,558.000854 1307.562012,559.817444 1308.772583,559.858521 
	C1316.944214,560.135986 1325.129761,560.003174 1334.164185,560.003174 
	C1320.185547,540.509216 1306.877930,521.951111 1293.572144,503.395447 
	C1294.439087,502.770782 1294.677124,502.485565 1294.972046,502.403076 
	C1315.413452,496.685394 1333.254761,476.800812 1329.997192,444.332825 
	C1327.652222,420.959595 1311.482056,404.668579 1284.800293,402.175049 
	C1263.821655,400.214478 1242.566284,401.213257 1221.433472,400.924835 
	C1221.170532,400.921265 1220.902588,401.280823 1220.555542,401.529144 
	C1220.555542,408.593292 1220.555542,415.710876 1220.555542,423.482758 
	C1222.526489,423.482758 1224.305786,423.482635 1226.084961,423.482727 
	C1242.742065,423.483765 1259.405273,423.231232 1276.052856,423.628906 
	C1281.587524,423.761108 1287.082275,425.562103 1293.294067,426.917664 
M740.489258,487.971954 
	C753.714539,471.552643 756.386292,453.006897 750.179321,433.387970 
	C743.970337,413.762726 728.381226,404.776184 709.258545,402.319489 
	C695.794006,400.589722 682.030029,401.115845 668.395752,400.811615 
	C660.096924,400.626434 651.790649,400.777466 643.367676,400.777466 
	C643.367676,408.489594 643.367676,415.737518 643.367676,423.481171 
	C645.564392,423.481171 647.534485,423.467987 649.504333,423.483185 
	C667.650513,423.623352 685.820618,423.249908 703.934692,424.087677 
	C716.788391,424.682129 726.057800,432.685699 729.073120,443.558075 
	C735.158875,465.501434 722.730957,482.053894 699.959045,482.181915 
	C682.972473,482.277405 665.984985,482.202179 648.997864,482.202972 
	C647.213135,482.203033 645.428406,482.202942 643.504272,482.202942 
	C643.504272,508.431000 643.504272,534.111694 643.504272,559.709290 
	C651.131958,559.709290 658.378662,559.709290 666.180908,559.709290 
	C666.180908,541.337280 666.180908,523.297424 666.180908,505.033325 
	C678.224182,505.033325 689.705261,505.194244 701.179993,504.993469 
	C716.291077,504.729065 729.570801,499.890686 740.489258,487.971954 
M990.476135,475.500427 
	C990.476135,450.726959 990.476135,425.953522 990.476135,401.118011 
	C982.637817,401.118011 975.401001,401.118011 967.659424,401.118011 
	C967.659424,437.132233 967.659424,472.814545 967.659424,509.621490 
	C930.807800,471.825104 894.768494,434.861908 857.833496,396.980042 
	C857.833496,407.154236 857.655273,415.929626 857.958557,424.688354 
	C858.034607,426.884644 859.119934,429.551636 860.647949,431.118225 
	C902.749084,474.285858 944.966370,517.340149 987.176208,560.401794 
	C988.004700,561.247131 988.974854,561.953430 990.476013,563.233887 
	C990.476013,533.736328 990.476013,505.118408 990.476135,475.500427 
M1434.499512,560.048340 
	C1440.585083,560.048340 1446.670776,560.048340 1452.696777,560.048340 
	C1452.696777,552.109131 1452.696777,544.871460 1452.696777,537.134399 
	C1430.161987,537.134399 1407.931885,537.134399 1385.547607,537.134399 
	C1385.547607,521.876892 1385.547607,507.124969 1385.547607,491.737640 
	C1404.463257,491.737640 1423.166138,491.737640 1441.838501,491.737640 
	C1441.838501,483.999695 1441.838501,476.900787 1441.838501,469.623383 
	C1415.385498,469.623383 1389.201782,469.623383 1362.864990,469.623383 
	C1362.864990,499.871887 1362.864990,529.776367 1362.864990,560.048340 
	C1386.587036,560.048340 1410.043335,560.048340 1434.499512,560.048340 
M1155.326538,541.498779 
	C1155.326538,547.593445 1155.326538,553.688110 1155.326538,559.722290 
	C1163.323975,559.722290 1170.571045,559.722290 1177.915771,559.722290 
	C1177.915771,506.647919 1177.915771,453.903625 1177.915771,401.190186 
	C1170.305664,401.190186 1162.929443,401.190186 1155.326538,401.190186 
	C1155.326538,447.905273 1155.326538,494.202209 1155.326538,541.498779 
M811.955444,455.500000 
	C811.955444,437.398590 811.955444,419.297150 811.955444,401.037048 
	C804.125244,401.037048 796.877686,401.037048 789.492920,401.037048 
	C789.492920,454.135193 789.492920,506.973083 789.492920,559.704651 
	C797.133179,559.704651 804.382446,559.704651 811.955444,559.704651 
	C811.955444,525.074585 811.955444,490.787292 811.955444,455.500000 
M1053.078857,547.487305 
	C1053.078857,529.060791 1053.078857,510.634247 1053.078857,491.767456 
	C1072.341187,491.767456 1090.931396,491.767456 1109.664062,491.767456 
	C1109.664062,484.108215 1109.664062,476.901459 1109.664062,469.638184 
	C1083.095825,469.638184 1056.878052,469.638184 1030.617310,469.638184 
	C1030.617310,499.906708 1030.617310,529.806274 1030.617310,559.718994 
	C1038.211060,559.718994 1045.453369,559.718994 1053.078857,559.718994 
	C1053.078857,555.750244 1053.078857,552.115234 1053.078857,547.487305 
M880.604492,542.497925 
	C880.604919,519.856812 880.628479,497.215637 880.560181,474.574738 
	C880.554932,472.837402 880.490051,470.539032 879.454529,469.456879 
	C872.611145,462.305847 865.494446,455.416260 858.148926,448.126068 
	C858.148926,485.706696 858.148926,522.726624 858.148926,559.720947 
	C865.714355,559.720947 872.947205,559.720947 880.604431,559.720947 
	C880.604431,554.095825 880.604431,548.796265 880.604492,542.497925 
M1107.485840,423.476135 
	C1111.942993,423.476135 1116.400146,423.476135 1120.970337,423.476135 
	C1120.970337,415.687958 1120.970337,408.449524 1120.970337,401.184265 
	C1090.663940,401.184265 1060.663086,401.184265 1030.504395,401.184265 
	C1030.504395,408.678497 1030.504395,415.770203 1030.504395,423.476105 
	C1055.975830,423.476105 1081.233398,423.476105 1107.485840,423.476135 
M1433.499756,400.788025 
	C1409.937500,400.788025 1386.375244,400.788025 1362.850098,400.788025 
	C1362.850098,408.702911 1362.850098,415.806335 1362.850098,423.153931 
	C1392.955811,423.153931 1422.800049,423.153931 1452.701660,423.153931 
	C1452.701660,415.594849 1452.701660,408.351318 1452.701660,400.788025 
	C1446.436890,400.788025 1440.468140,400.788025 1433.499756,400.788025 
M868.133179,702.635254 
	C868.838806,701.318542 869.626099,700.038513 870.237427,698.679382 
	C876.599365,684.534851 873.325989,666.646301 862.593689,656.752563 
	C851.471863,646.499756 834.477722,644.349426 821.331604,651.531555 
	C808.689575,658.438293 801.551208,672.568420 803.338989,687.147339 
	C805.214844,702.444763 814.885742,714.038269 828.827881,717.703613 
	C843.829956,721.647522 858.442200,716.234131 868.133179,702.635254 
M901.282288,689.669800 
	C904.470154,689.145203 906.464600,690.352478 908.022827,693.308777 
	C911.044556,699.041748 915.039185,704.313599 917.602783,710.222412 
	C920.419128,716.713928 924.551453,719.399963 931.406982,717.993286 
	C931.839355,717.904541 932.261108,717.764282 933.111755,717.532471 
	C927.443298,708.006226 921.906616,698.701599 916.355713,689.372925 
	C917.289795,688.790527 917.675476,688.404846 918.130249,688.287964 
	C927.619812,685.849243 933.135681,677.065125 932.472351,667.458374 
	C931.754089,657.056763 925.535706,650.084961 914.320923,648.870972 
	C905.012390,647.863342 895.508057,648.664734 886.021545,648.664734 
	C886.021545,671.705017 886.021545,694.745605 886.021545,717.671143 
	C889.139221,717.671143 891.880859,717.671143 895.026978,717.671143 
	C895.026978,708.236938 895.026978,699.139954 895.026978,689.669739 
	C897.082397,689.669739 898.715088,689.669739 901.282288,689.669800 
M972.139771,701.521545 
	C970.235596,706.877625 968.331421,712.233643 966.371765,717.745728 
	C975.909729,718.376709 975.910950,718.377136 978.844421,710.248718 
	C979.238281,709.157471 979.745361,708.085632 979.970032,706.958984 
	C980.623901,703.680176 982.309082,702.378174 985.848816,702.583618 
	C991.652954,702.920410 997.490967,702.674561 1003.314697,702.674500 
	C1011.931213,702.674438 1011.931274,702.674500 1014.877625,710.958618 
	C1017.754944,719.048523 1018.337769,719.359131 1026.919678,717.230652 
	C1019.133423,695.681702 1011.231201,674.193726 1003.688843,652.580139 
	C1002.358398,648.767578 1000.207031,648.479797 996.993713,648.603638 
	C993.837402,648.725281 991.269531,648.355652 989.821289,652.601196 
	C984.308655,668.762024 978.233765,684.730957 972.139771,701.521545 
M688.004272,705.384827 
	C694.421082,716.702637 706.683960,721.432495 720.169373,717.790894 
	C731.537659,714.721069 737.949646,705.732056 738.013306,692.675598 
	C738.055481,684.020264 738.021423,675.364441 738.021484,666.708862 
	C738.021484,660.609863 738.021484,654.510864 738.021484,648.446655 
	C734.665894,648.446655 731.949951,648.446655 728.978516,648.446655 
	C728.978516,651.442444 728.998108,654.089478 728.975220,656.736206 
	C728.862854,669.712646 729.199890,682.714844 728.470947,695.656921 
	C727.907227,705.665527 721.378723,710.825012 711.513428,710.638550 
	C701.269592,710.444946 695.319275,704.982910 694.946777,694.677429 
	C694.568237,684.204834 694.735779,673.712280 694.683533,663.228333 
	C694.658875,658.284058 694.679260,653.339478 694.679260,648.392090 
	C691.270081,648.392090 688.519409,648.392090 685.705811,648.392090 
	C685.705811,664.789917 685.617676,680.893188 685.795959,696.993591 
	C685.824341,699.559692 687.048767,702.112671 688.004272,705.384827 
M776.706238,660.576294 
	C776.800232,659.141418 776.894226,657.706543 777.025696,655.699951 
	C783.391785,655.699951 789.449890,655.699951 795.326111,655.699951 
	C795.326111,652.847839 795.326111,650.602783 795.326111,648.390808 
	C779.537109,648.390808 764.128418,648.390808 748.578857,648.390808 
	C748.578857,650.951660 748.578857,653.195923 748.578857,656.018616 
	C754.909790,656.018616 760.973694,656.018616 767.519897,656.018616 
	C767.519897,676.991577 767.519897,697.387512 767.519897,717.733521 
	C770.786621,717.733521 773.542175,717.733521 776.705994,717.733521 
	C776.705994,698.810608 776.705994,680.187988 776.706238,660.576294 
M653.499878,648.076477 
	C644.900146,648.076477 636.300476,648.076477 627.582642,648.076477 
	C627.582642,650.959900 627.582642,653.204102 627.582642,656.025696 
	C633.917603,656.025696 639.981873,656.025696 646.527161,656.025696 
	C646.527161,676.996460 646.527161,697.390930 646.527161,717.730713 
	C649.792725,717.730713 652.547302,717.730713 655.825073,717.730713 
	C655.825073,697.047852 655.825073,676.664917 655.825073,655.690674 
	C662.402283,655.690674 668.459656,655.690674 674.321655,655.690674 
	C674.321655,652.838379 674.321655,650.593323 674.321655,648.076477 
	C667.460632,648.076477 660.980225,648.076477 653.499878,648.076477 
M1047.897583,689.499878 
	C1047.897583,675.876953 1047.897583,662.253967 1047.897583,648.369995 
	C1044.645630,648.369995 1041.893433,648.369995 1038.953003,648.369995 
	C1038.953003,671.583740 1038.953003,694.665649 1038.953003,717.725342 
	C1050.164795,717.725342 1061.080811,717.725342 1072.009521,717.725342 
	C1072.009521,715.180176 1072.009521,712.931091 1072.009521,710.271484 
	C1063.923218,710.271484 1056.160278,710.271484 1047.897583,710.271484 
	C1047.897583,703.408813 1047.897583,696.954285 1047.897583,689.499878 
M955.891296,714.257446 
	C955.891296,692.369324 955.891296,670.481140 955.891296,648.352966 
	C952.608948,648.352966 949.867737,648.352966 946.896484,648.352966 
	C946.896484,671.592285 946.896484,694.639893 946.896484,718.004089 
	C949.254456,718.004089 951.455017,718.284363 953.519897,717.877014 
	C954.449219,717.693665 955.107849,716.138062 955.891296,714.257446 
z"/>
<path fill="#FCFDFE" opacity="1.000000" stroke="none" 
	d="
M346.019958,374.021088 
	C386.033752,400.704742 406.219330,437.749908 404.900116,485.548767 
	C403.361084,541.312927 363.466248,589.253418 308.902161,602.239197 
	C254.333160,615.226196 197.009720,590.439758 170.612701,541.278503 
	C147.845291,498.876984 148.290466,455.767365 173.557541,414.810608 
	C198.942459,373.662811 237.382034,354.167206 285.765564,355.354614 
	C307.318359,355.883514 327.320099,362.502411 346.019958,374.021088 
M238.119736,505.680542 
	C239.955490,476.029694 252.090302,451.281708 274.241760,430.921783 
	C258.873657,420.042816 242.258453,414.120514 223.910721,412.783813 
	C220.606964,412.543152 218.327957,413.553009 216.021149,415.857117 
	C181.603455,450.234131 180.508514,505.823883 213.682571,541.438232 
	C224.535400,553.089417 237.535324,561.347961 253.956192,566.475647 
	C242.688904,547.338440 237.411942,527.736267 238.119736,505.680542 
M357.340118,433.196777 
	C339.743225,405.715576 314.817688,390.686981 282.056244,389.575470 
	C262.906921,388.925751 245.342194,394.154083 229.215576,405.181091 
	C282.368134,415.280487 312.991302,446.676758 322.695190,498.884369 
	C338.820618,492.383209 359.263947,472.984406 366.046692,457.597473 
	C366.632996,456.267456 366.693848,454.281219 366.147736,452.948608 
	C363.506165,446.503052 360.573517,440.176758 357.340118,433.196777 
M252.845459,547.564087 
	C255.600616,552.869385 258.469147,558.119690 261.077057,563.496399 
	C263.389862,568.264587 267.145538,569.778870 272.252594,570.090332 
	C321.601624,573.099060 362.188599,540.675110 369.465698,491.742096 
	C370.601685,484.103485 369.624573,476.150574 369.624573,467.505432 
	C331.531921,513.123474 304.236664,522.702576 246.151077,511.446747 
	C244.837112,519.123657 247.467697,533.743286 252.845459,547.564087 
z"/>
<path fill="#FBFDFD" opacity="1.000000" stroke="none" 
	d="
M597.728271,485.268005 
	C613.627869,498.889160 613.337402,529.458679 595.476257,545.973267 
	C584.702881,555.934448 571.649902,560.326111 557.369812,561.526428 
	C533.577271,563.526367 512.163574,557.555115 493.769928,541.930420 
	C492.376190,540.746460 491.083557,539.440186 489.782440,538.151917 
	C489.199524,537.574829 488.711823,536.901550 487.959290,536.009155 
	C491.668457,529.382141 495.379456,522.751892 498.534393,517.115173 
	C507.098175,522.700500 514.989807,528.911011 523.780457,533.335327 
	C537.516174,540.248352 552.302063,540.859009 567.136719,536.906372 
	C578.511597,533.875427 585.135071,526.651550 586.270813,517.016663 
	C587.149597,509.561676 584.080078,504.085114 578.230774,499.914124 
	C570.008606,494.051117 560.333740,492.250916 550.773315,489.904968 
	C539.662354,487.178497 528.397766,484.563080 517.802917,480.374023 
	C503.303131,474.641022 494.060425,463.953827 493.444855,447.519684 
	C492.822632,430.908539 499.024841,417.394958 513.275940,408.559174 
	C531.513977,397.251404 551.416443,396.803680 571.672119,401.582306 
	C583.876282,404.461456 593.700867,410.019714 602.025513,417.933533 
	C600.363281,421.155121 598.656677,424.514008 596.902466,427.847839 
	C595.133179,431.210510 593.316528,434.548248 591.353027,438.209442 
	C590.461304,437.538361 589.795044,437.110107 589.212769,436.588104 
	C573.718872,422.696991 555.565979,418.963135 535.699707,423.354095 
	C530.871643,424.421234 525.848206,426.951904 522.121582,430.196075 
	C512.565186,438.515167 514.230164,452.973419 525.520874,458.594177 
	C532.427368,462.032379 540.152222,463.924835 547.631104,466.091705 
	C558.480408,469.235046 569.641418,471.422424 580.274170,475.146393 
	C586.406433,477.294159 591.760803,481.662811 597.728271,485.268005 
z"/>
<path fill="#FBFDFD" opacity="1.000000" stroke="none" 
	d="
M1292.944702,426.758911 
	C1287.082275,425.562103 1281.587524,423.761108 1276.052856,423.628906 
	C1259.405273,423.231232 1242.742065,423.483765 1226.084961,423.482727 
	C1224.305786,423.482635 1222.526489,423.482758 1220.555542,423.482758 
	C1220.555542,415.710876 1220.555542,408.593292 1220.555542,401.529144 
	C1220.902588,401.280823 1221.170532,400.921265 1221.433472,400.924835 
	C1242.566284,401.213257 1263.821655,400.214478 1284.800293,402.175049 
	C1311.482056,404.668579 1327.652222,420.959595 1329.997192,444.332825 
	C1333.254761,476.800812 1315.413452,496.685394 1294.972046,502.403076 
	C1294.677124,502.485565 1294.439087,502.770782 1293.572144,503.395447 
	C1306.877930,521.951111 1320.185547,540.509216 1334.164185,560.003174 
	C1325.129761,560.003174 1316.944214,560.135986 1308.772583,559.858521 
	C1307.562012,559.817444 1306.194458,558.000854 1305.275757,556.733154 
	C1293.747314,540.822693 1282.208374,524.918274 1270.883789,508.863129 
	C1268.809204,505.921906 1266.635986,504.801575 1263.085815,504.960602 
	C1256.646606,505.248962 1250.185181,505.042358 1243.338867,505.042358 
	C1243.338867,523.440247 1243.338867,541.369385 1243.338867,559.671997 
	C1235.584961,559.671997 1228.225708,559.671997 1220.619629,559.671997 
	C1220.619629,533.928711 1220.619629,508.359283 1220.619629,482.201996 
	C1224.464966,482.201996 1228.072632,482.202332 1231.680176,482.201965 
	C1247.004761,482.200439 1262.330200,482.305939 1277.653564,482.172394 
	C1301.862915,481.961426 1315.400635,460.254395 1304.463501,438.508636 
	C1302.160889,433.930481 1297.089600,430.744904 1292.944702,426.758911 
z"/>
<path fill="#FBFDFE" opacity="1.000000" stroke="none" 
	d="
M740.250122,488.236206 
	C729.570801,499.890686 716.291077,504.729065 701.179993,504.993469 
	C689.705261,505.194244 678.224182,505.033325 666.180908,505.033325 
	C666.180908,523.297424 666.180908,541.337280 666.180908,559.709290 
	C658.378662,559.709290 651.131958,559.709290 643.504272,559.709290 
	C643.504272,534.111694 643.504272,508.431000 643.504272,482.202942 
	C645.428406,482.202942 647.213135,482.203033 648.997864,482.202972 
	C665.984985,482.202179 682.972473,482.277405 699.959045,482.181915 
	C722.730957,482.053894 735.158875,465.501434 729.073120,443.558075 
	C726.057800,432.685699 716.788391,424.682129 703.934692,424.087677 
	C685.820618,423.249908 667.650513,423.623352 649.504333,423.483185 
	C647.534485,423.467987 645.564392,423.481171 643.367676,423.481171 
	C643.367676,415.737518 643.367676,408.489594 643.367676,400.777466 
	C651.790649,400.777466 660.096924,400.626434 668.395752,400.811615 
	C682.030029,401.115845 695.794006,400.589722 709.258545,402.319489 
	C728.381226,404.776184 743.970337,413.762726 750.179321,433.387970 
	C756.386292,453.006897 753.714539,471.552643 740.250122,488.236206 
z"/>
<path fill="#FDFEFE" opacity="1.000000" stroke="none" 
	d="
M990.476074,476.000427 
	C990.476013,505.118408 990.476013,533.736328 990.476013,563.233887 
	C988.974854,561.953430 988.004700,561.247131 987.176208,560.401794 
	C944.966370,517.340149 902.749084,474.285858 860.647949,431.118225 
	C859.119934,429.551636 858.034607,426.884644 857.958557,424.688354 
	C857.655273,415.929626 857.833496,407.154236 857.833496,396.980042 
	C894.768494,434.861908 930.807800,471.825104 967.659424,509.621490 
	C967.659424,472.814545 967.659424,437.132233 967.659424,401.118011 
	C975.401001,401.118011 982.637817,401.118011 990.476135,401.118011 
	C990.476135,425.953522 990.476135,450.726959 990.476074,476.000427 
z"/>
<path fill="#FBFDFD" opacity="1.000000" stroke="none" 
	d="
M1433.999512,560.048340 
	C1410.043335,560.048340 1386.587036,560.048340 1362.864990,560.048340 
	C1362.864990,529.776367 1362.864990,499.871887 1362.864990,469.623383 
	C1389.201782,469.623383 1415.385498,469.623383 1441.838501,469.623383 
	C1441.838501,476.900787 1441.838501,483.999695 1441.838501,491.737640 
	C1423.166138,491.737640 1404.463257,491.737640 1385.547607,491.737640 
	C1385.547607,507.124969 1385.547607,521.876892 1385.547607,537.134399 
	C1407.931885,537.134399 1430.161987,537.134399 1452.696777,537.134399 
	C1452.696777,544.871460 1452.696777,552.109131 1452.696777,560.048340 
	C1446.670776,560.048340 1440.585083,560.048340 1433.999512,560.048340 
z"/>
<path fill="#FAFCFD" opacity="1.000000" stroke="none" 
	d="
M1155.326538,540.998962 
	C1155.326538,494.202209 1155.326538,447.905273 1155.326538,401.190186 
	C1162.929443,401.190186 1170.305664,401.190186 1177.915771,401.190186 
	C1177.915771,453.903625 1177.915771,506.647919 1177.915771,559.722290 
	C1170.571045,559.722290 1163.323975,559.722290 1155.326538,559.722290 
	C1155.326538,553.688110 1155.326538,547.593445 1155.326538,540.998962 
z"/>
<path fill="#FBFDFD" opacity="1.000000" stroke="none" 
	d="
M811.955444,456.000000 
	C811.955444,490.787292 811.955444,525.074585 811.955444,559.704651 
	C804.382446,559.704651 797.133179,559.704651 789.492920,559.704651 
	C789.492920,506.973083 789.492920,454.135193 789.492920,401.037048 
	C796.877686,401.037048 804.125244,401.037048 811.955444,401.037048 
	C811.955444,419.297150 811.955444,437.398590 811.955444,456.000000 
z"/>
<path fill="#F8FBFC" opacity="1.000000" stroke="none" 
	d="
M1053.078857,547.983765 
	C1053.078857,552.115234 1053.078857,555.750244 1053.078857,559.718994 
	C1045.453369,559.718994 1038.211060,559.718994 1030.617310,559.718994 
	C1030.617310,529.806274 1030.617310,499.906708 1030.617310,469.638184 
	C1056.878052,469.638184 1083.095825,469.638184 1109.664062,469.638184 
	C1109.664062,476.901459 1109.664062,484.108215 1109.664062,491.767456 
	C1090.931396,491.767456 1072.341187,491.767456 1053.078857,491.767456 
	C1053.078857,510.634247 1053.078857,529.060791 1053.078857,547.983765 
z"/>
<path fill="#F9FBFD" opacity="1.000000" stroke="none" 
	d="
M880.604492,542.997314 
	C880.604431,548.796265 880.604431,554.095825 880.604431,559.720947 
	C872.947205,559.720947 865.714355,559.720947 858.148926,559.720947 
	C858.148926,522.726624 858.148926,485.706696 858.148926,448.126068 
	C865.494446,455.416260 872.611145,462.305847 879.454529,469.456879 
	C880.490051,470.539032 880.554932,472.837402 880.560181,474.574738 
	C880.628479,497.215637 880.604919,519.856812 880.604492,542.997314 
z"/>
<path fill="#FDFEFE" opacity="1.000000" stroke="none" 
	d="
M1106.988403,423.476135 
	C1081.233398,423.476105 1055.975830,423.476105 1030.504395,423.476105 
	C1030.504395,415.770203 1030.504395,408.678497 1030.504395,401.184265 
	C1060.663086,401.184265 1090.663940,401.184265 1120.970337,401.184265 
	C1120.970337,408.449524 1120.970337,415.687958 1120.970337,423.476135 
	C1116.400146,423.476135 1111.942993,423.476135 1106.988403,423.476135 
z"/>
<path fill="#FEFFFF" opacity="1.000000" stroke="none" 
	d="
M1433.999634,400.788025 
	C1440.468140,400.788025 1446.436890,400.788025 1452.701660,400.788025 
	C1452.701660,408.351318 1452.701660,415.594849 1452.701660,423.153931 
	C1422.800049,423.153931 1392.955811,423.153931 1362.850098,423.153931 
	C1362.850098,415.806335 1362.850098,408.702911 1362.850098,400.788025 
	C1386.375244,400.788025 1409.937500,400.788025 1433.999634,400.788025 
z"/>
<path fill="#F6F8FA" opacity="1.000000" stroke="none" 
	d="
M867.959106,702.953186 
	C858.442200,716.234131 843.829956,721.647522 828.827881,717.703613 
	C814.885742,714.038269 805.214844,702.444763 803.338989,687.147339 
	C801.551208,672.568420 808.689575,658.438293 821.331604,651.531555 
	C834.477722,644.349426 851.471863,646.499756 862.593689,656.752563 
	C873.325989,666.646301 876.599365,684.534851 870.237427,698.679382 
	C869.626099,700.038513 868.838806,701.318542 867.959106,702.953186 
M820.131592,703.352722 
	C835.185852,716.713318 857.428955,711.244507 862.418518,692.511292 
	C863.896667,686.961548 863.753113,680.600281 862.805603,674.866516 
	C861.075684,664.397949 852.060730,656.785706 841.866760,655.788086 
	C829.387268,654.566833 819.401855,659.726501 815.202637,670.493225 
	C810.754089,681.899353 811.654358,692.944275 820.131592,703.352722 
z"/>
<path fill="#F7F9FB" opacity="1.000000" stroke="none" 
	d="
M900.815063,689.669800 
	C898.715088,689.669739 897.082397,689.669739 895.026978,689.669739 
	C895.026978,699.139954 895.026978,708.236938 895.026978,717.671143 
	C891.880859,717.671143 889.139221,717.671143 886.021545,717.671143 
	C886.021545,694.745605 886.021545,671.705017 886.021545,648.664734 
	C895.508057,648.664734 905.012390,647.863342 914.320923,648.870972 
	C925.535706,650.084961 931.754089,657.056763 932.472351,667.458374 
	C933.135681,677.065125 927.619812,685.849243 918.130249,688.287964 
	C917.675476,688.404846 917.289795,688.790527 916.355713,689.372925 
	C921.906616,698.701599 927.443298,708.006226 933.111755,717.532471 
	C932.261108,717.764282 931.839355,717.904541 931.406982,717.993286 
	C924.551453,719.399963 920.419128,716.713928 917.602783,710.222412 
	C915.039185,704.313599 911.044556,699.041748 908.022827,693.308777 
	C906.464600,690.352478 904.470154,689.145203 900.815063,689.669800 
M899.589539,655.893982 
	C898.144104,655.971680 896.698608,656.049438 895.155334,656.132446 
	C895.155334,664.869568 895.155334,673.276794 895.155334,681.960693 
	C900.701355,681.960693 906.025879,682.338379 911.275146,681.870850 
	C918.854980,681.195679 923.226074,675.801514 922.981995,668.296814 
	C922.746033,661.041809 918.286194,656.535889 910.560852,656.002075 
	C907.242798,655.772766 903.898743,655.918579 899.589539,655.893982 
z"/>
<path fill="#F6F8FA" opacity="1.000000" stroke="none" 
	d="
M972.254395,701.146545 
	C978.233765,684.730957 984.308655,668.762024 989.821289,652.601196 
	C991.269531,648.355652 993.837402,648.725281 996.993713,648.603638 
	C1000.207031,648.479797 1002.358398,648.767578 1003.688843,652.580139 
	C1011.231201,674.193726 1019.133423,695.681702 1026.919678,717.230652 
	C1018.337769,719.359131 1017.754944,719.048523 1014.877625,710.958618 
	C1011.931274,702.674500 1011.931213,702.674438 1003.314697,702.674500 
	C997.490967,702.674561 991.652954,702.920410 985.848816,702.583618 
	C982.309082,702.378174 980.623901,703.680176 979.970032,706.958984 
	C979.745361,708.085632 979.238281,709.157471 978.844421,710.248718 
	C975.910950,718.377136 975.909729,718.376709 966.371765,717.745728 
	C968.331421,712.233643 970.235596,706.877625 972.254395,701.146545 
M994.254639,666.924377 
	C991.017212,676.084351 987.779785,685.244324 984.416565,694.760132 
	C992.920044,694.760132 1000.762146,694.760132 1009.008911,694.760132 
	C1006.916992,688.848328 1004.963440,683.251221 1002.955078,677.673950 
	C1000.992188,672.222717 998.973389,666.791687 996.636475,660.417114 
	C995.697998,663.127502 995.157837,664.687622 994.254639,666.924377 
z"/>
<path fill="#F5F7FA" opacity="1.000000" stroke="none" 
	d="
M687.862244,705.028259 
	C687.048767,702.112671 685.824341,699.559692 685.795959,696.993591 
	C685.617676,680.893188 685.705811,664.789917 685.705811,648.392090 
	C688.519409,648.392090 691.270081,648.392090 694.679260,648.392090 
	C694.679260,653.339478 694.658875,658.284058 694.683533,663.228333 
	C694.735779,673.712280 694.568237,684.204834 694.946777,694.677429 
	C695.319275,704.982910 701.269592,710.444946 711.513428,710.638550 
	C721.378723,710.825012 727.907227,705.665527 728.470947,695.656921 
	C729.199890,682.714844 728.862854,669.712646 728.975220,656.736206 
	C728.998108,654.089478 728.978516,651.442444 728.978516,648.446655 
	C731.949951,648.446655 734.665894,648.446655 738.021484,648.446655 
	C738.021484,654.510864 738.021484,660.609863 738.021484,666.708862 
	C738.021423,675.364441 738.055481,684.020264 738.013306,692.675598 
	C737.949646,705.732056 731.537659,714.721069 720.169373,717.790894 
	C706.683960,721.432495 694.421082,716.702637 687.862244,705.028259 
z"/>
<path fill="#EDF2F6" opacity="1.000000" stroke="none" 
	d="
M776.706116,661.070801 
	C776.705994,680.187988 776.705994,698.810608 776.705994,717.733521 
	C773.542175,717.733521 770.786621,717.733521 767.519897,717.733521 
	C767.519897,697.387512 767.519897,676.991577 767.519897,656.018616 
	C760.973694,656.018616 754.909790,656.018616 748.578857,656.018616 
	C748.578857,653.195923 748.578857,650.951660 748.578857,648.390808 
	C764.128418,648.390808 779.537109,648.390808 795.326111,648.390808 
	C795.326111,650.602783 795.326111,652.847839 795.326111,655.699951 
	C789.449890,655.699951 783.391785,655.699951 777.025696,655.699951 
	C776.894226,657.706543 776.800232,659.141418 776.706116,661.070801 
z"/>
<path fill="#EDF2F6" opacity="1.000000" stroke="none" 
	d="
M653.999817,648.076477 
	C660.980225,648.076477 667.460632,648.076477 674.321655,648.076477 
	C674.321655,650.593323 674.321655,652.838379 674.321655,655.690674 
	C668.459656,655.690674 662.402283,655.690674 655.825073,655.690674 
	C655.825073,676.664917 655.825073,697.047852 655.825073,717.730713 
	C652.547302,717.730713 649.792725,717.730713 646.527161,717.730713 
	C646.527161,697.390930 646.527161,676.996460 646.527161,656.025696 
	C639.981873,656.025696 633.917603,656.025696 627.582642,656.025696 
	C627.582642,653.204102 627.582642,650.959900 627.582642,648.076477 
	C636.300476,648.076477 644.900146,648.076477 653.999817,648.076477 
z"/>
<path fill="#F7F9FB" opacity="1.000000" stroke="none" 
	d="
M1047.897583,689.999756 
	C1047.897583,696.954285 1047.897583,703.408813 1047.897583,710.271484 
	C1056.160278,710.271484 1063.923218,710.271484 1072.009521,710.271484 
	C1072.009521,712.931091 1072.009521,715.180176 1072.009521,717.725342 
	C1061.080811,717.725342 1050.164795,717.725342 1038.953003,717.725342 
	C1038.953003,694.665649 1038.953003,671.583740 1038.953003,648.369995 
	C1041.893433,648.369995 1044.645630,648.369995 1047.897583,648.369995 
	C1047.897583,662.253967 1047.897583,675.876953 1047.897583,689.999756 
z"/>
<path fill="#F9FBFD" opacity="1.000000" stroke="none" 
	d="
M955.890259,714.731201 
	C955.107849,716.138062 954.449219,717.693665 953.519897,717.877014 
	C951.455017,718.284363 949.254456,718.004089 946.896484,718.004089 
	C946.896484,694.639893 946.896484,671.592285 946.896484,648.352966 
	C949.867737,648.352966 952.608948,648.352966 955.891296,648.352966 
	C955.891296,670.481140 955.891296,692.369324 955.890259,714.731201 
z"/>
<path fill="#026299" opacity="1.000000" stroke="none" 
	d="
M238.105499,506.159058 
	C237.411942,527.736267 242.688904,547.338440 253.956192,566.475647 
	C237.535324,561.347961 224.535400,553.089417 213.682571,541.438232 
	C180.508514,505.823883 181.603455,450.234131 216.021149,415.857117 
	C218.327957,413.553009 220.606964,412.543152 223.910721,412.783813 
	C242.258453,414.120514 258.873657,420.042816 274.241760,430.921783 
	C252.090302,451.281708 239.955490,476.029694 238.105499,506.159058 
z"/>
<path fill="#026299" opacity="1.000000" stroke="none" 
	d="
M357.542084,433.502502 
	C360.573517,440.176758 363.506165,446.503052 366.147736,452.948608 
	C366.693848,454.281219 366.632996,456.267456 366.046692,457.597473 
	C359.263947,472.984406 338.820618,492.383209 322.695190,498.884369 
	C312.991302,446.676758 282.368134,415.280487 229.215576,405.181091 
	C245.342194,394.154083 262.906921,388.925751 282.056244,389.575470 
	C314.817688,390.686981 339.743225,405.715576 357.542084,433.502502 
z"/>
<path fill="#026299" opacity="1.000000" stroke="none" 
	d="
M252.684784,547.214600 
	C247.467697,533.743286 244.837112,519.123657 246.151077,511.446747 
	C304.236664,522.702576 331.531921,513.123474 369.624573,467.505432 
	C369.624573,476.150574 370.601685,484.103485 369.465698,491.742096 
	C362.188599,540.675110 321.601624,573.099060 272.252594,570.090332 
	C267.145538,569.778870 263.389862,568.264587 261.077057,563.496399 
	C258.469147,558.119690 255.600616,552.869385 252.684784,547.214600 
z"/>
<path fill="#026298" opacity="1.000000" stroke="none" 
	d="
M819.876709,703.094849 
	C811.654358,692.944275 810.754089,681.899353 815.202637,670.493225 
	C819.401855,659.726501 829.387268,654.566833 841.866760,655.788086 
	C852.060730,656.785706 861.075684,664.397949 862.805603,674.866516 
	C863.753113,680.600281 863.896667,686.961548 862.418518,692.511292 
	C857.428955,711.244507 835.185852,716.713318 819.876709,703.094849 
z"/>
<path fill="#026298" opacity="1.000000" stroke="none" 
	d="
M900.078003,655.893982 
	C903.898743,655.918579 907.242798,655.772766 910.560852,656.002075 
	C918.286194,656.535889 922.746033,661.041809 922.981995,668.296814 
	C923.226074,675.801514 918.854980,681.195679 911.275146,681.870850 
	C906.025879,682.338379 900.701355,681.960693 895.155334,681.960693 
	C895.155334,673.276794 895.155334,664.869568 895.155334,656.132446 
	C896.698608,656.049438 898.144104,655.971680 900.078003,655.893982 
z"/>
<path fill="#026299" opacity="1.000000" stroke="none" 
	d="
M994.436157,666.586060 
	C995.157837,664.687622 995.697998,663.127502 996.636475,660.417114 
	C998.973389,666.791687 1000.992188,672.222717 1002.955078,677.673950 
	C1004.963440,683.251221 1006.916992,688.848328 1009.008911,694.760132 
	C1000.762146,694.760132 992.920044,694.760132 984.416565,694.760132 
	C987.779785,685.244324 991.017212,676.084351 994.436157,666.586060 
z"/>
</svg>