<?xml version="1.0" encoding="UTF-8"?> <svg xmlns="http://www.w3.org/2000/svg" width="112" height="23" viewBox="0 0 112 23" fill="none"><g clip-path="url(#clip0_189_569)"><path d="M54.6834 17.1782H51.4911V12.6788H54.7138C56.2637 12.6788 56.9932 13.6819 56.9932 14.8983C56.9932 16.1136 56.2335 17.1782 54.6834 17.1782ZM59.0302 10.3689V10.3077C60.6715 9.36604 61.553 7.51171 61.553 5.68759C61.553 1.94829 58.5132 0.00302888 54.1664 0.00302888H38.4219L39.6019 4.56306H51.4911H53.8809H54.1358C55.5645 4.56306 56.1425 5.41375 56.1425 6.41665C56.1425 7.45092 55.5645 8.42368 54.2275 8.42368H53.8809H51.4911H46.1719V21.7373H54.1664C58.4825 21.7373 62.4342 20.0043 62.4342 15.2627C62.4342 13.3478 61.5224 11.1285 59.0302 10.3689Z" fill="white"></path><path d="M11.2111 4.79723H28.5083L29.6364 0.00263939H10.9866V0.0131787C4.67372 0.124701 0 4.85973 0 11.0045C0 17.3425 4.51455 22.0962 11.2111 22.0962H20.3113V17.2999H11.2111C7.42277 17.169 5.41142 13.9879 5.41142 10.8841C5.41142 7.86752 7.28276 4.91525 11.2111 4.79723Z" fill="white"></path><mask id="mask0_189_569" style="mask-type:luminance" maskUnits="userSpaceOnUse" x="17" y="0" width="11" height="5"><path d="M27.2104 4.79688H17.4805V0.00228463H27.2104V4.79688Z" fill="white"></path></mask><g mask="url(#mask0_189_569)"><path d="M27.2104 4.79688H17.4805V0.00228463H27.2104V4.79688Z" fill="url(#paint0_linear_189_569)"></path></g><mask id="mask1_189_569" style="mask-type:luminance" maskUnits="userSpaceOnUse" x="38" y="0" width="10" height="5"><path d="M38.1055 0.00247377H47.8352V4.5625H38.1055V0.00247377Z" fill="white"></path></mask><g mask="url(#mask1_189_569)"><path d="M38.1055 0.00247377H47.8352V4.5625H38.1055V0.00247377Z" fill="url(#paint1_linear_189_569)"></path></g><path d="M30.7684 13.0429L23.5469 0.00263939H29.6362L32.1147 5.31764C32.8185 6.83159 33.431 8.49988 33.431 8.49988H33.4918C33.4918 8.49988 34.104 6.83159 34.808 5.31764L37.2562 0.00263939H43.3455L36.1237 13.0429V22.0962H30.7684V13.0429Z" fill="white"></path><path d="M84.7422 0.361125H89.9733V21.7373H84.7422V0.361125Z" fill="white"></path><path d="M100.759 17.2529C104.376 17.2529 106.589 15.0999 106.589 11.0049C106.589 6.93872 104.287 4.84621 100.759 4.84621H98.6067V17.2529H100.759ZM93.375 0.361125H100.968C107.695 0.361125 112 4.27824 112 11.0049C112 17.7316 107.695 21.7373 100.968 21.7373H93.375V0.361125Z" fill="white"></path><path d="M78.2328 14.2628C77.7242 13.3658 77.4252 12.9779 77.4252 12.9779V12.9184C79.5478 11.8415 80.6244 9.36003 80.6244 7.0878C80.6244 3.97903 79.0999 1.79608 76.6783 0.86953C75.7512 0.511434 74.7052 0.361125 72.5225 0.361125H65.0781V4.84621H70.3099H70.4116H72.074C74.7052 4.84621 75.5722 5.44341 75.5722 7.05741C75.5722 8.76217 74.2566 9.14967 72.5826 9.14967H70.4116H70.3099H65.0781V21.7373H70.3099V14.5326H72.7621L76.5582 21.7373H82.3886L78.2328 14.2628Z" fill="white"></path></g><defs><linearGradient id="paint0_linear_189_569" x1="17.8905" y1="5.40461" x2="26.8005" y2="-0.60532" gradientUnits="userSpaceOnUse"><stop stop-color="white"></stop><stop offset="0.00439116" stop-color="white"></stop><stop offset="0.32232" stop-color="#E9F0F4"></stop><stop offset="0.526105" stop-color="white"></stop><stop offset="0.75396" stop-color="#EDF1F3"></stop><stop offset="1" stop-color="#F0F3F4"></stop></linearGradient><linearGradient id="paint1_linear_189_569" x1="47.5514" y1="5.03518" x2="38.3894" y2="-0.469928" gradientUnits="userSpaceOnUse"><stop stop-color="white"></stop><stop offset="0.00439116" stop-color="white"></stop><stop offset="0.111827" stop-color="#E8EBED"></stop><stop offset="0.366945" stop-color="white"></stop><stop offset="0.724353" stop-color="#F2F9FF"></stop><stop offset="1" stop-color="white"></stop></linearGradient><clipPath id="clip0_189_569"><rect width="112" height="22.0961" fill="white"></rect></clipPath></defs></svg> 