<?xml version="1.0" encoding="UTF-8" standalone="no"?> <svg xmlns:dc="http://purl.org/dc/elements/1.1/" xmlns:cc="http://creativecommons.org/ns#" xmlns:rdf="http://www.w3.org/1999/02/22-rdf-syntax-ns#" xmlns:svg="http://www.w3.org/2000/svg" xmlns="http://www.w3.org/2000/svg" viewBox="0 0 243.70667 48.080002" height="48.080002" width="243.70667" xml:space="preserve" id="svg2" version="1.1"><metadata id="metadata8"></metadata><defs id="defs6"><clipPath id="clipPath24"><path id="path22" d="M 444.07,282.309 H 285.281 v 78.246 H 444.07 Z"></path></clipPath><linearGradient id="linearGradient38" spreadMethod="pad" gradientTransform="matrix(145.409,98.0799,98.0799,-145.409,291.972,272.391)" gradientUnits="userSpaceOnUse" y2="0" x2="1" y1="0" x1="0"><stop id="stop26" offset="0" style="stop-opacity:1;stop-color:#459fdd"></stop><stop id="stop28" offset="0.00439116" style="stop-opacity:1;stop-color:#459fdd"></stop><stop id="stop30" offset="0.32232" style="stop-opacity:1;stop-color:#459fdd"></stop><stop id="stop32" offset="0.526105" style="stop-opacity:1;stop-color:#459fdd"></stop><stop id="stop34" offset="0.75396" style="stop-opacity:1;stop-color:#3b88c7"></stop><stop id="stop36" offset="1" style="stop-opacity:1;stop-color:#3b88c7"></stop></linearGradient><clipPath id="clipPath48"><path id="path46" d="M 621.949,360.555 H 780.734 V 286.137 H 621.949 Z"></path></clipPath><linearGradient id="linearGradient62" spreadMethod="pad" gradientTransform="matrix(-149.521,89.8414,89.8414,149.521,776.104,278.423)" gradientUnits="userSpaceOnUse" y2="0" x2="1" y1="0" x1="0"><stop id="stop50" offset="0" style="stop-opacity:1;stop-color:#459fdd"></stop><stop id="stop52" offset="0.00439116" style="stop-opacity:1;stop-color:#459fdd"></stop><stop id="stop54" offset="0.111827" style="stop-opacity:1;stop-color:#459fdd"></stop><stop id="stop56" offset="0.366945" style="stop-opacity:1;stop-color:#459fdd"></stop><stop id="stop58" offset="0.724353" style="stop-opacity:1;stop-color:#3b88c7"></stop><stop id="stop60" offset="1" style="stop-opacity:1;stop-color:#3b88c7"></stop></linearGradient></defs><g transform="matrix(1.3333333,0,0,-1.3333333,0,48.08)" id="g10"><g transform="scale(0.1)" id="g12"><path id="path14" style="fill:#459edd;fill-opacity:1;fill-rule:nonzero;stroke:none" d="m 892.461,80.2617 h -52.098 v 73.4293 h 52.594 c 25.293,0 37.199,-16.371 37.199,-36.222 0,-19.8323 -12.398,-37.2073 -37.695,-37.2073 z m 70.937,111.1253 v 1 c 26.786,15.367 41.172,45.629 41.172,75.398 0,61.024 -49.609,92.77 -120.547,92.77 H 627.078 l 19.258,-74.418 h 194.027 39 4.16 c 23.317,0 32.75,-13.883 32.75,-30.25 0,-16.879 -9.433,-32.754 -31.253,-32.754 h -5.657 -39 -86.808 V 5.85938 h 130.468 c 70.438,0 134.927,28.28122 134.927,105.66362 0,31.25 -14.88,67.469 -55.552,79.864"></path><path id="path16" style="fill:#459edd;fill-opacity:1;fill-rule:nonzero;stroke:none" d="m 182.961,282.309 h 282.285 l 18.41,78.246 H 179.297 v -0.172 C 76.2734,358.563 0,281.289 0,181.008 0,77.5742 73.6758,-0.00390625 182.961,-0.00390625 H 331.473 V 78.2695 H 182.961 C 121.137,80.4063 88.3125,132.32 88.3125,182.973 c 0,49.23 30.5395,97.41 94.6485,99.336"></path><g id="g18"><g clip-path="url(#clipPath24)" id="g20"><path id="path40" style="fill:url(#linearGradient38);fill-opacity:1;fill-rule:nonzero;stroke:none" d="M 444.07,282.309 H 285.281 v 78.246 H 444.07 v -78.246"></path></g></g><g id="g42"><g clip-path="url(#clipPath48)" id="g44"><path id="path64" style="fill:url(#linearGradient62);fill-opacity:1;fill-rule:nonzero;stroke:none" d="M 621.949,360.555 H 780.734 V 286.137 H 621.949 v 74.418"></path></g></g><path id="path66" style="fill:#459edd;fill-opacity:1;fill-rule:nonzero;stroke:none" d="M 502.133,147.742 384.281,360.555 h 99.375 l 40.449,-86.739 c 11.485,-24.707 21.481,-51.933 21.481,-51.933 h 0.992 c 0,0 9.992,27.226 21.481,51.933 l 39.953,86.739 h 99.375 L 589.531,147.742 V -0.00390625 H 502.133 V 147.742"></path><path id="path68" style="fill:#459edd;fill-opacity:1;fill-rule:nonzero;stroke:none" d="m 1382.95,354.711 h 85.37 V 5.85938 h -85.37 V 354.711"></path><path id="path70" style="fill:#459edd;fill-opacity:1;fill-rule:nonzero;stroke:none" d="m 1644.36,79.043 c 59.03,0 95.14,35.137 95.14,101.965 0,66.359 -37.57,100.508 -95.14,100.508 h -35.13 V 79.043 Z m -120.51,275.668 h 123.92 c 109.78,0 180.03,-63.926 180.03,-173.703 C 1827.8,71.2305 1757.55,5.85938 1647.77,5.85938 H 1523.85 V 354.711"></path><path id="path72" style="fill:#459edd;fill-opacity:1;fill-rule:nonzero;stroke:none" d="m 1276.68,127.84 c -8.3,14.64 -13.18,20.969 -13.18,20.969 v 0.972 c 34.64,17.574 52.21,58.071 52.21,95.153 0,50.734 -24.88,86.359 -64.4,101.48 -15.13,5.844 -32.2,8.297 -67.82,8.297 H 1062 v -73.195 h 85.38 1.66 27.13 c 42.94,0 57.09,-9.746 57.09,-36.086 0,-27.821 -21.47,-34.145 -48.79,-34.145 h -35.43 -1.66 H 1062 V 5.85938 h 85.38 V 123.438 h 40.02 L 1249.35,5.85938 h 95.15 L 1276.68,127.84"></path></g></g></svg> 