<?xml version="1.0" encoding="UTF-8"?> <svg xmlns="http://www.w3.org/2000/svg" width="154" height="31" viewBox="0 0 154 31" fill="none"><g clip-path="url(#clip0_189_569)"><path d="M75.1917 23.62H70.8022V17.4332H75.2335C77.3645 17.4332 78.3677 18.8126 78.3677 20.4851C78.3677 22.156 77.3231 23.62 75.1917 23.62ZM81.1684 14.2572V14.1729C83.4253 12.8782 84.6374 10.3285 84.6374 7.82031C84.6374 2.67878 80.4576 0.0040428 74.4808 0.0040428H52.832L54.4546 6.27408H70.8022H74.0881H74.4386C76.4032 6.27408 77.198 7.44378 77.198 8.82277C77.198 10.2449 76.4032 11.5824 74.5648 11.5824H74.0881H70.8022H63.4883V29.8887H74.4808C80.4155 29.8887 85.8489 27.5059 85.8489 20.9861C85.8489 18.3531 84.5952 15.3015 81.1684 14.2572Z" fill="white"></path><path d="M15.4152 6.59625H39.199L40.7501 0.0036912H15.1065V0.0181827C6.42636 0.171525 0 6.68219 0 15.1313C0 23.846 6.2075 30.3823 15.4152 30.3823H27.928V23.7875H15.4152C10.2063 23.6074 7.44071 19.2335 7.44071 14.9657C7.44071 10.8179 10.0138 6.75853 15.4152 6.59625Z" fill="white"></path><mask id="mask0_189_569" style="mask-type:luminance" maskUnits="userSpaceOnUse" x="24" y="0" width="14" height="7"><path d="M37.4099 6.5957H24.0312V0.0031414H37.4099V6.5957Z" fill="white"></path></mask><g mask="url(#mask0_189_569)"><path d="M37.4099 6.5957H24.0312V0.0031414H37.4099V6.5957Z" fill="url(#paint0_linear_189_569)"></path></g><mask id="mask1_189_569" style="mask-type:luminance" maskUnits="userSpaceOnUse" x="52" y="0" width="14" height="7"><path d="M52.3984 0.00291374H65.7768V6.27295H52.3984V0.00291374Z" fill="white"></path></mask><g mask="url(#mask1_189_569)"><path d="M52.3984 0.00291374H65.7768V6.27295H52.3984V0.00291374Z" fill="url(#paint1_linear_189_569)"></path></g><path d="M42.3084 17.9341L32.3789 0.0036912H40.7517L44.1597 7.31182C45.1273 9.39349 45.9695 11.6874 45.9695 11.6874H46.0531C46.0531 11.6874 46.895 9.39349 47.863 7.31182L51.2292 0.0036912H59.602L49.6721 17.9341V30.3823H42.3084V17.9341Z" fill="white"></path><path d="M116.52 0.496424H123.712V29.8887H116.52V0.496424Z" fill="white"></path><path d="M138.544 23.7226C143.518 23.7226 146.56 20.7622 146.56 15.1316C146.56 9.54062 143.395 6.66342 138.544 6.66342H135.584V23.7226H138.544ZM128.391 0.496424H138.831C148.081 0.496424 154 5.88246 154 15.1316C154 24.3809 148.081 29.8887 138.831 29.8887H128.391V0.496424Z" fill="white"></path><path d="M107.568 19.6113C106.869 18.3778 106.458 17.8446 106.458 17.8446V17.7627C109.376 16.282 110.857 12.8699 110.857 9.74561C110.857 5.47105 108.76 2.46949 105.431 1.19548C104.156 0.7031 102.718 0.496424 99.7165 0.496424H89.4805V6.66342H96.6741H96.814H99.0998C102.718 6.66342 103.91 7.48456 103.91 9.70382C103.91 12.0479 102.101 12.5807 99.7991 12.5807H96.814H96.6741H89.4805V29.8887H96.6741V19.9822H100.046L105.266 29.8887H113.282L107.568 19.6113Z" fill="white"></path></g><defs><linearGradient id="paint0_linear_189_569" x1="24.595" y1="7.43134" x2="36.8463" y2="-0.832316" gradientUnits="userSpaceOnUse"><stop stop-color="white"></stop><stop offset="0.00439116" stop-color="white"></stop><stop offset="0.32232" stop-color="#E9F0F4"></stop><stop offset="0.526105" stop-color="white"></stop><stop offset="0.75396" stop-color="#EDF1F3"></stop><stop offset="1" stop-color="#F0F3F4"></stop></linearGradient><linearGradient id="paint1_linear_189_569" x1="65.3867" y1="6.92289" x2="52.7889" y2="-0.646639" gradientUnits="userSpaceOnUse"><stop stop-color="white"></stop><stop offset="0.00439116" stop-color="white"></stop><stop offset="0.111827" stop-color="#E8EBED"></stop><stop offset="0.366945" stop-color="white"></stop><stop offset="0.724353" stop-color="#F2F9FF"></stop><stop offset="1" stop-color="white"></stop></linearGradient><clipPath id="clip0_189_569"><rect width="154" height="30.3821" fill="white"></rect></clipPath></defs></svg> 