<?xml version="1.0" encoding="UTF-8"?> <svg xmlns="http://www.w3.org/2000/svg" xmlns:xlink="http://www.w3.org/1999/xlink" version="1.1" id="Layer_1" x="0px" y="0px" viewBox="0 0 100 97" style="enable-background:new 0 0 100 97;" xml:space="preserve"> <style type="text/css"> .st0{fill:#436FB6;} </style> <g> <path class="st0" d="M72.4,92c-10.9,0-19.7-8.8-19.7-19.7s8.8-19.7,19.7-19.7s19.7,8.8,19.7,19.7S83.2,92,72.4,92z M72.4,55.2 c-9.4,0-17.1,7.7-17.1,17.1S63,89.4,72.4,89.4s17.1-7.7,17.1-17.1S81.8,55.2,72.4,55.2z"></path> </g> <path class="st0" d="M84.7,71.1c0-0.4-0.3-0.7-0.7-0.7l-1.5-0.2c-0.3,0-0.6-0.2-0.7-0.5l-0.6-1.5c-0.1-0.3-0.1-0.6,0.1-0.8l0.9-1.2 c0.2-0.3,0.2-0.7,0-1c-0.3-0.4-0.7-0.9-1.1-1.2c-0.4-0.3-0.7-0.7-1.1-1c-0.3-0.2-0.7-0.2-1,0l-1.2,0.9c-0.2,0.2-0.6,0.2-0.8,0.1 l-1.5-0.6C75.2,63.3,75,63,75,62.7l-0.2-1.5c0-0.4-0.4-0.7-0.7-0.7c-0.5-0.1-1-0.1-1.5-0.1c-0.6,0-1.1,0-1.7,0.1 c-0.4,0-0.7,0.3-0.7,0.7L70,62.7c0,0.3-0.2,0.6-0.5,0.7L68,64c-0.4,0-0.7,0-1-0.2l-1.2-0.9c-0.3-0.2-0.7-0.2-1,0 c-0.4,0.3-0.9,0.7-1.2,1.1s-0.7,0.7-1,1.1c-0.2,0.3-0.2,0.7,0,1l0.9,1.2c0.2,0.2,0.2,0.6,0.1,0.8L63,69.7c-0.1,0.3-0.4,0.5-0.7,0.5 l-1.5,0.2c-0.4,0-0.7,0.4-0.7,0.7c-0.1,0.5-0.1,1-0.1,1.5c0,0.6,0,1.1,0.1,1.7c0,0.4,0.3,0.7,0.7,0.7l1.5,0.2c0.3,0,0.6,0.2,0.7,0.5 l0.6,1.5c0.1,0.3,0.1,0.6-0.1,0.8l-0.9,1.2c-0.2,0.3-0.2,0.7,0,1c0.3,0.4,0.7,0.9,1.1,1.2c0.4,0.3,0.7,0.7,1.1,1 c0.3,0.2,0.7,0.2,1,0l1.2-0.9c0.2-0.2,0.6-0.2,0.8-0.1l1.5,0.6c0.3,0.1,0.5,0.4,0.5,0.7l0.2,1.5c0,0.4,0.4,0.7,0.7,0.7 c0.5,0.1,1,0.1,1.5,0.1c0.6,0,1.1,0,1.7-0.1c0.4,0,0.7-0.3,0.7-0.7l0.2-1.5c0-0.3,0.2-0.6,0.5-0.7l1.5-0.6c0.3-0.1,0.6-0.1,0.8,0.1 l1.2,0.9c0.3,0.2,0.7,0.2,1,0c0.4-0.3,0.9-0.7,1.2-1.1c0.3-0.4,0.7-0.7,1-1.1c0.2-0.3,0.2-0.7,0-1L81.1,78c-0.2-0.2-0.2-0.6-0.1-0.8 l0.6-1.5c0.1-0.3,0.4-0.5,0.7-0.5l1.5-0.2c0.4,0,0.7-0.4,0.7-0.7c0.1-0.5,0.1-1,0.1-1.5C84.8,72.2,84.7,71.7,84.7,71.1z M70.2,67.5 c1.3-0.5,2.8-0.5,4-0.1l-7.5,5.1C66.8,70.4,68.1,68.4,70.2,67.5z M67.2,74.8L67.2,74.8l6.7-4.9l-1.4,8.4 C70.2,78.3,68.1,77,67.2,74.8z M75.1,77.6l1.4-8.7c0.4,0.5,0.8,1,1,1.6C78.7,73.2,77.6,76.2,75.1,77.6z"></path> <path class="st0" d="M22.2,81.4c-1.4,0-2.5-1-2.5-2.2V39h9.5c2.9,0,5.2-2.2,5.2-4.9v-9.8h28.6c1.4,0,2.5,1,2.5,2.2v23.4 c0.9-0.3,1.8-0.5,2.7-0.7V26.5c0-2.7-2.3-4.9-5.2-4.9H33c0,0-0.1,0-0.1,0c-0.1,0-0.2,0-0.4,0.1c0,0-0.1,0-0.1,0 c-0.1,0.1-0.3,0.1-0.4,0.3L17.3,36.7c-0.1,0.1-0.2,0.2-0.3,0.4c0,0,0,0.1,0,0.1c0,0.1-0.1,0.2-0.1,0.4c0,0,0,0.1,0,0.1v41.5 c0,2.7,2.3,4.9,5.2,4.9h29.6c-0.5-0.9-0.9-1.8-1.2-2.7H22.2z M31.7,26.2v7.9c0,1.2-1.1,2.2-2.5,2.2h-7.6L31.7,26.2z"></path> <path class="st0" d="M57,46.5H29.6c-0.7,0-1.4,0.6-1.4,1.4s0.6,1.4,1.4,1.4H57c0.7,0,1.4-0.6,1.4-1.4S57.7,46.5,57,46.5z"></path> <path class="st0" d="M57.8,54c-0.2-0.2-0.5-0.3-0.8-0.3H29.6c-0.7,0-1.4,0.6-1.4,1.4c0,0.7,0.6,1.4,1.4,1.4h25.6 C56.1,55.6,56.9,54.8,57.8,54z"></path> <path class="st0" d="M29.6,61c-0.7,0-1.4,0.6-1.4,1.4c0,0.7,0.6,1.4,1.4,1.4h21c0.4-0.9,0.8-1.8,1.3-2.7H29.6z"></path> <path class="st0" d="M83.1,15c0-2.6-2.3-4.7-5-4.7H39.3c-2.8,0-5,2.1-5,4.7v2.2c0,0.7,0.6,1.4,1.4,1.4s1.4-0.6,1.4-1.4V15 c0-1.1,1-2,2.3-2H78c1.3,0,2.3,0.9,2.3,2v34.9c0.9,0.3,1.8,0.7,2.7,1.1V15z"></path> </svg> 