<?xml version="1.0" encoding="UTF-8"?> <svg xmlns="http://www.w3.org/2000/svg" xmlns:xlink="http://www.w3.org/1999/xlink" version="1.1" id="Layer_1" x="0px" y="0px" viewBox="0 0 100 97" style="enable-background:new 0 0 100 97;" xml:space="preserve"> <style type="text/css"> .st0{fill:#FFFFFF;} </style> <g> <path class="st0" d="M91.9,25.1c-1-1.2-2.4-1.9-3.9-1.9h-9.6c-0.8,0-1.4,0.6-1.4,1.4s0.6,1.4,1.4,1.4H88c0.7,0,1.4,0.3,1.8,0.9 c0.4,0.5,0.6,1.3,0.4,1.9L83,59.4H30.4h-1.2L22,28.7c-0.2-0.7,0-1.4,0.4-1.9s1.1-0.9,1.8-0.9h9.2c0.8,0,1.4-0.6,1.4-1.4 s-0.6-1.4-1.4-1.4h-9.2c-1.2,0-2.4,0.4-3.3,1.2l-2.1-8.8l0,0c-0.6-2.3-2.6-3.8-4.9-3.8H8.4c-0.8,0-1.4,0.6-1.4,1.4 c0,0.8,0.6,1.4,1.4,1.4H14c1.1,0,2,0.7,2.2,1.7l3.2,13.1l0,0l7.2,31.1c-1.9,1.2-3.1,3.3-3.1,5.7c0,3.8,3.1,6.9,6.9,6.9h53 c0.8,0,1.4-0.6,1.4-1.4s-0.6-1.4-1.4-1.4h-53c-2.3,0-4.1-1.8-4.1-4.1s1.8-4.1,4.1-4.1h53h0.7c0.6,0,1.2-0.4,1.3-1.1l7.4-31.7 C93.2,27.9,92.8,26.3,91.9,25.1z"></path> <path class="st0" d="M34,77.6c-3.8,0-6.9,3.1-6.9,6.9s3.1,6.9,6.9,6.9s6.9-3.1,6.9-6.9S37.8,77.6,34,77.6z M34,88.6 c-2.3,0-4.1-1.8-4.1-4.1s1.8-4.1,4.1-4.1s4.1,1.8,4.1,4.1S36.3,88.6,34,88.6z"></path> <path class="st0" d="M74.2,77.6c-3.8,0-6.9,3.1-6.9,6.9s3.1,6.9,6.9,6.9s6.9-3.1,6.9-6.9S78,77.6,74.2,77.6z M74.2,88.6 c-2.3,0-4.1-1.8-4.1-4.1s1.8-4.1,4.1-4.1s4.1,1.8,4.1,4.1S76.5,88.6,74.2,88.6z"></path> <path class="st0" d="M56.1,40.7c9.7,0,17.6-7.9,17.6-17.6S65.8,5.5,56.1,5.5s-17.6,7.9-17.6,17.6C38.5,32.9,46.4,40.7,56.1,40.7z M56.1,8c8.4,0,15.2,6.8,15.2,15.2s-6.8,15.2-15.2,15.2s-15.2-6.8-15.2-15.2S47.7,8,56.1,8z"></path> <path class="st0" d="M53.3,28.8c0.3,0.3,0.6,0.4,1,0.4s0.7-0.1,1-0.4l9.1-9.1c0.5-0.5,0.5-1.4,0-1.9s-1.4-0.5-1.9,0L54.3,26 l-4.5-4.5c-0.5-0.5-1.4-0.5-1.9,0s-0.5,1.4,0,1.9L53.3,28.8z"></path> </g> </svg> 